 <svg  version="1.0" xmlns="http://www.w3.org/2000/svg"  width="300.000000pt" height="159.000000pt" viewBox="0 0 300.000000 159.000000"  preserveAspectRatio="xMidYMid meet">  <g transform="translate(0.000000,159.000000) scale(0.050000,-0.050000)" fill="#ffffff" stroke="none"> <path d="M1162 2768 c-651 -175 -967 -901 -660 -1513 410 -814 1557 -884 1965 -120 l55 105 -86 0 c-79 0 -90 -7 -125 -70 -212 -394 -823 -552 -1224 -317 -123 72 -143 109 -29 54 374 -179 953 -24 1126 301 12 23 -31 -13 -97 -80 -613 -621 -1627 -135 -1440 691 165 731 1107 1007 1520 445 70 -95 74 -97 184 -102 l113 -4 -37 65 c-236 417 -814 667 -1265 545z m539 -20 c104 -31 299 -120 299 -136 0 -5 -47 10 -105 33 -813 315 -1673 -556 -1348 -1365 43 -108 45 -122 13 -80 -113 144 -179 462 -144 694 92 605 719 1022 1285 854z"/> <path d="M1321 1781 c-119 -119 7 -286 191 -252 102 19 90 71 -17 71 -177 1 -199 123 -25 140 71 7 100 19 100 40 0 51 -198 52 -249 1z"/> <path d="M1684 1675 c9 -222 76 -228 76 -6 0 139 -3 151 -41 151 -38 0 -40 -10 -35 -145z"/> <path d="M1900 1670 c0 -120 6 -150 30 -150 17 0 30 18 30 40 0 33 13 40 80 40 130 0 206 111 129 189 -22 21 -69 31 -150 31 l-119 0 0 -150z m215 45 c-5 -14 -38 -25 -75 -25 -37 0 -70 11 -75 25 -6 17 17 25 75 25 58 0 81 -8 75 -25z"/> <path d="M2320 1670 l0 -150 140 0 c127 0 140 4 140 40 0 35 -13 40 -100 40 -55 0 -100 9 -100 20 0 11 36 20 80 20 121 0 117 74 -5 85 -81 8 -80 8 20 12 91 3 105 9 105 43 0 36 -13 40 -140 40 l-140 0 0 -150z"/> <path d="M2720 1670 c0 -137 4 -150 40 -150 27 0 40 13 40 40 0 33 13 40 71 40 108 0 149 30 149 110 0 86 -40 110 -189 110 l-111 0 0 -150z m220 40 c0 -21 -21 -30 -70 -30 -49 0 -70 9 -70 30 0 21 21 30 70 30 49 0 70 -9 70 -30z"/> <path d="M3140 1670 c0 -137 4 -150 40 -150 36 0 40 13 40 150 0 137 -4 150 -40 150 -36 0 -40 -13 -40 -150z"/> <path d="M3381 1781 c-120 -120 16 -291 199 -251 96 21 76 70 -28 70 -168 0 -188 123 -22 140 71 7 100 19 100 40 0 51 -198 52 -249 1z"/> </g> </svg> 