<?xml version="1.0" standalone="no"?>
<!DOCTYPE svg PUBLIC "-//W3C//DTD SVG 20010904//EN"
 "http://www.w3.org/TR/2001/REC-SVG-20010904/DTD/svg10.dtd">
<svg version="1.0" xmlns="http://www.w3.org/2000/svg"
 width="300.000000pt" height="348.000000pt" viewBox="0 0 300.000000 348.000000"
 preserveAspectRatio="xMidYMid meet">
<metadata>
Created by potrace 1.10, written by Peter Selinger 2001-2011
</metadata>
<g transform="translate(0.000000,348.000000) scale(0.100000,-0.100000)"
fill="#ffffff" stroke="none">
<path d="M760 3429 c-30 -27 -84 -72 -120 -99 -36 -27 -69 -53 -75 -57 -78
-65 -294 -176 -460 -238 -55 -21 -101 -38 -101 -39 -1 0 8 -21 20 -46 58 -120
89 -232 130 -465 14 -76 35 -340 35 -435 1 -663 27 -988 93 -1185 46 -138 83
-200 178 -296 94 -95 169 -150 308 -228 83 -46 135 -71 322 -152 25 -11 54
-24 65 -29 11 -5 45 -19 75 -30 107 -42 177 -74 250 -118 24 -14 29 -13 65 11
37 24 107 55 345 154 142 59 381 179 462 232 157 103 258 204 319 321 13 25
24 47 24 50 2 7 15 40 25 65 10 24 41 141 45 170 2 11 8 54 14 95 20 130 32
367 32 620 1 607 48 953 165 1209 14 29 24 55 22 56 -2 1 -57 24 -123 50 -66
26 -124 51 -129 56 -6 5 -16 9 -22 9 -40 0 -433 258 -462 304 -4 6 -22 24 -41
39 -36 30 -42 29 -116 -3 -62 -28 -108 -42 -220 -71 -76 -20 -165 -36 -283
-50 -87 -11 -178 -7 -330 16 -93 14 -290 70 -400 114 -29 11 -54 21 -55 21 -1
0 -27 -23 -57 -51z m215 -42 c204 -67 429 -102 585 -94 163 10 417 66 552 123
31 13 62 24 68 24 6 0 33 -20 59 -45 156 -148 419 -308 635 -386 l83 -30 -33
-82 c-92 -232 -129 -487 -139 -959 -14 -695 -21 -801 -70 -996 -14 -53 -43
-135 -66 -182 -98 -199 -352 -381 -774 -555 -238 -97 -329 -138 -347 -153 -15
-12 -25 -10 -85 18 -37 18 -124 56 -193 84 -191 80 -205 86 -354 159 -180 88
-316 178 -410 273 -87 86 -132 161 -175 289 -59 178 -78 365 -86 865 -7 481
-15 599 -51 820 -24 144 -69 303 -108 378 -9 17 -16 33 -16 35 0 2 39 19 87
37 121 46 314 146 414 215 88 61 221 168 253 203 18 21 19 21 55 3 20 -10 72
-30 116 -44z"/>
<path d="M1254 3162 c-43 -21 -104 -74 -104 -91 0 -7 -80 -12 -221 -13 l-221
-3 -59 -110 c-32 -60 -55 -113 -51 -117 4 -4 30 -8 57 -10 l50 -3 3 -74 c2
-58 0 -72 -10 -68 -21 8 -95 -35 -121 -70 l-23 -32 -11 42 c-11 39 -75 127
-92 127 -14 0 -20 -67 -10 -104 5 -19 27 -52 49 -73 34 -32 40 -43 39 -78 l0
-40 -22 46 c-24 50 -70 109 -85 109 -5 0 -12 -18 -16 -40 -8 -51 10 -94 58
-140 31 -29 39 -32 47 -20 10 15 6 -7 -11 -70 -7 -24 -7 -24 -15 9 -8 36 -79
121 -101 121 -19 0 -12 -109 10 -142 9 -14 34 -38 56 -53 36 -25 39 -30 37
-71 -2 -51 -12 -57 -22 -14 -6 29 -88 130 -106 130 -15 0 -10 -109 6 -140 8
-15 35 -45 60 -65 40 -34 45 -42 45 -79 l-1 -41 -24 46 c-27 51 -91 113 -107
103 -14 -9 -6 -91 13 -129 8 -16 35 -46 62 -65 41 -30 47 -40 47 -70 l-1 -35
-16 30 c-21 40 -94 115 -111 115 -12 0 -14 -11 -9 -54 7 -74 28 -109 87 -147
49 -31 50 -34 50 -81 0 -57 -11 -62 -29 -13 -13 37 -105 119 -125 112 -15 -5
-8 -63 13 -112 14 -32 30 -47 79 -73 l62 -33 0 -46 0 -46 -30 42 c-27 37 -110
101 -132 101 -13 0 -9 -58 7 -98 22 -50 47 -75 104 -102 42 -19 50 -28 56 -57
8 -45 2 -50 -20 -16 -23 36 -60 68 -108 93 -32 18 -38 18 -43 6 -6 -16 10 -73
33 -119 9 -19 36 -39 81 -60 49 -24 67 -38 67 -52 0 -18 -6 -20 -69 -18 l-68
3 7 -36 c10 -56 52 -143 95 -199 26 -34 43 -70 51 -106 9 -41 21 -63 50 -93
22 -21 39 -45 39 -53 0 -9 12 -30 27 -48 38 -44 72 -88 82 -103 8 -13 28 -20
64 -21 9 -1 25 -11 35 -23 37 -46 53 -58 76 -58 13 0 44 -16 68 -36 81 -69
202 -113 307 -114 l55 0 -33 -34 -34 -35 37 -7 c65 -12 141 0 185 29 22 15 47
27 55 27 8 0 40 -13 71 -30 45 -24 69 -30 114 -29 31 0 65 4 76 8 19 7 18 10
-11 38 l-30 30 76 6 c101 8 186 39 267 98 37 27 77 49 90 49 12 0 33 14 50 34
28 34 77 61 93 51 11 -7 140 154 140 175 0 10 11 25 25 34 29 19 51 58 60 109
4 21 28 68 52 104 57 83 94 165 97 217 1 23 7 50 13 61 14 26 27 111 19 130
-4 13 -10 14 -26 5 -11 -6 -20 -7 -20 -2 0 4 -9 18 -21 31 l-21 22 25 19 c29
23 52 77 62 142 7 48 -5 69 -28 49 -10 -7 -20 -1 -40 24 l-26 33 23 16 c26 16
40 51 55 129 8 46 8 48 -14 45 -15 -2 -31 7 -48 28 l-26 31 24 23 c27 25 45
76 45 127 0 33 -14 51 -25 33 -4 -6 -17 1 -33 18 -15 16 -34 31 -42 34 -12 5
-11 9 7 22 23 17 40 61 45 116 2 29 0 35 -16 33 -11 -1 -28 10 -38 23 -11 13
-27 24 -35 24 -11 0 -3 11 21 33 28 25 38 43 45 82 10 53 7 69 -12 62 -7 -2
-27 9 -45 24 -45 40 -90 39 -137 -2 -55 -48 -48 -113 19 -171 17 -15 26 -27
19 -28 -6 0 -26 -13 -44 -29 -30 -28 -31 -32 -24 -77 5 -37 15 -56 43 -82 l36
-34 -32 -29 c-21 -19 -32 -38 -32 -56 0 -48 19 -97 45 -119 l26 -21 -40 -28
c-33 -22 -41 -34 -41 -59 0 -53 19 -104 50 -133 l29 -27 -26 -28 c-15 -16 -33
-28 -40 -28 -33 0 -6 -131 35 -172 l29 -30 -29 -29 c-16 -16 -34 -29 -40 -29
-7 0 -8 -22 -4 -62 3 -35 6 -99 6 -143 -1 -73 -4 -87 -40 -160 -22 -44 -40
-86 -40 -93 0 -7 -34 -52 -75 -101 -41 -49 -75 -96 -75 -103 0 -24 -54 -69
-80 -66 -17 2 -30 -7 -51 -37 -21 -30 -36 -41 -63 -46 -35 -6 -36 -5 -36 27 0
31 1 32 38 27 48 -6 67 14 64 68 -3 37 -2 38 20 30 18 -7 29 -4 47 10 23 19
24 28 6 87 -7 19 -4 22 22 22 17 0 38 9 48 20 18 20 18 22 -3 59 l-22 40 22 6
c26 8 58 34 58 46 0 5 -13 23 -29 42 l-30 33 29 17 c46 27 49 56 9 88 l-33 27
28 32 c15 18 25 38 23 44 -2 6 -20 22 -40 35 l-37 24 21 34 c20 32 20 35 4 53
-9 10 -30 22 -46 25 -34 8 -34 7 -14 45 14 28 14 31 -5 50 -14 14 -33 20 -62
20 -29 0 -39 3 -32 10 7 7 25 8 52 2 l41 -10 3 36 c3 31 9 40 43 59 22 12 54
36 71 52 30 30 30 31 23 98 -4 37 -8 73 -10 78 -1 6 1 18 5 27 24 54 -103 288
-155 288 -24 0 -27 7 -34 71 -8 78 -15 109 -26 109 -5 0 -9 4 -9 10 0 6 53 8
135 7 l135 -2 0 192 0 192 53 -2 c68 -2 68 8 -3 141 l-54 102 -189 0 -188 0
-31 36 c-56 63 -90 74 -238 74 -99 0 -130 -3 -129 -12 6 -46 -2 -109 -13 -106
-8 3 -12 19 -10 42 2 21 -2 44 -10 53 -9 12 -9 15 0 9 6 -4 12 -2 12 3 0 6
-21 11 -47 11 -27 0 -70 3 -98 5 -37 4 -61 1 -91 -13z m189 -21 c27 -1 27 -2
27 -65 0 -36 -3 -67 -7 -69 -5 -3 -39 -2 -78 2 -67 7 -71 7 -97 -20 -51 -50
-33 -92 66 -159 94 -63 114 -97 111 -190 -1 -72 -9 -92 -54 -134 -26 -25 -42
-30 -91 -34 l-60 -4 0 31 c0 43 -23 85 -55 99 -41 19 -43 14 -7 -16 22 -18 35
-39 38 -62 3 -19 10 -45 16 -57 11 -23 13 -23 241 -23 l229 0 -6 -22 c-4 -13
-10 -58 -13 -100 -5 -68 -8 -77 -27 -80 -42 -6 -176 -269 -147 -287 21 -13 -4
-48 -33 -48 -26 0 -41 28 -24 45 24 24 -34 171 -98 249 -33 40 -37 42 -97 45
l-62 3 1 42 c0 25 8 51 17 61 9 10 19 34 23 53 4 24 3 30 -4 20 -9 -12 -12
-10 -17 12 -4 15 -19 36 -33 47 -22 18 -35 20 -101 14 -67 -5 -79 -9 -101 -33
-14 -16 -31 -26 -38 -24 -11 4 -10 8 2 22 8 9 16 34 18 55 3 34 7 41 32 47 15
4 36 15 46 24 27 25 108 41 169 35 46 -5 58 -3 79 15 35 30 23 54 -48 105 -82
57 -104 100 -104 207 -1 76 1 83 30 120 49 60 98 83 169 79 33 -2 72 -4 88 -5z
m326 -7 c65 -13 143 -118 171 -231 16 -62 4 -132 -39 -228 -26 -56 -30 -61
-75 -73 -56 -14 -96 -51 -96 -87 l0 -25 -100 0 -100 0 0 325 0 325 104 0 c57
0 118 -3 135 -6z m-644 -125 c-8 -25 -9 -100 -1 -136 l6 -28 -247 2 c-137 2
-249 3 -251 3 -2 0 5 12 16 28 11 15 34 55 51 90 l31 62 201 0 c197 0 200 0
194 -21z m381 -25 c-3 -26 -6 -66 -6 -90 l0 -44 -62 0 c-50 0 -67 5 -94 25
-46 35 -58 59 -43 86 11 21 16 21 100 16 l89 -7 0 30 c0 17 5 30 11 30 8 0 10
-15 5 -46z m764 38 c0 -4 20 -43 45 -86 25 -44 45 -82 45 -85 0 -3 -85 -6
-189 -6 l-188 0 -11 58 c-6 32 -18 72 -26 89 -9 17 -16 33 -16 35 0 1 77 3
170 3 94 0 170 -3 170 -8z m-1105 -242 c11 -17 44 -46 73 -65 28 -20 52 -43
52 -52 0 -14 -11 -15 -85 -11 -68 5 -85 3 -85 -8 0 -9 -11 -14 -28 -14 -16 0
-37 -9 -47 -20 -10 -11 -25 -20 -34 -20 -9 0 -27 -7 -39 -16 -17 -12 -22 -25
-22 -62 l0 -47 -106 2 -105 2 0 170 c0 94 1 172 1 174 0 1 91 1 202 0 l203 -2
20 -31z m340 -47 c4 -46 4 -125 0 -176 l-7 -92 -44 -2 -45 -1 31 28 c41 38 50
68 50 161 0 82 -7 107 -42 146 l-20 21 35 -1 35 -1 7 -83z m750 -93 l0 -171
-112 -2 -111 -2 -12 40 c-17 57 -56 105 -86 105 -29 0 -29 1 -4 49 10 21 24
60 30 87 7 27 13 54 15 59 1 6 56 9 141 8 l139 -2 0 -171z m-1764 27 c29 -45
47 -107 31 -107 -17 0 -60 74 -65 113 -3 20 -3 37 1 37 4 0 19 -19 33 -43z
m189 -22 c0 -23 -37 -68 -70 -85 -54 -28 -52 -8 5 47 41 39 65 53 65 38z m29
-101 l-2 -106 120 1 119 2 42 -85 c23 -46 42 -89 42 -95 0 -13 -28 -20 -95
-23 l-50 -3 -42 -69 c-55 -90 -100 -205 -84 -215 8 -5 9 -15 2 -33 -5 -14 -11
-50 -12 -80 -3 -67 12 -92 84 -134 45 -26 52 -35 55 -66 l3 -35 52 3 52 3 -50
-9 c-64 -12 -80 -32 -59 -73 13 -25 14 -31 2 -38 -7 -5 -21 -7 -30 -5 -10 2
-24 -6 -34 -22 -16 -25 -16 -28 4 -62 l21 -36 -34 -13 c-47 -17 -54 -46 -19
-82 l28 -29 -32 -26 c-40 -34 -40 -52 0 -86 l33 -26 -28 -27 c-15 -15 -27 -34
-27 -41 0 -12 40 -49 63 -57 9 -3 7 -14 -7 -41 -18 -34 -18 -37 -2 -55 10 -11
31 -23 47 -26 34 -8 33 -5 14 -41 -21 -41 -1 -68 53 -72 39 -3 40 -4 32 -32
-4 -16 -7 -30 -5 -32 2 -2 -11 -3 -30 -3 -36 2 -75 28 -75 51 0 14 -117 171
-144 194 -9 7 -16 21 -16 32 0 10 -16 49 -35 85 -31 58 -35 75 -35 139 0 40
-4 75 -9 78 -5 3 -33 -5 -62 -19 -76 -35 -88 -17 -26 41 58 54 77 95 77 170 0
51 -2 56 -20 51 -23 -6 -24 -3 -9 24 14 26 14 130 0 139 -8 4 -8 16 0 39 6 18
9 55 6 84 -3 32 1 63 10 85 8 19 14 57 13 85 -1 29 4 76 11 105 20 80 3 86
-63 21 -29 -30 -59 -63 -66 -74 -11 -17 -12 -17 -7 -2 3 10 5 28 5 41 0 14 11
28 36 41 78 42 124 123 102 183 -5 15 -3 33 7 52 19 36 20 80 2 80 -19 0 -96
-57 -104 -75 -11 -30 -21 -14 -13 21 10 42 5 37 57 53 27 7 51 23 67 44 27 37
44 97 26 97 -24 0 -79 -29 -105 -56 -19 -20 -26 -23 -21 -11 3 10 6 24 6 31 0
7 17 18 39 24 53 16 87 46 101 87 6 19 14 35 16 35 3 0 4 -48 3 -106z m1818
52 c22 -20 25 -27 16 -37 -10 -10 -17 -7 -33 14 -26 33 -35 34 -64 2 -19 -21
-25 -23 -35 -12 -8 11 -7 18 7 29 39 34 73 35 109 4z m-627 6 c0 -4 14 -13 30
-20 24 -11 60 -55 60 -74 0 -2 -54 -3 -120 -3 -103 0 -120 2 -120 16 0 26 46
60 89 66 23 3 41 10 41 14 0 5 5 9 10 9 6 0 10 -3 10 -8z m596 -39 c7 -10 14
-28 14 -40 0 -30 5 -29 41 10 l31 32 -6 -39 c-6 -44 -25 -69 -66 -86 -24 -10
-33 -8 -63 12 -38 25 -57 55 -56 91 l0 22 16 -22 c21 -30 29 -29 48 7 18 35
23 36 41 13z m-2005 -96 c6 -22 8 -41 6 -43 -2 -3 -18 11 -36 31 -24 28 -31
45 -31 77 l0 42 25 -34 c14 -19 30 -52 36 -73z m169 47 c0 -4 -10 -22 -22 -41
-20 -33 -83 -71 -96 -58 -7 6 94 105 108 105 5 0 10 -3 10 -6z m1078 -44 c-11
-18 -22 -19 -113 -17 -55 2 -100 7 -100 11 0 5 43 8 97 7 59 -1 99 2 103 8 3
6 10 11 16 11 5 0 4 -9 -3 -20z m174 7 c66 2 67 2 73 -27 4 -16 1 -54 -5 -84
-28 -134 -162 -145 -205 -16 -32 98 -18 148 39 133 17 -4 61 -7 98 -6z m-719
-13 c21 -7 24 -79 3 -128 -30 -73 -92 -92 -143 -44 -39 37 -59 132 -34 162 12
15 135 22 174 10z m-756 -82 c17 -26 34 -63 38 -82 l7 -35 -32 30 c-17 17 -35
37 -40 45 -12 24 -22 90 -13 90 4 0 22 -21 40 -48z m1597 -9 c3 -21 8 -59 12
-84 l6 -46 -34 1 c-37 1 -42 18 -21 73 7 18 13 46 13 63 0 43 17 37 24 -7z
m495 12 c34 -17 45 -39 26 -55 -10 -9 -15 -7 -19 8 -4 11 -15 27 -26 37 -19
17 -21 17 -49 -14 -26 -27 -30 -29 -42 -15 -11 14 -9 19 11 35 30 22 61 24 99
4z m-789 -16 c0 -12 12 -43 27 -69 15 -27 24 -52 21 -56 -4 -3 -23 -4 -41 0
l-35 6 5 58 c2 31 5 63 5 70 2 21 18 13 18 -9z m-1124 -38 c-16 -30 -65 -71
-86 -71 -18 0 15 49 58 87 41 36 51 30 28 -16z m1894 10 c5 -11 10 -29 10 -40
0 -30 16 -26 50 12 32 35 37 27 19 -36 -8 -31 -19 -42 -54 -59 l-44 -21 -40
28 c-30 20 -44 39 -52 67 -13 50 -7 57 20 23 l20 -27 22 36 c24 41 34 44 49
17z m-2060 -183 c14 -50 7 -58 -26 -27 -36 34 -54 72 -54 115 l0 37 34 -43
c18 -23 39 -60 46 -82z m1488 73 c-56 -92 -50 -90 -86 -31 -18 29 -31 54 -29
56 2 2 18 -2 35 -8 28 -11 35 -10 59 9 39 29 47 18 21 -26z m-1428 18 c0 -5
-4 -9 -10 -9 -5 0 -10 7 -10 16 0 8 5 12 10 9 6 -3 10 -10 10 -16z m680 16 c0
-6 -71 -115 -75 -115 -3 0 -65 101 -65 106 0 3 9 0 19 -6 29 -15 77 -12 91 5
12 14 30 20 30 10z m-628 -22 c-7 -3 -24 -21 -37 -41 l-25 -37 0 32 c0 25 5
33 28 41 27 10 58 15 34 5z m46 -33 c-7 -26 -24 -52 -49 -75 -50 -45 -63 -45
-44 3 15 35 81 112 96 112 4 0 2 -18 -3 -40z m450 -15 l22 -35 -32 -29 c-18
-16 -35 -28 -37 -26 -6 6 11 125 17 125 4 0 17 -16 30 -35z m157 2 c4 -18 5
-47 3 -64 l-3 -31 -33 28 -33 27 23 36 c13 20 26 36 30 37 4 0 10 -15 13 -33z
m613 -2 l22 -35 -32 -29 c-18 -16 -35 -25 -37 -20 -5 16 10 119 17 119 4 0 17
-16 30 -35z m157 -8 c4 -24 5 -53 3 -64 -3 -20 -4 -20 -36 7 l-33 27 23 36
c13 20 26 36 30 37 4 0 10 -20 13 -43z m-994 -47 c-3 -81 3 -84 59 -40 20 16
40 27 44 23 3 -3 6 -53 6 -111 0 -103 0 -104 -22 -98 -13 3 -30 6 -38 6 -12 1
-11 3 3 11 12 7 17 23 17 59 l0 48 -56 4 -56 3 4 -57 c3 -62 -13 -84 -37 -51
-11 15 -13 15 -24 -5 l-12 -23 -49 28 c-28 15 -50 32 -50 36 0 14 65 150 93
194 24 37 31 42 69 45 24 2 45 2 47 1 2 -2 3 -34 2 -73z m382 15 c42 -61 94
-188 78 -193 -5 -2 -28 -16 -50 -32 -39 -29 -41 -29 -51 -10 -10 19 -40 28
-40 13 0 -5 -24 -8 -52 -8 -29 0 -71 -4 -93 -8 l-40 -8 3 98 c1 54 5 104 7
111 4 10 16 5 45 -18 60 -47 74 -37 67 48 l-7 67 48 -3 c45 -3 50 -7 85 -57z
m386 8 c-8 -54 -2 -93 15 -93 6 1 26 14 45 30 19 16 38 27 43 24 4 -3 8 -54 8
-114 l0 -108 -35 11 c-28 8 -33 13 -20 19 10 6 15 24 15 58 l0 48 -55 4 -55 3
0 -57 c0 -61 -13 -81 -34 -52 -13 17 -14 16 -25 -4 l-12 -23 -49 28 c-28 15
-50 32 -50 37 0 14 78 175 100 206 16 23 29 30 63 32 23 2 45 2 48 1 3 -1 2
-24 -2 -50z m362 23 c28 -33 79 -132 93 -179 l12 -42 -43 -27 c-50 -32 -61
-34 -69 -13 -6 15 -34 21 -34 8 0 -5 -24 -8 -52 -8 -29 0 -70 -4 -90 -8 l-38
-8 0 105 c0 58 4 107 8 110 5 3 25 -9 46 -25 55 -46 70 -35 61 49 l-7 67 48
-4 c33 -2 53 -10 65 -25z m448 -21 c35 -18 46 -44 28 -63 -12 -11 -17 -8 -35
22 -26 44 -43 45 -77 4 -24 -28 -28 -30 -42 -15 -14 14 -14 18 -2 33 28 34 83
43 128 19z m-9 -91 c0 -36 12 -34 52 9 l39 42 -6 -40 c-10 -64 -27 -88 -77
-113 l-48 -24 -41 33 c-41 32 -69 81 -69 116 1 15 5 13 25 -9 27 -32 45 -36
45 -11 0 9 10 27 22 40 l22 24 18 -23 c10 -13 18 -32 18 -44z m-2129 -62 c5
-13 12 -35 15 -49 l7 -26 -37 28 c-44 34 -52 47 -60 105 l-7 45 37 -40 c20
-22 40 -50 45 -63z m54 78 c3 -5 1 -10 -4 -10 -6 0 -11 5 -11 10 0 6 2 10 4
10 3 0 8 -4 11 -10z m115 -33 c-11 -49 -31 -78 -69 -100 -35 -21 -39 -12 -15
36 15 30 84 110 90 104 2 -1 -1 -19 -6 -40z m440 -74 c0 -42 0 -43 -35 -43
-35 0 -35 1 -35 43 0 42 0 43 35 43 35 0 35 -1 35 -43z m768 3 c-3 -38 -5 -41
-35 -44 -33 -3 -33 -3 -33 40 0 42 1 43 36 44 35 1 35 0 32 -40z m-1378 -154
c11 -29 16 -52 11 -52 -15 0 -91 89 -91 107 0 10 -3 29 -6 43 -12 46 64 -39
86 -98z m155 82 c-10 -57 -25 -81 -66 -109 -42 -27 -47 -22 -25 29 13 31 81
116 93 116 3 0 2 -16 -2 -36z m1921 21 c16 -8 23 -15 16 -15 -7 0 -24 -12 -37
-26 -21 -22 -27 -25 -40 -14 -20 17 -19 26 7 50 26 24 20 23 54 5z m-2026 -5
c0 -5 -5 -10 -11 -10 -5 0 -7 5 -4 10 3 6 8 10 11 10 2 0 4 -4 4 -10z m2110 0
c34 -18 44 -49 24 -71 -16 -18 -17 -17 -36 21 -11 22 -24 40 -29 40 -5 0 -9 5
-9 10 0 13 26 13 50 0z m-2082 -30 c-26 -35 -28 -36 -28 -12 0 15 24 36 48 41
1 1 -7 -12 -20 -29z m318 9 c19 -11 34 -24 34 -29 0 -23 -21 -60 -35 -60 -8 0
-15 -5 -15 -11 0 -5 4 -8 9 -4 16 9 62 -17 56 -33 -3 -7 -5 -22 -5 -33 0 -28
-22 -23 -64 14 l-38 32 7 73 c4 39 10 72 13 72 2 0 20 -9 38 -21z m770 0 c19
-11 34 -24 34 -29 0 -23 -21 -60 -35 -60 -8 0 -15 -5 -15 -11 0 -5 4 -8 9 -4
5 3 21 0 36 -7 18 -8 24 -16 19 -27 -4 -9 -7 -24 -8 -33 -1 -26 -18 -22 -60
15 l-37 32 7 73 c4 39 9 72 12 72 2 0 20 -9 38 -21z m-144 -56 c6 -74 -3 -93
-54 -119 -33 -17 -35 -17 -35 -1 0 6 -3 22 -7 33 -5 18 0 24 31 37 21 9 30 16
20 16 -10 1 -22 13 -28 28 -9 25 -7 30 18 50 43 35 50 30 55 -44z m771 0 c5
-68 5 -68 -31 -100 -40 -37 -62 -42 -62 -14 0 11 -2 26 -5 33 -6 16 40 42 56
33 5 -4 9 -1 9 4 0 6 -9 11 -19 11 -12 0 -21 10 -26 27 -5 23 -1 32 22 50 43
35 50 30 56 -44z m347 -25 c0 -16 3 -28 7 -28 4 0 27 19 50 42 46 45 49 42 32
-27 -14 -55 -46 -88 -99 -104 -40 -12 -43 -11 -86 24 -52 43 -59 55 -68 115
l-6 45 35 -39 c31 -34 35 -37 41 -20 4 10 18 31 32 46 l26 28 18 -28 c10 -15
18 -39 18 -54z m-1508 62 l37 -11 3 -130 3 -130 -30 8 c-16 5 -60 8 -98 8 -73
0 -87 14 -47 48 11 9 20 24 20 34 0 9 7 25 16 35 14 14 14 20 4 33 -7 8 -23
15 -36 15 -22 0 -24 4 -24 50 l0 50 58 0 c31 0 74 -5 94 -10z m258 -40 c0 -43
-3 -50 -19 -50 -46 0 -71 -33 -36 -46 8 -4 15 -17 15 -30 0 -13 9 -33 20 -44
35 -35 26 -45 -39 -42 -32 2 -75 -1 -95 -6 l-36 -10 0 129 0 128 33 10 c17 5
60 10 95 10 l62 1 0 -50z m513 39 l37 -10 0 -130 0 -129 -27 7 c-16 5 -58 8
-96 8 -73 0 -83 9 -47 45 11 11 20 30 20 41 0 12 8 27 17 34 15 11 15 15 4 29
-7 9 -24 16 -37 16 -22 0 -24 4 -24 50 l0 50 58 0 c31 0 74 -5 95 -11z m257
-39 c0 -43 -3 -50 -19 -50 -48 0 -66 -25 -36 -50 8 -7 15 -21 15 -31 0 -11 9
-28 20 -39 35 -35 26 -45 -39 -42 -32 2 -75 -1 -95 -6 l-37 -11 3 132 3 132
30 6 c17 4 58 7 93 8 l62 1 0 -50z m-574 -23 c0 -66 17 -90 81 -119 51 -22 58
-33 54 -76 -3 -33 -2 -34 27 -27 48 10 128 8 167 -5 26 -9 44 -9 67 -1 17 6
33 10 34 8 2 -2 -2 -17 -8 -34 -16 -42 3 -67 44 -59 31 6 33 1 17 -41 -9 -24
-7 -30 11 -45 12 -10 31 -18 41 -18 23 0 23 -4 3 -35 -21 -32 -10 -60 28 -71
l31 -9 -26 -25 c-35 -33 -34 -57 3 -78 l30 -17 -36 -30 -36 -30 31 -30 c35
-34 38 -45 14 -45 -24 -1 -53 -24 -53 -42 0 -8 7 -23 15 -34 19 -25 19 -34 -3
-34 -24 0 -64 -29 -59 -44 20 -53 19 -56 -11 -56 -35 0 -54 -20 -52 -52 4 -45
2 -50 -20 -38 -20 11 -59 -1 -61 -18 -2 -24 -10 -57 -15 -61 -3 -3 -14 0 -24
7 -11 7 -25 12 -31 12 -17 0 -38 -32 -39 -58 l0 -24 -35 22 c-29 18 -38 20
-50 10 -8 -7 -15 -18 -15 -24 0 -6 -4 -17 -9 -25 -8 -12 -15 -9 -42 13 l-33
28 -18 -24 c-17 -22 -18 -18 -18 170 0 105 2 192 5 192 2 0 13 -17 24 -39 38
-74 160 -164 253 -186 25 -6 27 -4 34 30 10 58 -2 178 -24 228 -11 24 -36 63
-56 85 l-37 40 43 7 c24 4 64 18 89 31 49 24 162 140 153 156 -12 19 -123 67
-182 78 -59 12 -129 6 -182 -14 -13 -5 -15 6 -12 79 3 80 1 89 -32 157 -19 40
-48 86 -65 102 l-31 30 -39 -38 c-21 -21 -51 -63 -67 -94 -24 -49 -28 -69 -29
-143 l0 -86 -44 14 c-81 24 -174 13 -266 -33 -27 -14 -53 -29 -57 -32 -11 -11
73 -113 120 -146 23 -15 71 -36 107 -45 l66 -17 -22 -20 c-56 -50 -83 -162
-68 -288 4 -43 11 -81 13 -84 3 -3 29 3 58 12 87 27 150 81 215 182 9 15 12
-22 12 -178 1 -109 -3 -198 -7 -198 -4 0 -13 14 -19 30 -13 35 -41 39 -68 10
-24 -27 -31 -25 -44 10 -8 24 -16 30 -39 30 -18 0 -32 -6 -36 -16 -8 -22 -28
-13 -33 16 -7 48 -31 58 -87 35 -17 -7 -18 -4 -14 24 6 40 -12 55 -57 48 -30
-5 -35 -3 -35 14 0 10 4 19 9 19 16 0 -1 40 -21 51 -11 6 -31 9 -44 6 -28 -5
-28 -5 -9 33 8 16 12 36 9 45 -6 15 -57 33 -77 27 -5 -2 1 11 13 28 27 38 19
65 -22 79 l-32 11 29 30 c31 33 29 54 -10 72 -31 14 -31 21 0 38 38 20 42 50
11 76 -26 23 -33 35 -18 33 24 -4 40 4 52 26 12 23 11 29 -9 55 l-22 30 25 0
c13 0 34 8 46 18 22 18 23 20 7 52 -10 18 -17 34 -17 35 0 1 12 1 28 1 58 -3
72 18 47 76 -6 15 -3 16 26 8 21 -6 45 -6 64 -1 56 18 111 22 153 13 41 -10
42 -9 42 15 0 39 16 59 65 83 59 29 80 60 76 116 -3 47 4 67 22 61 7 -2 12
-27 13 -60z m-630 -15 c-12 -11 -17 7 -9 34 l8 29 3 -28 c2 -16 1 -31 -2 -35z
m774 22 c0 -21 -4 -33 -10 -29 -17 10 -11 65 7 65 2 0 3 -16 3 -36z m-300 -4
c0 -10 -4 -22 -10 -25 -6 -4 -10 7 -10 25 0 18 4 29 10 25 6 -3 10 -15 10 -25z
m769 -12 c1 -5 -3 -8 -9 -8 -5 0 -10 12 -9 28 0 24 1 25 9 7 5 -11 9 -23 9
-27z m-1615 -60 c-16 -18 -32 -37 -36 -42 -5 -6 -8 -1 -8 11 0 13 13 29 33 42
44 28 46 26 11 -11z m56 5 c0 -46 -23 -94 -57 -122 -20 -17 -39 -29 -41 -26
-9 9 22 82 52 122 34 46 46 53 46 26z m371 0 c-5 -10 -14 -30 -20 -45 -15 -39
-31 -35 -31 7 0 33 18 54 48 55 8 0 9 -5 3 -17z m380 7 c13 -8 19 -21 19 -46
0 -44 -21 -42 -35 4 -5 18 -13 32 -17 32 -4 0 -8 5 -8 10 0 13 16 13 41 0z
m399 0 c0 -5 -4 -10 -8 -10 -4 0 -12 -14 -17 -32 -14 -46 -35 -48 -35 -4 0 23
6 39 18 45 22 13 42 14 42 1z m374 -6 c18 -17 21 -60 6 -69 -5 -3 -15 7 -21
22 -6 15 -15 36 -20 46 -12 22 13 23 35 1z m-1732 -28 c35 -32 86 -116 71
-116 -17 0 -73 40 -88 63 -18 29 -37 87 -27 87 4 0 23 -15 44 -34z m1181 -78
c61 -92 82 -192 58 -275 -12 -42 -2 -48 54 -28 82 27 197 16 284 -29 17 -9 31
-21 31 -26 0 -17 -95 -106 -132 -123 -20 -10 -63 -23 -95 -29 -32 -6 -60 -13
-62 -14 -2 -2 14 -23 37 -48 69 -74 102 -161 102 -268 0 -69 -3 -70 -88 -27
-77 38 -138 98 -181 178 -17 33 -35 61 -39 61 -4 0 -20 -29 -36 -65 -20 -47
-44 -80 -86 -119 -57 -52 -143 -97 -158 -82 -4 4 -7 56 -7 114 0 100 2 111 30
161 16 30 42 63 57 74 39 29 26 47 -36 47 -69 0 -140 35 -198 98 -27 28 -48
55 -48 60 0 14 93 51 155 63 44 8 67 7 113 -6 31 -9 66 -18 77 -21 19 -5 20 0
20 103 0 116 3 127 64 211 17 23 35 42 40 42 5 0 25 -24 44 -52z m959 30 l24
-13 -32 -32 c-32 -31 -32 -31 -50 -12 -17 18 -16 20 6 44 28 29 22 28 52 13z
m121 -30 c20 -27 20 -28 2 -48 l-19 -21 -18 35 c-10 19 -22 38 -28 41 -20 12
-10 26 17 23 14 -2 35 -15 46 -30z m-57 -40 c9 -17 14 -39 11 -49 -9 -34 15
-25 59 20 23 25 45 43 48 40 6 -6 -17 -97 -32 -126 -12 -21 -89 -63 -118 -63
-9 0 -38 18 -64 40 -41 34 -50 49 -59 92 -6 28 -9 53 -6 56 7 8 34 -18 40 -39
7 -20 35 -27 35 -7 0 18 50 79 61 73 5 -4 16 -20 25 -37z m-1998 -43 c-4 -47
-10 -60 -46 -99 -41 -45 -42 -45 -42 -18 1 40 23 94 54 135 16 21 31 37 33 37
3 0 3 -25 1 -55z m-69 5 c-13 -17 -25 -26 -27 -20 -4 12 38 63 46 56 2 -3 -7
-19 -19 -36z m1501 34 c0 -3 -5 -15 -11 -26 -11 -20 -9 -20 45 -16 31 3 59 1
62 -4 3 -5 -6 -29 -20 -54 -14 -26 -26 -48 -26 -50 0 -2 22 -4 49 -4 55 0 82
-19 56 -40 -9 -7 -25 -26 -36 -41 l-20 -28 48 -14 c59 -17 61 -35 10 -76 l-38
-30 50 -26 c28 -14 51 -30 51 -35 0 -5 -23 -21 -51 -36 l-51 -25 41 -31 c23
-16 41 -36 41 -43 0 -7 -17 -19 -37 -25 -21 -6 -44 -13 -51 -16 -9 -3 -3 -16
19 -43 42 -53 35 -71 -31 -71 l-51 0 26 -49 c15 -27 25 -53 22 -58 -4 -6 -29
-6 -59 -3 -29 4 -54 7 -55 6 -2 -1 6 -26 17 -55 23 -63 14 -71 -57 -47 -25 9
-47 16 -48 16 -1 0 2 -24 6 -52 5 -30 5 -56 -1 -62 -5 -5 -28 2 -56 18 -25 14
-48 26 -50 26 -2 0 -4 -23 -4 -50 0 -65 -18 -73 -66 -30 -20 17 -40 28 -44 23
-3 -4 -12 -27 -19 -50 -6 -24 -18 -43 -24 -43 -7 0 -26 18 -43 40 -16 22 -32
40 -36 40 -3 0 -9 -13 -13 -30 -4 -16 -11 -32 -16 -35 -15 -10 -9 48 9 82 l17
33 35 -45 c19 -24 37 -44 41 -45 3 0 12 25 20 56 l14 55 43 -37 c24 -20 45
-34 48 -31 3 2 7 26 11 53 3 27 7 51 8 52 2 2 24 -8 50 -23 25 -15 48 -26 50
-23 2 2 1 27 -4 56 -9 59 -7 60 59 37 24 -8 45 -14 46 -12 2 2 -3 25 -11 52
-19 61 -19 64 3 60 9 -2 36 -6 59 -8 l42 -5 -30 53 -29 52 60 7 61 7 -36 41
c-34 41 -42 58 -27 58 4 1 29 7 56 14 l50 13 -52 39 -52 39 57 29 58 29 -53
25 c-28 15 -52 29 -52 32 1 3 19 19 40 35 21 17 39 33 40 37 0 3 -22 11 -50
18 -27 7 -50 16 -50 21 0 5 16 26 35 48 l35 38 -31 7 c-17 3 -44 6 -60 6 -16
0 -29 2 -29 5 0 2 13 27 30 54 l29 51 -61 -7 -60 -6 7 34 c4 19 9 37 12 42 5
8 33 10 33 1z m-967 -11 c2 -5 7 -21 11 -37 l7 -29 -61 6 -62 7 23 -38 c12
-20 26 -41 31 -46 15 -18 8 -26 -21 -26 -16 0 -42 -3 -60 -6 l-31 -6 35 -41
c19 -22 35 -44 35 -48 0 -4 -25 -13 -56 -21 l-57 -13 46 -35 c26 -19 47 -38
47 -41 0 -3 -22 -16 -50 -29 -27 -13 -50 -26 -50 -29 0 -3 24 -16 53 -29 l52
-24 -42 -37 c-24 -20 -43 -39 -43 -43 0 -3 23 -11 50 -18 28 -7 50 -15 50 -19
0 -4 -16 -26 -36 -49 l-36 -42 34 -2 c29 -1 57 -4 81 -7 4 -1 -7 -26 -24 -56
l-31 -55 31 5 c106 17 99 22 75 -49 -9 -26 -14 -49 -12 -51 2 -2 22 2 43 10
66 23 68 22 61 -40 -3 -30 -3 -55 1 -55 3 0 26 12 50 26 25 14 46 24 49 22 2
-2 4 -28 5 -56 1 -29 6 -52 11 -52 4 0 25 16 47 35 43 39 51 42 51 19 0 -23
22 -94 29 -94 3 0 21 21 40 46 l35 46 28 -55 c25 -51 36 -127 18 -127 -4 0
-28 9 -54 21 l-47 20 23 18 c22 18 23 18 41 -5 32 -41 38 -26 11 28 -22 43
-28 49 -38 37 -60 -80 -79 -86 -90 -27 -12 62 -21 67 -60 29 -47 -46 -66 -37
-66 29 0 27 -3 50 -6 50 -3 0 -25 -12 -49 -26 -25 -14 -49 -23 -55 -19 -6 4
-8 27 -4 60 l7 54 -49 -15 c-71 -21 -77 -15 -54 50 l18 54 -36 -4 c-20 -3 -45
-7 -55 -9 -30 -6 -31 22 -3 70 l27 45 -49 0 c-72 0 -80 17 -36 68 24 29 31 43
22 46 -7 3 -30 10 -50 16 -21 6 -40 15 -43 20 -3 4 13 23 35 40 22 17 40 35
40 39 0 4 -21 17 -46 29 -25 12 -44 28 -41 35 2 6 24 22 50 36 l47 23 -46 35
c-53 41 -49 54 22 72 l46 12 -35 42 c-18 23 -32 48 -30 55 3 7 25 12 59 12
l55 0 -26 49 c-15 27 -24 54 -21 59 4 6 29 8 62 5 55 -6 56 -6 45 15 -10 18
-9 22 3 22 8 0 17 -3 19 -7z m-671 -35 c38 -32 88 -102 88 -126 0 -20 -94 43
-111 74 -18 32 -33 84 -24 84 4 0 24 -15 47 -32z m228 -125 c0 -53 -20 -99
-60 -138 -43 -42 -44 -41 -31 18 10 40 70 147 83 147 4 0 8 -12 8 -27z m-82
-39 c-18 -30 -24 -35 -26 -20 -3 16 36 71 45 62 2 -2 -6 -21 -19 -42z m-141 0
c42 -35 93 -102 93 -123 0 -11 -62 21 -94 48 -28 24 -67 111 -50 111 4 0 27
-16 51 -36z m2136 22 c17 -13 16 -16 -14 -46 l-32 -31 -21 21 -21 21 28 25
c32 28 36 28 60 10z m122 -28 l27 -32 -23 -17 c-22 -17 -23 -16 -37 9 -7 15
-20 34 -28 43 -8 8 -11 19 -7 22 15 15 43 5 68 -25z m-45 -85 c0 -33 16 -45
26 -19 3 7 23 28 45 46 l40 32 -7 -39 c-9 -53 -31 -104 -52 -119 -9 -7 -38
-21 -64 -29 l-48 -16 -49 41 c-42 35 -51 50 -64 101 -8 32 -11 59 -7 59 5 0
20 -13 33 -30 28 -32 47 -39 47 -16 0 8 12 29 27 46 l27 33 23 -29 c13 -17 23
-43 23 -61z m-1975 -151 c0 -57 5 -76 33 -124 45 -80 56 -135 34 -169 -25 -39
-80 -99 -91 -99 -20 0 -59 61 -66 102 -9 51 -16 66 -63 127 -32 42 -70 115
-86 166 -5 19 -1 20 72 20 60 1 86 5 117 22 22 12 42 22 45 23 3 0 5 -31 5
-68z m1877 10 c22 -21 33 -23 64 -17 21 4 51 13 66 21 45 23 48 17 23 -46 -26
-67 -50 -108 -94 -164 -18 -23 -33 -55 -37 -83 -5 -32 -17 -57 -42 -85 -32
-35 -36 -38 -45 -21 -6 10 -28 38 -50 62 -35 38 -39 47 -34 82 3 21 21 70 41
108 31 60 36 80 36 137 l0 67 23 -19 c12 -10 34 -29 49 -42z m-1732 -343 c0
-10 -16 -31 -37 -46 -50 -39 -79 -67 -86 -84 -5 -12 -7 -12 -16 1 -20 28 -22
23 69 145 l35 46 17 -21 c10 -12 18 -31 18 -41z m1617 -23 c29 -33 43 -57 43
-76 0 -39 -14 -45 -34 -16 -9 14 -36 39 -61 56 -50 34 -59 68 -28 102 16 18
17 18 27 1 5 -10 29 -40 53 -67z m-1577 -27 c0 -24 -10 -36 -51 -66 -28 -20
-55 -47 -60 -60 -11 -31 -29 -21 -29 17 0 18 10 36 27 51 14 13 42 40 62 59
41 41 51 41 51 -1z m1514 -28 c53 -37 70 -63 62 -97 -8 -30 -18 -31 -31 -2 -6
12 -30 38 -55 56 -52 40 -65 65 -48 95 l11 21 8 -21 c4 -12 28 -35 53 -52z
m-1464 -32 c0 -10 -16 -31 -37 -46 -50 -39 -79 -67 -86 -84 -5 -12 -7 -12 -16
1 -20 27 -11 44 49 100 33 31 60 62 60 70 1 22 30 -19 30 -41z m1370 27 c0 -8
23 -30 50 -50 56 -40 73 -70 58 -100 -10 -19 -12 -18 -30 7 -11 15 -40 41 -64
58 -34 23 -44 36 -44 58 0 15 3 31 7 34 11 12 23 8 23 -7z m-1280 -96 c21 0
30 -7 40 -30 16 -39 46 -60 86 -60 21 0 49 -13 82 -37 50 -37 57 -53 23 -53
-9 0 -43 -16 -75 -35 -32 -19 -62 -35 -67 -35 -4 0 -29 18 -54 40 -26 22 -66
46 -90 52 -29 8 -48 20 -60 40 -10 18 -28 31 -46 35 -41 8 -36 27 14 62 24 16
49 36 56 45 12 14 16 14 38 -4 14 -11 38 -20 53 -20z m1253 18 c13 -13 40 -36
60 -51 43 -32 47 -47 13 -47 -17 0 -34 -12 -51 -35 -18 -23 -38 -37 -62 -41
-19 -4 -57 -25 -86 -50 -28 -24 -55 -44 -60 -44 -6 0 -32 14 -59 30 -26 17
-50 30 -52 30 -3 0 -17 5 -32 10 l-27 11 34 29 c38 33 67 46 122 55 31 5 41
13 57 45 17 33 26 40 50 40 17 0 38 8 48 19 9 11 18 20 19 20 1 1 13 -9 26
-21z m-1113 -48 c0 -27 -3 -30 -30 -30 -19 0 -33 7 -40 19 -16 30 -15 31 58
40 7 0 12 -11 12 -29z m118 -75 c2 -11 11 -29 21 -40 15 -19 15 -19 -4 -5 -37
26 -65 53 -65 62 0 19 45 3 48 -17z m670 19 c22 -6 21 -8 -15 -40 -21 -18 -45
-33 -53 -33 -12 0 -12 2 2 13 10 7 20 24 22 37 3 13 5 25 5 27 1 3 14 2 39 -4z
m-541 -59 c8 -22 1 -26 -37 -19 l-32 7 23 13 c31 17 38 17 46 -1z m408 3 c29
-13 17 -28 -22 -28 -22 0 -31 19 -16 33 8 9 8 9 38 -5z m-115 -49 c0 -3 -18
-13 -39 -22 -57 -26 -59 -44 -9 -67 43 -19 42 -22 -14 -34 -26 -6 -28 -4 -28
23 0 17 -6 31 -16 35 -8 3 -12 10 -9 16 4 6 11 8 16 5 5 -4 9 6 9 20 0 16 9
34 22 45 21 16 24 17 45 1 12 -9 23 -19 23 -22z m-268 -11 c48 -11 88 -24 88
-28 0 -13 -202 9 -250 28 -13 5 16 14 65 21 5 0 49 -9 97 -21z m491 12 c40 0
2 -17 -63 -28 -61 -11 -163 -17 -185 -12 -22 5 172 49 199 45 16 -3 38 -5 49
-5z m-605 -45 c-2 -1 -39 -5 -83 -8 l-80 -6 34 18 c27 15 42 16 82 8 27 -5 48
-11 47 -12z m698 -1 c18 -15 17 -15 -15 -10 -18 3 -54 6 -80 7 -38 1 -42 2
-21 9 42 13 95 11 116 -6z m-696 -21 c0 -5 -22 -15 -49 -23 -39 -13 -55 -14
-82 -4 l-34 11 60 7 c33 4 67 9 75 10 27 6 30 6 30 -1z m226 0 c-27 -27 -297
-73 -273 -47 21 23 136 52 206 53 41 1 71 -2 67 -6z m307 -16 c37 -13 70 -27
74 -30 14 -15 -108 -6 -182 14 -115 30 -123 38 -34 39 54 0 94 -7 142 -23z
m132 7 c56 -6 58 -7 31 -17 -20 -7 -45 -6 -82 2 -56 13 -90 38 -38 28 16 -3
56 -9 89 -13z m-393 -27 c4 -33 3 -34 -27 -24 -16 6 -37 12 -45 14 -10 3 -3
11 20 23 47 25 47 25 52 -13z m-39 -52 c-36 -25 -102 -45 -150 -45 -50 0 -49
10 1 41 23 14 50 19 101 19 65 0 68 -1 48 -15z m244 -7 c18 -13 33 -26 33 -30
0 -18 -98 -7 -147 17 -29 13 -53 27 -53 30 0 3 30 5 67 5 53 0 74 -5 100 -22z"/>
<path d="M1650 2822 c0 -204 2 -211 50 -187 94 48 140 183 95 279 -19 40 -71
80 -117 91 l-28 7 0 -190z m74 127 c27 -21 56 -68 56 -91 0 -9 -14 -12 -50
-10 l-50 4 0 59 c0 32 4 59 9 59 4 0 20 -9 35 -21z m56 -154 c0 -26 -44 -94
-76 -118 l-24 -18 0 74 c0 40 2 76 4 78 3 2 25 4 50 4 40 0 46 -2 46 -20z"/>
<path d="M1785 2441 c-3 -6 10 -7 32 -4 50 8 55 13 10 13 -20 0 -38 -4 -42 -9z"/>
<path d="M1930 2440 l35 -7 -32 -2 c-18 0 -33 -5 -33 -11 0 -18 50 -15 62 3
14 22 8 27 -29 26 l-38 -2 35 -7z"/>
<path d="M1795 2420 c-6 -10 13 -14 48 -10 15 1 18 -4 15 -32 -2 -25 1 -34 15
-36 9 -2 17 1 17 7 0 6 -4 11 -10 11 -5 0 -7 13 -4 29 5 24 2 29 -18 34 -34
10 -56 8 -63 -3z"/>
<path d="M1840 2310 c20 -13 67 -13 75 0 4 6 -12 10 -42 10 -35 0 -44 -3 -33
-10z"/>
<path d="M1036 2447 c-16 -12 -14 -13 18 -9 20 2 33 8 30 13 -8 13 -27 11 -48
-4z"/>
<path d="M1135 2450 c-4 -6 8 -11 27 -11 27 -1 29 -3 8 -6 -35 -6 -45 -19 -20
-26 12 -3 27 1 36 11 15 14 15 17 -2 29 -21 16 -40 17 -49 3z"/>
<path d="M1035 2420 c-4 -6 7 -10 24 -10 24 0 31 -4 31 -19 0 -11 -5 -21 -12
-23 -21 -7 3 -28 33 -28 19 0 29 5 29 15 0 13 -4 14 -21 4 -20 -10 -21 -9 -14
19 5 24 2 33 -14 41 -25 14 -48 14 -56 1z"/>
<path d="M1075 2310 c3 -5 19 -10 35 -10 16 0 32 5 35 10 4 6 -10 10 -35 10
-25 0 -39 -4 -35 -10z"/>
<path d="M1170 2030 c0 -6 28 -10 64 -10 36 0 68 5 71 10 4 6 -20 10 -64 10
-41 0 -71 -4 -71 -10z"/>
<path d="M1940 2030 c0 -6 28 -10 65 -10 37 0 65 4 65 10 0 6 -28 10 -65 10
-37 0 -65 -4 -65 -10z"/>
<path d="M1490 1830 c0 -5 5 -10 10 -10 6 0 10 5 10 10 0 6 -4 10 -10 10 -5 0
-10 -4 -10 -10z"/>
<path d="M1476 1338 c-9 -12 -16 -30 -16 -40 0 -13 -8 -18 -27 -19 -16 0 -37
-4 -48 -8 -19 -7 -18 -10 11 -38 25 -26 29 -36 26 -72 -4 -36 -2 -41 17 -41
12 0 30 9 41 20 l20 20 22 -20 c31 -29 58 -26 58 6 0 14 -4 34 -10 44 -8 15
-6 20 10 25 11 3 25 15 30 25 12 22 -12 40 -54 40 -20 0 -26 5 -26 23 -1 21
-21 57 -33 57 -3 0 -13 -10 -21 -22z m32 -63 c-3 -29 -2 -32 13 -24 10 5 27 9
39 9 34 0 17 -25 -19 -28 l-33 -3 19 -22 c11 -12 23 -30 26 -39 10 -29 -13
-20 -31 12 -9 16 -19 30 -22 30 -3 0 -13 -14 -23 -31 -20 -35 -33 -33 -23 4 3
13 16 29 28 35 22 10 22 11 -9 11 -38 1 -63 10 -63 22 0 12 37 11 62 -2 18 -9
19 -8 13 10 -8 26 3 63 17 55 5 -4 8 -21 6 -39z"/>
</g>
</svg>
