 <svg  version="1.0" xmlns="http://www.w3.org/2000/svg"  width="300.000000pt" height="287.000000pt" viewBox="0 0 300.000000 287.000000"  preserveAspectRatio="xMidYMid meet">  <g transform="translate(0.000000,287.000000) scale(0.100000,-0.100000)" fill="#ffffff" stroke="none"> <path d="M1466 2790 c-53 -113 -79 -135 -311 -255 -71 -37 -148 -80 -170 -95 -89 -61 -172 -180 -162 -233 3 -20 4 -20 15 8 56 138 112 188 354 313 160 82 248 143 248 171 0 6 4 11 8 11 5 0 16 16 25 35 20 43 31 44 47 5 37 -89 97 -139 272 -226 214 -107 304 -180 353 -288 19 -41 23 -46 24 -26 2 65 -79 168 -181 233 -29 19 -117 66 -194 106 -183 92 -215 121 -259 231 l-33 85 -36 -75z"/> <path d="M1440 2631 c-45 -46 -85 -72 -230 -146 -150 -77 -184 -99 -240 -155 -44 -43 -70 -79 -78 -105 -19 -60 -95 -115 -159 -115 -78 0 -139 -43 -303 -211 -148 -153 -217 -209 -257 -209 -29 0 -29 -5 1 -41 33 -38 60 -125 96 -304 45 -225 74 -300 137 -367 45 -46 73 -121 84 -218 8 -84 26 -138 93 -287 62 -138 86 -214 86 -267 l0 -44 43 15 c54 19 146 13 337 -22 174 -32 271 -32 341 3 67 33 160 31 230 -5 49 -26 62 -28 159 -27 60 0 156 10 224 22 139 26 242 28 293 7 19 -8 37 -15 38 -15 1 0 0 11 -3 25 -8 44 17 116 103 296 97 201 124 293 107 362 -14 55 1 100 50 155 65 72 90 139 127 337 36 192 62 283 96 340 33 54 33 55 11 55 -41 0 -119 61 -260 204 -157 159 -229 206 -313 206 -61 0 -127 51 -168 128 -41 77 -109 130 -297 226 -176 90 -238 133 -268 181 -12 19 -22 34 -23 34 -1 -1 -27 -27 -57 -58z m88 -28 c48 -47 81 -71 108 -80 16 -6 28 -16 26 -22 -1 -7 2 -10 8 -6 12 8 109 -38 139 -66 11 -11 21 -17 21 -14 0 3 27 -10 61 -28 73 -41 161 -123 179 -169 12 -29 80 -101 98 -104 4 0 14 -4 22 -7 21 -9 58 -15 100 -16 26 -1 31 -4 20 -11 -12 -8 -11 -10 8 -10 31 0 104 -38 97 -50 -4 -6 -2 -10 3 -10 5 0 28 -18 51 -40 22 -22 46 -40 51 -40 6 0 10 -4 10 -10 0 -17 164 -176 207 -200 23 -12 44 -31 46 -42 3 -11 -5 -41 -19 -68 -13 -26 -24 -60 -24 -75 0 -14 -4 -24 -9 -21 -5 3 -11 -16 -15 -42 -22 -175 -49 -306 -65 -325 -6 -8 -9 -16 -6 -19 3 -3 -3 -24 -13 -46 -10 -23 -22 -39 -25 -35 -4 3 -7 -1 -7 -11 0 -9 -7 -19 -15 -22 -8 -4 -15 -11 -15 -18 0 -6 -8 -16 -19 -23 -24 -15 -32 -54 -35 -179 -3 -68 -9 -110 -20 -132 -9 -17 -16 -33 -16 -34 2 -5 -12 -43 -20 -58 -40 -67 -125 -255 -135 -298 -3 -18 -10 -30 -15 -27 -4 3 -6 -4 -3 -15 4 -14 0 -20 -12 -20 -14 0 -15 -3 -6 -14 10 -12 6 -13 -23 -6 -54 12 -215 -2 -406 -36 -77 -13 -91 -13 -155 2 -38 9 -81 23 -94 32 -32 20 -189 23 -212 5 -9 -8 -27 -17 -40 -21 -35 -10 -216 -10 -269 0 -25 5 -65 13 -90 18 -38 8 -99 16 -183 24 -10 2 -40 -1 -68 -4 -47 -6 -50 -5 -55 19 -19 90 -29 127 -35 136 -4 6 -10 27 -14 47 -4 21 -11 35 -16 32 -5 -3 -9 4 -9 15 0 11 -4 23 -10 26 -5 3 -10 15 -10 26 0 10 -4 19 -10 19 -5 0 -10 6 -10 13 0 7 -10 33 -22 58 -30 62 -48 135 -48 195 0 28 -8 69 -17 90 -9 22 -17 41 -17 44 -1 8 -49 74 -62 85 -19 17 -56 75 -47 75 4 0 3 4 -3 8 -11 8 -44 136 -44 172 0 11 -4 18 -10 15 -6 -3 -10 4 -10 18 0 21 -22 128 -52 252 -7 28 -18 55 -26 60 -21 17 -5 59 31 80 17 11 49 36 69 56 21 21 38 35 38 33 0 -9 121 121 136 146 9 14 31 36 50 50 20 14 42 32 51 40 32 30 68 50 91 50 13 0 21 4 18 9 -3 5 18 11 47 13 28 3 58 7 66 9 20 5 91 87 91 105 0 8 4 14 9 14 5 0 14 13 21 30 17 41 103 116 175 152 33 17 62 34 63 39 2 5 11 9 21 9 9 0 33 11 54 25 20 14 37 22 37 18 0 -4 5 0 10 9 6 9 23 19 38 23 15 3 52 26 82 50 60 49 81 54 108 28z"/> <path d="M1310 2298 c-19 -5 -49 -14 -67 -19 -18 -6 -40 -12 -50 -14 -71 -15 -263 -105 -271 -126 -2 -5 -8 -9 -14 -9 -30 0 -179 -143 -254 -245 -25 -33 -52 -68 -60 -78 -8 -9 -14 -21 -14 -26 0 -10 -31 -73 -41 -81 -3 -3 -13 -25 -22 -50 -76 -205 -87 -470 -26 -666 49 -158 136 -302 254 -419 92 -91 147 -140 154 -136 2 2 7 -1 10 -6 19 -26 188 -106 281 -133 125 -36 199 -46 339 -43 214 4 385 58 559 174 94 64 138 102 222 199 36 40 113 161 141 220 79 163 104 287 96 475 -5 120 -28 247 -56 310 -56 123 -81 170 -122 230 -56 81 -142 173 -214 230 -27 22 -58 48 -69 57 -10 9 -31 20 -47 23 -15 4 -32 12 -38 19 -6 7 -28 20 -48 29 -90 37 -174 67 -205 72 -18 3 -48 10 -66 15 -43 11 -327 10 -372 -2z m327 -29 c151 -20 328 -90 458 -179 122 -84 242 -225 313 -365 159 -315 144 -664 -39 -965 -61 -99 -213 -257 -304 -315 -117 -75 -259 -131 -389 -154 -77 -14 -275 -14 -352 0 -403 72 -730 384 -821 782 -25 109 -22 319 5 424 66 257 207 462 412 603 208 142 467 203 717 169z"/> <path d="M1327 2234 c-89 -13 -235 -65 -317 -112 -236 -135 -406 -362 -472 -628 -28 -115 -30 -304 -4 -414 82 -357 335 -627 692 -736 83 -26 100 -28 274 -28 174 0 191 2 274 28 177 54 323 142 441 267 134 141 207 281 256 489 21 88 16 299 -9 398 -101 395 -418 682 -819 741 -93 14 -206 12 -316 -5z m374 -29 c307 -65 578 -290 692 -577 53 -133 62 -182 62 -353 0 -187 -16 -260 -90 -410 -161 -326 -499 -535 -866 -535 -363 0 -706 212 -864 535 -68 140 -86 216 -92 385 -4 132 -2 154 21 245 45 171 118 304 240 433 166 175 348 261 626 295 49 6 205 -4 271 -18z"/> <path d="M1462 2065 l-4 -95 76 0 c61 0 76 3 76 15 0 11 -12 15 -50 15 -47 0 -50 2 -50 25 0 23 4 25 45 25 33 0 45 4 45 15 0 11 -12 15 -45 15 -42 0 -45 2 -45 26 0 25 1 26 50 19 46 -6 50 -5 50 14 0 19 -6 21 -72 21 l-73 0 -3 -95z"/> <path d="M1320 2147 c0 -2 7 -27 16 -56 25 -84 14 -90 -38 -23 -45 59 -48 61 -79 52 -17 -5 -33 -11 -34 -12 -1 -2 7 -42 19 -90 19 -78 24 -88 44 -88 27 0 27 3 3 79 -10 34 -16 63 -12 66 4 2 29 -24 54 -59 l47 -64 35 11 c22 6 34 16 31 23 -3 7 -13 47 -22 88 -16 67 -21 76 -41 76 -13 0 -23 -1 -23 -3z"/> <path d="M1694 2095 c-26 -40 -30 -111 -8 -136 21 -23 62 -42 112 -52 29 -6 34 -4 43 21 26 67 24 77 -19 90 -51 16 -52 15 -52 -8 0 -11 7 -20 15 -20 8 0 15 -9 15 -20 0 -24 -26 -26 -58 -4 -44 30 -15 114 39 114 12 0 32 -11 45 -25 26 -28 54 -33 54 -9 0 46 -48 74 -126 74 -35 0 -47 -5 -60 -25z"/> <path d="M1925 1947 l-51 -72 59 -43 c46 -34 62 -41 68 -30 6 9 -3 23 -28 44 -28 24 -34 34 -27 47 9 15 13 14 47 -9 34 -23 38 -23 44 -8 4 10 2 19 -5 22 -6 2 -22 12 -34 22 -21 17 -21 20 -8 34 14 14 19 13 55 -11 35 -24 54 -22 43 4 -4 10 -98 73 -107 73 -3 -1 -29 -33 -56 -73z"/> <path d="M897 1960 l-25 -20 34 -85 c19 -46 34 -89 34 -95 0 -14 11 -12 31 6 13 12 16 21 9 34 -7 13 -2 24 21 46 25 24 33 26 48 17 15 -10 22 -8 37 8 9 10 15 20 13 22 -2 1 -43 21 -91 44 l-86 42 -25 -19z m66 -49 c31 -16 33 -26 12 -48 -18 -18 -17 -18 -39 24 -18 35 -20 47 -8 41 4 -2 19 -10 35 -17z"/> <path d="M1340 1884 c-174 -46 -331 -173 -411 -334 -43 -88 -60 -163 -60 -270 0 -177 57 -316 181 -440 340 -341 917 -197 1060 265 42 135 26 316 -39 445 -81 163 -239 290 -416 335 -75 19 -241 19 -315 -1z m331 -28 c474 -150 594 -735 214 -1043 -111 -90 -237 -134 -385 -134 -174 0 -321 63 -439 186 -124 131 -177 273 -168 445 13 226 135 407 343 508 52 25 79 34 169 56 38 9 220 -3 266 -18z"/> <path d="M1405 1840 c-160 -27 -306 -124 -397 -264 -139 -215 -105 -508 80 -695 310 -311 828 -183 968 239 27 82 25 234 -3 325 -70 224 -279 385 -516 399 -45 2 -104 1 -132 -4z m30 -39 c3 -5 -5 -21 -18 -35 -13 -13 -29 -47 -37 -75 -7 -27 -17 -49 -21 -48 -4 1 -16 -9 -28 -22 -18 -21 -24 -23 -47 -13 -40 19 -84 14 -118 -12 -39 -29 -106 -40 -106 -16 0 40 154 163 240 192 25 9 59 20 75 26 40 13 53 14 60 3z m321 -50 c45 -22 184 -150 204 -189 11 -22 10 -23 -10 -17 -13 4 -35 8 -50 9 -15 1 -44 16 -66 34 -41 34 -74 39 -113 18 -28 -15 -43 -6 -55 31 -4 12 -13 24 -21 27 -8 3 -15 16 -15 28 0 13 -11 40 -25 61 -14 20 -23 41 -20 46 6 10 106 -18 171 -48z m-212 28 c59 -46 87 -157 46 -179 -17 -9 -20 -8 -20 10 0 13 -5 20 -12 18 -7 -3 -13 -13 -13 -24 0 -14 8 -20 32 -22 28 -3 33 1 39 23 8 34 25 28 47 -17 15 -31 16 -43 7 -78 -6 -23 -20 -50 -31 -61 -23 -23 -64 -25 -73 -4 -4 10 1 15 15 15 14 0 19 5 17 18 -2 9 -12 17 -23 17 -18 0 -20 -7 -21 -72 l0 -72 25 18 c14 9 53 27 86 40 98 36 119 68 65 96 -34 18 -36 22 -14 53 9 14 26 22 44 22 44 0 58 -9 70 -46 10 -30 14 -33 31 -23 11 5 37 9 57 7 31 -2 36 -6 34 -23 -2 -11 -17 -34 -34 -52 -29 -30 -30 -33 -14 -49 26 -26 18 -86 -14 -101 -15 -7 -36 -10 -48 -6 -19 5 -22 10 -16 38 10 56 -39 58 -106 5 -19 -15 -55 -38 -79 -51 -41 -21 -42 -23 -21 -31 12 -4 36 -19 52 -33 16 -14 38 -25 48 -25 19 0 34 25 24 41 -9 16 -34 10 -34 -8 0 -16 -2 -16 -15 -2 -35 35 25 77 91 64 42 -7 94 -54 94 -83 0 -15 -5 -18 -23 -15 -28 5 -60 -21 -55 -46 2 -9 13 -17 26 -19 25 -4 30 15 7 24 -22 9 -7 24 24 24 48 0 111 -88 111 -155 0 -20 -8 -29 -35 -41 -52 -21 -127 -18 -159 7 -25 20 -36 59 -16 59 6 0 10 -4 10 -10 0 -5 5 -10 10 -10 6 0 10 9 10 20 0 23 -29 27 -48 8 -17 -17 -15 -38 4 -60 16 -16 15 -18 0 -24 -28 -11 -87 4 -112 27 -34 32 -49 75 -36 104 16 34 45 34 36 0 -5 -21 -3 -25 14 -25 50 0 36 42 -21 65 -23 9 -51 24 -61 33 -18 16 -19 16 -13 -7 3 -14 1 -59 -4 -102 -8 -56 -8 -83 0 -98 14 -25 38 -27 62 -6 15 14 18 14 33 0 47 -47 -14 -137 -73 -106 -17 9 -20 6 -25 -24 -4 -18 -15 -44 -26 -57 l-20 -23 -20 23 c-11 13 -22 39 -26 57 -5 30 -8 33 -25 24 -60 -31 -120 59 -70 105 16 15 19 15 31 1 16 -19 44 -19 60 0 10 13 11 33 1 100 -6 46 -9 97 -5 112 7 27 7 28 -13 10 -11 -10 -40 -28 -64 -40 -48 -24 -62 -62 -24 -62 15 0 19 6 18 23 -4 30 24 29 38 -2 30 -65 -88 -166 -149 -127 -10 6 -10 10 3 21 29 24 12 70 -26 70 -23 0 -30 -12 -18 -30 8 -12 12 -12 16 -2 7 19 23 14 23 -7 0 -34 -47 -61 -107 -61 -71 0 -113 21 -112 58 2 72 59 152 109 152 16 0 32 -4 35 -10 3 -5 -1 -10 -9 -10 -9 0 -16 -7 -16 -15 0 -19 36 -20 43 -1 9 24 -22 57 -51 54 -20 -2 -26 1 -24 12 13 72 112 115 170 74 22 -15 31 -54 12 -54 -5 0 -10 5 -10 10 0 6 -9 10 -20 10 -13 0 -20 -7 -20 -20 0 -29 26 -35 56 -14 14 11 42 29 61 40 35 21 35 22 12 29 -13 4 -47 25 -76 46 -96 72 -137 77 -131 17 3 -31 1 -33 -33 -36 -23 -2 -40 2 -49 13 -19 23 -16 71 6 96 17 19 18 21 1 30 -17 10 -47 59 -47 79 0 13 75 13 101 0 15 -9 19 -7 19 7 0 58 82 87 114 41 22 -32 20 -47 -10 -58 -19 -7 -25 -16 -22 -33 2 -17 23 -32 84 -62 45 -22 90 -48 101 -57 18 -17 19 -15 18 60 0 70 -2 77 -20 77 -11 0 -21 -8 -23 -17 -2 -13 3 -18 17 -18 14 0 19 -5 15 -15 -7 -17 -37 -20 -64 -5 -26 14 -54 92 -45 127 7 28 32 63 45 63 5 0 11 -11 14 -24 3 -13 15 -26 25 -29 27 -7 56 16 48 37 -9 22 -33 15 -29 -8 3 -15 0 -16 -17 -6 -43 22 -18 125 41 175 36 30 48 31 82 4z m-505 -320 c15 -24 17 -38 10 -56 -13 -35 -11 -69 6 -86 8 -8 12 -17 9 -20 -3 -3 4 -8 16 -12 20 -6 22 -13 18 -49 -3 -27 -15 -52 -32 -70 -14 -16 -26 -32 -26 -37 0 -12 -30 -39 -43 -39 -34 0 -50 240 -21 327 8 26 17 54 19 61 7 21 24 13 44 -19z m972 0 c34 -71 41 -227 13 -315 -22 -69 -38 -74 -65 -19 -12 24 -29 45 -39 48 -9 2 -17 10 -17 18 0 8 -4 21 -7 30 -5 11 3 29 24 53 28 32 32 42 29 88 -4 77 39 144 62 97z m-740 -526 c19 -10 35 -27 37 -38 6 -32 27 -59 58 -74 16 -7 35 -16 43 -20 18 -9 37 -38 30 -46 -11 -10 -136 22 -192 50 -52 27 -147 103 -147 118 0 4 19 7 43 8 23 0 51 4 62 9 28 12 27 12 66 -7z m577 -1 c72 -5 70 -13 -21 -80 -56 -42 -127 -78 -170 -86 -12 -2 -34 -7 -49 -11 -15 -4 -32 -4 -37 0 -16 9 17 55 39 55 25 0 80 57 86 89 6 29 54 53 84 43 8 -3 39 -8 68 -10z"/> <path d="M1516 1351 c-3 -5 -15 -7 -26 -4 -11 3 -20 3 -20 0 0 -12 23 -57 29 -57 7 0 41 54 41 64 0 9 -18 7 -24 -3z"/> <path d="M1408 1249 c-6 -4 -2 -12 11 -18 12 -7 19 -16 16 -22 -4 -5 -2 -9 2 -9 10 0 43 37 43 49 0 9 -56 9 -72 0z"/> <path d="M1528 1254 c-9 -8 19 -64 32 -64 6 0 10 9 10 19 0 11 6 21 13 24 6 2 10 7 7 10 -9 10 -55 18 -62 11z"/> <path d="M2094 1821 c-68 -55 -70 -58 -56 -80 l15 -22 28 27 c24 23 31 25 44 14 21 -17 19 -30 -10 -60 l-25 -27 21 -19 c21 -19 21 -19 45 11 13 17 24 36 24 44 0 9 8 11 24 7 18 -4 29 -1 40 15 20 28 6 66 -42 111 l-37 36 -71 -57z m104 -22 c12 -18 11 -24 -2 -37 -15 -15 -18 -15 -38 5 -18 18 -19 24 -8 37 17 22 33 20 48 -5z"/> <path d="M736 1775 c-22 -33 -21 -36 24 -80 42 -41 52 -62 23 -50 -10 4 -37 13 -60 20 l-42 13 -21 -35 c-11 -20 -20 -36 -18 -38 4 -2 61 -35 120 -69 46 -26 47 -26 57 -7 10 17 3 24 -55 56 -36 20 -63 39 -61 42 3 2 35 -5 72 -16 83 -26 82 -26 90 0 6 17 -4 33 -46 75 -62 63 -53 69 27 18 45 -29 58 -33 65 -23 5 8 9 17 9 20 0 6 -154 99 -164 99 -2 0 -11 -11 -20 -25z"/> <path d="M2223 1647 c-46 -23 -83 -44 -83 -47 0 -4 6 -14 13 -24 12 -17 18 -15 98 25 46 24 85 45 87 46 5 2 -22 43 -28 42 -3 0 -42 -19 -87 -42z"/> <path d="M605 1465 c-42 -41 -25 -135 25 -135 20 0 65 48 75 81 9 26 39 21 43 -8 2 -12 -5 -27 -16 -35 -11 -7 -22 -23 -26 -35 -11 -33 27 -31 53 3 42 53 17 148 -37 142 -20 -2 -32 -15 -50 -50 -25 -49 -48 -61 -59 -31 -4 10 2 23 15 34 23 18 30 59 12 59 -6 0 -22 -11 -35 -25z"/> <path d="M2350 1458 c0 -7 9 -26 19 -42 22 -33 19 -46 -10 -46 -12 0 -19 7 -19 20 0 13 -7 20 -20 20 -16 0 -20 -7 -20 -31 0 -23 -4 -30 -16 -27 -23 4 -43 39 -26 45 13 5 17 63 4 63 -20 0 -42 -39 -42 -72 0 -71 71 -116 95 -60 11 26 21 28 29 7 7 -20 52 -19 60 1 12 32 5 82 -15 108 -22 28 -39 34 -39 14z"/> <path d="M660 1175 c0 -9 -7 -15 -16 -13 -10 2 -19 -3 -21 -9 -3 -7 3 -13 13 -13 13 0 15 -3 7 -11 -17 -17 -5 -43 13 -28 10 8 14 8 14 0 0 -6 7 -11 15 -11 9 0 12 6 8 16 -5 13 -2 15 15 9 22 -6 31 8 13 19 -5 3 -7 16 -4 29 5 18 3 20 -8 10 -18 -17 -29 -16 -29 2 0 8 -4 15 -10 15 -5 0 -10 -7 -10 -15z"/> <path d="M2320 1163 c0 -13 -3 -14 -12 -5 -7 7 -16 12 -20 12 -13 0 -9 -28 5 -33 7 -3 4 -6 -6 -6 -10 -1 -17 -7 -14 -13 2 -7 11 -12 21 -10 9 2 16 -4 16 -13 0 -8 5 -15 10 -15 6 0 10 8 10 17 0 13 3 14 12 5 18 -18 31 -14 25 8 -3 11 -1 20 4 20 5 0 9 7 9 16 0 11 -6 14 -22 9 -17 -6 -20 -4 -15 9 4 10 1 16 -8 16 -8 0 -15 -8 -15 -17z"/> <path d="M815 1011 c-6 -4 -39 -23 -75 -42 -36 -18 -66 -34 -68 -35 -8 -5 39 -82 67 -108 49 -47 128 -31 152 31 11 28 -8 100 -37 141 -16 24 -25 27 -39 13z m35 -99 c0 -54 -62 -81 -102 -45 -28 25 -22 37 29 66 53 29 73 23 73 -21z"/> <path d="M2167 1009 c-17 -10 -67 -98 -67 -119 0 -5 5 -10 10 -10 6 0 40 -19 77 -42 63 -40 66 -41 79 -23 20 27 18 32 -16 44 -32 11 -39 31 -16 50 11 10 21 9 45 -3 28 -15 31 -15 46 7 14 20 14 23 -2 34 -9 7 -34 13 -54 13 -34 0 -38 3 -41 28 -3 30 -30 39 -61 21z m40 -69 c5 -26 -13 -43 -36 -35 -24 7 -27 25 -9 43 16 16 42 11 45 -8z"/> <path d="M892 752 l-64 -65 51 -51 c40 -40 53 -48 63 -38 9 9 5 19 -20 45 -31 32 -32 34 -14 50 17 16 20 15 47 -13 19 -20 32 -27 39 -20 7 7 1 19 -17 38 -18 19 -25 35 -21 45 9 24 24 21 59 -13 27 -26 34 -29 44 -16 10 11 2 22 -42 60 -30 25 -56 45 -58 45 -2 -1 -32 -31 -67 -67z"/> <path d="M1999 774 l-22 -24 36 -78 c21 -43 37 -83 37 -90 0 -16 15 -15 30 3 6 8 9 23 5 35 -10 30 36 74 68 66 17 -4 30 0 42 14 10 11 16 21 14 23 -2 2 -45 19 -96 39 l-92 36 -22 -24z m64 -40 c43 -22 43 -21 22 -44 -25 -27 -31 -25 -46 13 -7 17 -14 35 -17 40 -6 11 6 9 41 -9z"/> <path d="M1056 609 c-20 -44 -34 -85 -30 -90 13 -22 35 -5 60 46 15 30 32 55 37 55 6 0 7 -26 3 -69 l-7 -68 34 -21 35 -20 40 88 c33 73 37 90 25 94 -26 10 -30 7 -56 -54 -15 -33 -29 -60 -33 -60 -4 0 -4 35 0 78 l6 78 -33 12 c-18 7 -36 12 -39 12 -3 0 -22 -36 -42 -81z"/> <path d="M1801 644 c-21 -18 -31 -35 -31 -55 0 -37 27 -51 79 -43 48 8 73 0 65 -20 -8 -20 -42 -30 -58 -17 -9 8 -18 7 -31 -3 -16 -12 -17 -16 -6 -30 19 -23 59 -20 98 7 36 24 49 53 38 86 -8 28 -37 34 -85 20 -45 -14 -68 -3 -56 26 5 13 14 16 39 11 42 -8 66 6 48 28 -20 24 -66 19 -100 -10z"/> <path d="M1306 544 c-4 -33 -9 -76 -13 -96 -5 -36 -4 -38 21 -38 19 0 26 5 26 19 0 39 9 46 53 43 51 -4 80 20 75 65 -4 33 -41 54 -109 61 l-46 4 -7 -58z m98 10 c26 -10 19 -43 -10 -50 -31 -8 -48 7 -39 35 6 21 21 26 49 15z"/> <path d="M1575 568 c-43 -194 -42 -188 -16 -181 10 2 23 15 29 28 14 30 79 40 93 14 6 -11 20 -17 39 -17 17 1 29 4 28 7 -2 4 -25 43 -53 89 -46 76 -52 82 -82 82 -26 0 -34 -5 -38 -22z m65 -58 c15 -35 14 -37 -20 -42 -20 -2 -24 1 -22 17 10 72 20 78 42 25z"/> <path d="M2210 2180 c-11 -7 -4 -10 26 -10 112 0 187 -46 359 -220 149 -151 193 -185 261 -201 27 -7 55 -13 62 -15 9 -3 2 -18 -20 -46 -18 -24 -36 -46 -41 -49 -17 -12 -69 -191 -81 -276 -28 -203 -81 -343 -162 -435 l-33 -37 6 -84 c7 -105 -10 -163 -109 -360 -81 -162 -103 -237 -94 -319 3 -32 4 -58 3 -58 -2 0 -32 12 -68 26 -80 33 -145 34 -324 4 -71 -11 -174 -21 -228 -21 -96 0 -100 1 -183 43 l-85 42 -77 -39 c-75 -39 -79 -40 -177 -40 -67 1 -136 9 -210 25 -152 33 -303 34 -362 3 -23 -13 -45 -23 -47 -23 -3 0 -5 35 -5 78 1 87 -16 142 -96 322 -60 136 -85 228 -85 315 0 49 -3 65 -10 55 -17 -27 -11 -144 11 -216 12 -38 44 -118 71 -179 91 -200 100 -244 77 -369 -6 -32 -8 -60 -6 -62 2 -3 37 15 76 40 71 44 74 44 149 41 87 -3 113 -6 267 -35 118 -22 216 -25 280 -9 47 12 125 56 125 69 0 19 37 10 59 -14 13 -13 46 -35 74 -47 45 -20 67 -23 172 -21 73 1 161 9 225 21 58 11 138 20 177 21 67 0 79 -4 159 -45 47 -25 87 -45 89 -45 1 0 -4 18 -11 41 -8 22 -17 66 -20 97 -7 68 10 119 107 317 36 72 70 147 77 167 23 66 32 147 21 201 -9 50 -8 52 25 86 79 84 109 161 161 423 50 249 62 278 159 371 22 20 37 39 34 42 -3 3 -34 7 -71 10 -36 2 -82 11 -103 20 -23 9 -90 69 -178 158 -78 79 -166 160 -197 181 -85 56 -189 82 -229 56z"/> <path d="M635 2161 c-69 -31 -155 -105 -284 -241 -68 -72 -141 -140 -162 -150 -24 -13 -63 -21 -104 -23 -40 -1 -65 -6 -65 -13 0 -7 20 -34 46 -60 75 -81 90 -118 129 -309 57 -284 90 -370 169 -443 60 -55 82 -54 29 1 -92 94 -123 172 -177 447 -30 156 -56 225 -107 289 l-40 50 43 11 c87 21 131 54 298 221 181 182 222 210 322 217 32 3 58 8 58 13 0 17 -114 9 -155 -10z"/> </g> </svg> 