<?xml version="1.0" standalone="no"?>
<!DOCTYPE svg PUBLIC "-//W3C//DTD SVG 20010904//EN"
 "http://www.w3.org/TR/2001/REC-SVG-20010904/DTD/svg10.dtd">
<svg version="1.0" xmlns="http://www.w3.org/2000/svg"
 width="150.000000pt" height="144.000000pt" viewBox="0 0 150.000000 144.000000"
 preserveAspectRatio="xMidYMid meet">
<metadata>
Created by potrace 1.10, written by Peter Selinger 2001-2011
</metadata>
<g transform="translate(0.000000,144.000000) scale(0.100000,-0.100000)"
fill="#ffffff" stroke="none">
<path d="M700 1388 c-14 -7 -45 -20 -70 -31 -174 -74 -211 -104 -243 -196 -15
-40 -25 -52 -59 -67 -69 -31 -115 -70 -159 -136 -23 -35 -60 -82 -82 -105 -38
-39 -39 -43 -28 -75 7 -18 16 -64 21 -101 13 -90 38 -136 101 -186 l53 -42 -3
-55 c-3 -72 12 -114 70 -200 26 -39 54 -86 62 -105 l14 -34 164 0 c150 0 168
2 210 23 l46 22 58 -26 c65 -30 110 -30 279 3 l89 17 23 51 c12 29 40 80 63
114 53 82 65 121 58 192 -3 40 -1 61 8 69 6 5 27 43 45 82 33 71 34 76 34 210
l1 136 -41 26 c-23 15 -70 56 -105 91 -66 67 -117 99 -180 110 -26 5 -46 19
-73 51 -50 60 -96 87 -198 118 -46 14 -93 33 -104 41 -22 17 -22 17 -54 3z
m152 -51 c112 -39 165 -72 203 -127 22 -32 36 -41 77 -49 69 -15 83 -24 168
-106 41 -39 89 -80 106 -90 l31 -18 2 -141 c1 -131 -1 -145 -24 -194 -14 -30
-34 -66 -44 -81 -16 -22 -18 -38 -14 -86 5 -65 10 -52 -103 -262 -44 -81 -41
-79 -208 -108 -93 -16 -156 -9 -210 23 -36 21 -36 21 -69 2 -60 -34 -110 -41
-252 -34 l-134 7 -12 30 c-7 17 -32 59 -57 94 -62 91 -74 126 -70 198 l3 63
-52 41 c-71 55 -82 75 -98 173 -7 46 -18 95 -24 109 -8 23 -6 30 16 50 13 13
45 54 69 91 54 81 120 141 180 164 33 12 46 24 51 43 21 88 68 136 188 192
148 69 130 68 277 16z"/>
<path d="M705 1363 c-11 -3 -69 -29 -130 -58 -95 -46 -114 -59 -138 -96 -15
-24 -32 -60 -37 -81 -8 -29 -17 -39 -44 -48 -61 -20 -122 -69 -166 -132 -24
-35 -58 -79 -77 -99 -29 -31 -32 -39 -24 -61 5 -14 14 -61 20 -103 14 -95 35
-131 106 -181 46 -31 54 -41 48 -58 -12 -37 -5 -123 13 -157 9 -19 36 -62 60
-97 24 -34 45 -71 49 -81 5 -16 22 -19 135 -26 144 -8 177 -3 236 30 l40 24
60 -31 c53 -27 66 -29 124 -25 36 3 100 14 144 24 78 18 78 18 102 65 13 26
42 75 63 108 47 73 63 134 49 190 -9 36 -8 42 21 79 62 78 70 111 65 261 l-4
134 -43 27 c-23 15 -67 53 -97 84 -59 62 -116 94 -167 95 -27 0 -37 8 -63 45
-41 60 -90 91 -203 130 -51 17 -99 34 -107 37 -8 3 -24 3 -35 1z m61 -46 c-12
-9 -13 -16 -5 -27 9 -13 10 -12 5 2 -8 27 32 32 98 13 48 -14 57 -20 53 -36
-3 -10 -2 -17 2 -15 10 6 63 -29 55 -36 -3 -3 -1 -9 5 -12 5 -4 12 -2 16 3 3
6 -10 21 -29 33 -38 24 -48 42 -18 31 25 -9 71 -53 97 -94 20 -31 31 -37 71
-43 63 -8 120 -43 172 -104 23 -28 59 -60 80 -72 l37 -21 3 -139 c3 -153 1
-160 -62 -243 -32 -42 -34 -48 -24 -83 17 -62 2 -115 -58 -206 -30 -45 -57
-93 -60 -105 -5 -18 -21 -25 -97 -43 -103 -23 -146 -26 -197 -15 -45 10 -92
34 -86 44 10 16 -30 8 -58 -12 -51 -36 -128 -47 -244 -36 -57 6 -106 8 -110 5
-3 -4 -14 10 -24 30 -10 21 -17 38 -15 39 1 1 11 7 21 12 19 10 18 11 -2 17
-20 7 -31 26 -14 26 14 -1 57 -29 56 -37 -1 -4 2 -17 7 -28 5 -14 8 -15 8 -5
1 9 -4 21 -11 28 -9 9 -8 12 8 12 11 1 -6 14 -41 32 -54 28 -58 32 -37 39 28
11 28 17 -3 53 -13 16 -22 32 -20 37 3 4 -4 13 -15 19 -28 15 -25 2 10 -44
l30 -40 -27 -17 -27 -18 27 -12 c14 -6 24 -16 20 -22 -3 -6 2 -16 11 -22 14
-11 14 -14 2 -18 -18 -7 -40 18 -30 34 4 7 3 9 -4 5 -6 -4 -22 13 -39 41 -25
42 -28 58 -28 131 -1 82 -1 83 -32 103 -22 14 -30 26 -28 40 2 11 0 17 -6 14
-5 -4 -7 -11 -4 -16 4 -5 2 -9 -4 -9 -5 0 -23 17 -38 37 -22 28 -28 47 -28 84
0 26 -3 42 -7 36 -4 -7 -8 1 -8 18 0 17 -5 47 -11 69 -10 36 -9 41 19 70 16
17 47 58 69 91 45 66 79 95 156 131 44 20 53 21 55 8 2 -8 0 -23 -4 -32 -6
-14 -8 -13 -14 8 -7 23 -8 23 -9 3 -1 -12 -5 -25 -11 -28 -5 -3 -10 -11 -10
-18 0 -6 7 -2 15 9 13 17 14 17 15 2 0 -9 5 -20 11 -23 6 -4 10 -1 8 6 -3 28
1 38 15 33 11 -4 13 0 9 14 -2 11 0 23 6 26 6 4 11 0 11 -9 0 -9 5 -13 10 -10
6 4 8 10 5 15 -3 5 1 22 10 37 l16 28 -6 -27 c-3 -16 -2 -28 2 -28 9 0 32 70
34 102 1 13 5 5 9 -17 5 -22 6 -57 3 -77 -3 -23 -1 -44 7 -53 10 -12 10 -15
-3 -15 -9 0 -17 11 -20 28 -3 22 -4 20 -6 -10 -1 -31 2 -36 17 -32 16 5 16 5
-1 -6 -9 -6 -14 -16 -11 -22 4 -7 2 -8 -4 -4 -7 4 -12 20 -12 37 0 16 -5 29
-11 29 -11 0 -9 -30 6 -75 4 -11 -3 -5 -16 14 -13 19 -25 29 -27 23 -5 -15 41
-82 53 -79 6 2 10 9 10 14 0 6 12 21 28 33 15 12 27 27 27 33 0 7 -4 6 -10 -3
-5 -8 -10 -10 -10 -5 1 14 25 45 36 45 4 0 3 -5 -4 -12 -9 -9 -8 -14 3 -22 20
-15 8 -56 -17 -56 -10 0 -28 -9 -40 -20 -28 -26 -34 -25 -54 5 -16 24 -34 33
-34 17 0 -4 11 -20 25 -35 14 -15 21 -27 16 -27 -5 0 -17 10 -25 22 -9 12 -19
19 -22 15 -4 -4 0 -15 9 -25 10 -10 17 -23 17 -28 0 -5 -7 0 -15 10 -8 11 -18
16 -22 13 -3 -4 4 -18 17 -32 l24 -26 13 23 13 23 -4 -24 c-3 -24 49 -111 66
-111 4 0 8 -7 8 -15 0 -41 -43 -2 -65 59 -6 18 -26 37 -55 52 -39 21 -42 22
-21 4 13 -11 31 -24 38 -29 8 -4 15 -15 17 -24 1 -9 5 -20 9 -23 4 -4 2 -13
-4 -20 -8 -9 -3 -16 18 -28 33 -18 25 -21 -12 -4 -14 6 -25 15 -25 20 0 5 -10
6 -21 3 -15 -5 -19 -4 -15 4 4 6 2 11 -3 11 -28 0 -7 -28 30 -40 l41 -14 -24
-18 c-18 -14 -20 -18 -6 -18 9 0 19 4 23 9 8 13 173 66 181 59 10 -11 -17 -78
-31 -78 -20 0 -85 -32 -85 -42 0 -12 5 -10 45 12 44 25 53 25 51 3 0 -10 -14
-24 -30 -31 -16 -7 -27 -15 -23 -18 3 -3 19 2 36 10 16 9 39 16 51 16 12 0 19
4 16 9 -3 5 -16 7 -29 4 l-22 -6 22 24 c12 13 25 38 29 54 l8 30 7 -34 c4 -18
10 -62 14 -97 l7 -64 -36 0 c-34 0 -121 -28 -113 -36 2 -2 23 3 47 11 23 8 52
15 64 14 19 -1 18 -2 -4 -9 -24 -8 -24 -8 -2 -9 12 -1 22 -5 22 -11 0 -5 8 -6
17 -3 11 4 12 8 5 11 -7 2 -12 8 -12 13 0 6 5 7 10 4 6 -3 10 -1 10 6 0 7 3 9
8 5 4 -4 7 -24 7 -44 0 -32 3 -37 21 -35 14 2 25 -6 32 -22 10 -21 9 -25 -4
-25 -8 0 -17 7 -20 15 -4 8 -11 15 -16 15 -6 0 -8 -7 -5 -15 5 -11 1 -12 -17
-5 -13 5 -27 6 -30 3 -3 -3 -11 -1 -18 5 -7 5 -25 9 -40 7 -24 -3 -28 1 -28
20 0 15 7 26 20 30 11 3 20 11 20 16 0 13 -27 11 -59 -6 -25 -13 -31 -13 -41
0 -6 8 -9 19 -5 25 3 5 1 10 -5 10 -6 0 -8 5 -4 12 5 7 3 8 -6 3 -8 -5 -11 -3
-8 6 7 20 -21 71 -34 63 -6 -4 -9 -1 -6 7 9 23 -10 46 -34 44 -38 -4 -39 -5
-33 -15 9 -15 27 -12 20 3 -4 6 3 1 14 -13 21 -26 28 -45 12 -36 -5 4 -7 -3
-4 -14 3 -11 9 -17 14 -14 5 3 7 10 4 15 -4 5 -4 9 -1 9 11 0 46 -81 40 -92
-4 -7 -3 -8 4 -4 12 7 38 -32 33 -49 -1 -5 8 -1 20 10 18 16 21 17 16 4 -3 -9
0 -22 6 -28 9 -10 6 -11 -15 -6 -21 5 -29 3 -34 -9 -3 -9 -11 -13 -16 -10 -6
4 -14 0 -19 -7 -8 -11 -12 -10 -24 5 -8 11 -15 28 -15 37 0 10 -4 20 -9 23
-12 8 -8 -57 4 -66 10 -8 -16 -12 -44 -8 -21 3 -76 60 -58 60 24 0 47 -11 42
-20 -2 -4 4 -15 15 -25 11 -10 20 -13 20 -7 0 6 -5 12 -11 14 -5 2 -13 23 -16
47 -4 32 -3 42 5 37 7 -4 12 -23 12 -42 0 -19 3 -34 8 -34 4 0 7 15 7 33 0 30
-19 66 -57 108 -10 10 -18 21 -18 24 0 2 -12 21 -26 42 -57 83 -77 143 -80
233 -1 46 2 95 7 107 6 16 5 23 -4 23 -8 0 -7 3 3 9 8 6 17 8 21 6 9 -6 43 34
36 42 -4 3 -7 1 -7 -6 0 -7 -5 -9 -10 -6 -6 4 -9 1 -8 -7 2 -7 -4 -12 -14 -10
-10 2 -27 -12 -42 -34 -25 -38 -25 -60 0 -50 8 3 14 1 14 -3 0 -5 -7 -11 -15
-15 -8 -3 -15 -1 -15 4 0 23 -19 7 -33 -27 -13 -33 -13 -40 -1 -54 8 -9 13
-22 11 -30 -2 -8 -2 -11 0 -6 9 14 25 7 19 -9 -3 -8 -1 -25 5 -36 16 -30 -3
-42 -28 -18 -14 13 -19 26 -16 41 4 15 2 20 -5 15 -18 -11 0 -136 19 -136 12
0 11 27 -1 35 -5 3 -10 13 -10 21 0 20 19 8 30 -20 9 -21 9 -21 9 3 1 20 3 21
16 11 8 -7 12 -16 9 -21 -3 -5 6 -21 20 -36 32 -35 33 -24 3 25 -28 43 -49
140 -36 162 6 11 9 7 10 -15 1 -16 2 -36 1 -44 0 -8 6 -21 14 -28 8 -8 11 -19
8 -25 -4 -6 -3 -13 2 -17 15 -10 54 -89 54 -107 0 -15 -2 -16 -17 -2 -10 8
-26 18 -36 21 -9 4 -17 13 -17 22 0 8 -2 15 -4 15 -2 0 -12 3 -22 7 -14 5 -13
2 4 -15 12 -12 22 -26 22 -32 0 -13 -32 0 -48 19 -7 9 -2 -5 10 -31 12 -27 27
-48 32 -48 6 0 5 -4 -3 -9 -10 -7 -6 -13 17 -26 19 -12 28 -24 24 -33 -4 -12
-7 -12 -19 4 -7 10 -13 15 -13 10 0 -12 64 -95 79 -101 7 -3 -1 11 -18 31 -53
60 -26 51 32 -11 48 -50 58 -56 83 -51 20 4 37 0 54 -13 28 -22 25 -33 -8 -24
-12 3 -19 10 -15 17 3 6 -6 0 -20 -13 l-26 -24 -42 22 c-23 12 -44 20 -46 17
-3 -2 18 -16 46 -30 49 -25 50 -27 39 -52 -11 -24 -10 -29 10 -42 12 -8 22
-20 22 -27 0 -14 25 -27 34 -18 3 4 -3 13 -14 20 -11 8 -18 18 -15 23 3 5 -3
11 -14 15 -18 5 -19 9 -7 43 13 37 22 41 62 28 19 -6 24 0 41 46 13 35 24 52
34 50 8 -2 62 -9 121 -16 98 -11 194 -8 258 8 22 6 27 1 47 -44 l22 -51 37 16
c20 8 38 14 39 13 0 -2 7 -16 14 -33 11 -27 11 -31 -9 -47 -11 -9 -47 -27 -78
-39 -51 -20 -75 -22 -227 -22 -121 0 -191 4 -244 16 -78 17 -107 15 -53 -4 18
-6 29 -16 25 -22 -3 -6 -1 -7 5 -3 16 10 15 -6 0 -24 -11 -12 -10 -12 5 0 10
7 16 19 13 27 -3 7 1 13 9 13 8 0 13 -6 11 -12 -1 -7 -1 -10 1 -5 7 11 63 8
63 -4 0 -6 -8 -8 -19 -4 -11 3 -22 2 -24 -3 -7 -10 38 -10 49 0 11 12 102 10
109 -2 3 -6 12 -10 18 -10 9 0 8 3 -1 8 -7 5 35 9 94 11 63 1 121 8 140 16 29
12 33 12 40 -3 4 -9 7 -20 6 -23 0 -3 6 -6 14 -6 12 0 12 3 0 23 -17 24 -10
40 10 23 9 -7 21 -6 44 6 17 9 36 13 42 9 6 -4 8 -3 5 3 -3 5 16 23 43 39 27
16 50 32 50 35 0 4 -12 10 -26 13 -24 6 -25 8 -10 25 9 10 16 21 16 26 0 5 7
17 17 27 9 10 13 21 9 25 -4 4 -10 3 -14 -2 -4 -6 -33 -28 -64 -49 -49 -33
-60 -37 -73 -26 -12 10 -21 10 -41 1 -31 -14 -44 -14 -44 0 0 5 4 8 8 5 5 -3
9 1 9 9 0 12 -3 12 -16 2 -12 -10 -14 -9 -8 6 4 9 2 17 -4 17 -6 0 -2 8 10 17
11 10 22 30 24 44 6 51 47 75 47 28 0 -21 -15 -26 -24 -6 -3 6 -3 2 0 -10 3
-13 1 -23 -5 -23 -6 0 -11 -6 -11 -14 0 -8 -7 -17 -16 -20 -29 -11 -10 -15 27
-7 22 5 44 4 55 -2 11 -5 16 -7 12 -2 -4 4 13 25 37 47 24 22 43 43 43 47 -1
3 13 28 30 56 36 55 52 103 58 177 4 50 -2 55 -56 48 -12 -1 -11 3 4 17 13 13
20 15 23 6 5 -15 33 -18 33 -3 0 5 6 8 13 6 6 -1 9 -1 5 1 -5 3 -8 13 -8 22 0
10 -3 21 -7 24 -4 4 -8 26 -11 49 -2 24 -8 46 -14 49 -6 4 -8 11 -5 16 4 6 0
19 -8 29 -17 23 -20 48 -3 38 7 -4 8 -3 4 5 -4 6 -12 9 -17 6 -5 -4 -9 -1 -9
5 0 6 -9 21 -20 32 -16 18 -23 19 -33 9 -10 -10 -8 -11 8 -5 16 6 18 5 9 -7
-12 -15 -11 -56 3 -104 5 -16 8 -60 6 -97 -3 -48 0 -68 8 -68 7 0 10 -3 6 -6
-3 -3 -8 -5 -12 -4 -6 1 -35 -45 -35 -56 0 -13 19 0 27 19 l11 22 12 -28 c12
-25 15 -26 31 -11 16 14 18 14 24 -6 7 -22 -4 -44 -12 -23 -2 7 -11 9 -19 6
-7 -3 -17 2 -20 11 -3 9 -11 16 -16 16 -6 0 -7 -7 -4 -16 3 -8 0 -22 -8 -30
-22 -22 -31 -17 -11 6 16 18 16 20 2 20 -9 0 -19 -11 -23 -25 -3 -14 -9 -25
-13 -25 -3 0 -13 -15 -20 -32 -8 -18 -36 -61 -63 -95 -27 -35 -48 -73 -48 -86
0 -32 -28 -57 -40 -36 -10 15 -51 19 -61 5 -12 -16 -56 3 -62 26 -4 12 -9 20
-12 16 -3 -3 -1 -16 4 -30 8 -20 6 -24 -12 -25 -28 -3 -47 15 -40 34 5 12 3
14 -7 8 -9 -5 -11 -4 -6 3 12 20 32 13 44 -15 l12 -28 -5 27 c-6 31 6 42 36
33 15 -5 18 -12 13 -27 -4 -15 -2 -19 7 -16 8 3 15 14 17 25 4 26 -55 55 -68
33 -4 -7 -13 -9 -19 -6 -6 4 -16 4 -23 0 -7 -4 -22 -8 -35 -9 -19 0 -23 4 -23
28 0 22 3 27 13 19 19 -15 81 -27 73 -13 -10 15 8 14 50 -4 20 -8 41 -12 47
-8 13 8 -61 31 -133 41 -50 6 -55 9 -54 32 0 14 2 57 3 95 l2 70 17 -35 c19
-38 55 -74 60 -59 5 14 24 11 64 -11 27 -14 36 -16 32 -6 -8 20 -76 46 -90 35
-8 -6 -14 -4 -18 7 -12 31 -5 34 47 14 60 -23 57 -23 57 -11 0 12 -88 44 -104
38 -8 -3 -16 2 -19 14 -4 15 0 19 21 19 39 -1 131 -24 179 -46 41 -19 42 -20
27 -44 l-15 -25 6 25 c3 14 -10 -4 -29 -38 -19 -36 -32 -71 -29 -79 5 -12 3
-14 -7 -8 -9 5 -11 4 -6 -4 4 -6 2 -18 -4 -26 -7 -8 -10 -20 -8 -26 2 -7 24
26 48 72 24 46 48 87 54 91 6 4 7 8 3 8 -5 0 -5 5 -1 12 5 8 10 6 14 -8 5 -11
7 0 6 27 -3 54 -31 103 -46 79 -5 -8 -10 -11 -10 -7 0 5 -8 1 -17 -9 -12 -11
-18 -13 -21 -5 -2 7 4 19 14 27 11 9 13 13 7 9 -8 -4 -11 -1 -7 9 3 8 12 12
20 9 8 -3 14 0 14 5 0 6 -8 13 -17 16 -11 3 -9 4 6 3 13 -1 26 4 29 11 3 9 -3
11 -23 6 -21 -5 -27 -4 -23 7 3 8 14 15 26 17 12 2 22 8 22 14 0 6 -11 8 -27
4 -27 -6 -27 -6 -9 9 11 8 23 15 28 15 4 0 8 5 8 11 0 6 -5 7 -12 2 -18 -11
-38 -13 -38 -4 0 4 11 13 25 19 14 6 25 16 25 22 0 6 -9 6 -24 -2 -14 -6 -32
-8 -40 -5 -24 10 -19 36 9 47 14 5 25 14 25 20 0 15 -15 12 -42 -10 -14 -10
-28 -17 -32 -13 -3 3 3 12 13 19 18 13 37 69 20 58 -5 -3 -9 -12 -9 -19 0 -8
-9 -19 -20 -25 -23 -12 -27 2 -5 20 18 15 20 47 3 53 -9 2 -13 25 -13 66 1 49
-1 58 -9 41 -6 -14 -6 -43 1 -83 11 -68 7 -90 -13 -62 -8 10 -27 18 -46 19
-27 1 -33 5 -32 22 1 16 -3 20 -18 16 -15 -4 -16 -7 -7 -13 8 -4 10 -11 6 -15
-3 -4 -14 -1 -23 7 -14 12 -14 14 3 27 17 12 16 13 -8 9 -28 -5 -51 4 -48 19
4 23 -3 26 -21 9 -19 -17 -20 -17 -22 1 -5 69 -3 82 18 113 l23 34 4 -34 4
-34 1 33 c1 21 -3 35 -13 38 -11 5 -12 10 -4 26 9 16 8 19 -2 16 -8 -3 -17
-20 -21 -39 -3 -19 -13 -52 -21 -74 -10 -25 -12 -44 -6 -49 5 -6 9 -18 9 -27
0 -22 20 -36 29 -21 4 7 11 4 19 -8 10 -17 10 -20 -3 -20 -8 0 -15 -4 -15 -10
0 -5 5 -9 12 -7 6 1 14 -7 16 -18 4 -17 2 -18 -12 -6 -9 7 -16 10 -16 6 0 -4
-7 -2 -15 5 -12 10 -16 9 -21 -5 -5 -12 -9 -13 -14 -5 -5 9 -10 6 -14 -8 -4
-12 -16 -24 -27 -27 -31 -10 -36 3 -6 14 18 7 25 15 21 26 -4 8 -1 15 7 15 7
0 9 3 5 7 -4 4 -16 -3 -28 -17 -11 -14 -17 -20 -14 -14 7 15 -29 11 -48 -5
-18 -15 -18 -19 -22 79 -5 126 -4 122 -20 109 -8 -6 -14 -29 -14 -50 0 -21 -5
-41 -11 -45 -7 -4 -9 0 -5 14 4 11 2 23 -4 27 -6 3 -7 12 -3 18 11 18 12 37 2
37 -6 0 -9 -8 -7 -17 2 -10 -2 -17 -9 -16 -18 4 -36 -34 -21 -43 6 -4 8 -3 5
2 -3 6 -2 16 3 24 7 12 10 12 16 -3 8 -22 -3 -67 -17 -67 -6 0 -7 5 -4 10 3 6
1 10 -4 10 -6 0 -11 -11 -11 -24 0 -34 -18 -42 -25 -13 -9 35 31 123 68 149
17 12 78 43 136 69 101 45 107 46 134 32 25 -13 27 -16 13 -26z m21 -260 c-3
-11 -23 -7 -19 4 1 5 -2 9 -8 9 -5 0 -10 5 -10 10 0 6 8 5 20 -2 11 -7 19 -17
17 -21z m108 -17 c3 -5 1 -10 -4 -10 -6 0 -11 5 -11 10 0 6 2 10 4 10 3 0 8
-4 11 -10z m-32 -12 c-2 -5 0 -8 6 -8 12 0 81 -72 98 -103 29 -51 4 -187 -33
-187 -15 0 -16 2 -2 18 25 28 40 62 28 62 -6 0 -14 -8 -17 -17 -20 -53 -61
-64 -107 -29 -17 14 -17 16 -2 38 9 12 16 35 16 50 0 37 17 36 25 -2 4 -17 11
-27 16 -24 6 4 6 11 -2 20 -13 16 -4 48 11 39 5 -3 10 -15 10 -25 0 -10 5 -22
10 -25 16 -10 11 32 -6 50 -13 13 -19 13 -33 3 -14 -12 -14 -11 -3 4 8 10 22
20 33 23 26 9 24 33 -3 37 -16 2 -24 11 -27 28 -4 30 -17 40 -54 40 -16 0 -26
4 -23 9 3 4 19 8 35 7 16 -1 27 -4 24 -8z m384 6 c-3 -3 -12 -4 -19 -1 -8 3
-5 6 6 6 11 1 17 -2 13 -5z m-459 -9 c-7 -7 -118 -9 -125 -1 -3 3 24 6 62 6
38 0 66 -2 63 -5z m473 -33 c10 -26 -11 -31 -31 -7 -10 12 -9 15 6 15 16 0 17
2 4 11 -12 8 -12 10 -1 7 8 -2 18 -14 22 -26z m-485 9 c-11 -16 -18 -83 -12
-107 4 -14 14 -24 24 -24 15 1 15 2 2 13 -25 20 -23 53 5 71 14 9 25 21 25 27
0 8 -5 7 -15 -1 -18 -15 -30 -7 -22 15 7 17 39 20 68 5 23 -13 26 -65 5 -107
-8 -15 -21 -45 -30 -65 -10 -26 -20 -36 -30 -32 -25 10 -46 -47 -43 -118 2
-75 -16 -91 -20 -17 -3 54 -16 79 -39 79 -8 0 -14 5 -14 11 0 7 11 4 26 -6 15
-9 25 -13 22 -8 -25 54 -33 63 -48 58 -13 -4 -21 3 -29 27 -7 18 -21 51 -32
73 -27 57 -24 96 9 106 26 9 153 9 148 0z m-505 -44 c-10 -9 -11 -8 -5 6 3 10
9 15 12 12 3 -3 0 -11 -7 -18z m989 -1 c0 -3 -4 -8 -10 -11 -5 -3 -10 -1 -10
4 0 6 5 11 10 11 6 0 10 -2 10 -4z m21 -10 c-8 -10 -8 -16 3 -25 16 -14 14
-83 -3 -89 -6 -2 -11 -12 -11 -23 0 -10 -5 -19 -11 -19 -6 0 -8 7 -5 16 4 9 2
13 -5 8 -7 -4 -10 -1 -7 7 3 8 10 14 16 14 6 0 17 6 24 14 11 12 10 13 -4 8
-19 -7 -25 8 -8 18 17 10 12 45 -5 39 -8 -4 -15 -3 -15 0 0 12 25 46 34 46 4
0 3 -6 -3 -14z m-731 -35 c0 -5 -7 -11 -15 -15 -8 -3 -15 -12 -15 -20 0 -12 6
-10 23 7 13 12 21 27 18 32 -3 6 2 4 11 -2 8 -7 17 -11 20 -8 8 8 3 -59 -5
-72 -4 -6 -1 -13 6 -16 9 -3 12 5 12 29 -2 46 12 43 25 -6 6 -21 15 -42 20
-45 5 -3 6 -13 3 -23 -5 -14 -3 -14 17 3 l23 20 -14 -23 c-8 -12 -18 -20 -24
-18 -5 2 -24 -2 -40 -9 -27 -11 -32 -10 -50 13 -11 13 -30 34 -42 45 -38 34
-28 117 14 117 7 0 13 -4 13 -9z m-289 -20 c7 11 9 11 9 -3 0 -9 -5 -20 -11
-24 -13 -7 -29 13 -29 36 1 11 3 10 11 -4 9 -15 13 -16 20 -5z m1009 -1 c0 -5
-7 -10 -15 -10 -8 0 -15 5 -15 10 0 6 7 10 15 10 8 0 15 -4 15 -10z m-1024
-58 c-4 -3 -11 0 -16 8 -15 24 -11 33 6 15 9 -9 13 -19 10 -23z m1064 -39
c-11 -17 -11 -17 -6 0 4 11 0 17 -11 17 -13 0 -13 3 -2 16 11 14 13 14 21 0 6
-10 5 -23 -2 -33z m-510 -18 c4 2 15 -4 25 -15 10 -11 13 -20 7 -20 -6 0 -14
5 -17 10 -16 26 -22 -5 -10 -43 13 -37 13 -40 0 -23 -8 11 -15 28 -15 39 0 14
-5 17 -17 13 -15 -6 -16 -5 -1 11 8 10 14 24 12 31 -1 7 0 8 3 2 2 -5 8 -8 13
-5z m480 -25 c0 -5 -5 -10 -11 -10 -5 0 -7 5 -4 10 3 6 8 10 11 10 2 0 4 -4 4
-10z m-595 -47 c-3 -16 -10 -32 -15 -37 -5 -5 -4 7 2 27 13 43 23 50 13 10z
m373 15 c7 -7 12 -17 12 -22 0 -6 -5 -4 -10 4 -5 8 -10 10 -10 3 0 -6 -9 -9
-20 -6 -11 3 -20 10 -20 15 0 6 7 7 16 4 8 -3 12 -2 9 4 -9 14 9 12 23 -2z
m235 -49 c3 -11 1 -22 -5 -25 -5 -3 -7 -13 -3 -22 5 -14 -9 -31 -27 -32 -14 0
-9 27 7 40 8 7 15 20 14 29 0 13 -2 14 -6 1 -6 -15 -23 -30 -34 -30 -12 0 -17
38 -7 48 17 17 56 11 61 -9z m-73 -34 c0 -8 -13 -21 -30 -30 -18 -9 -30 -11
-30 -5 0 6 11 15 25 20 14 5 25 12 25 14 0 3 -8 2 -17 -1 -16 -6 -16 -5 -4 10
15 18 31 14 31 -8z m-726 -1 c3 -8 2 -12 -4 -9 -6 3 -10 10 -10 16 0 14 7 11
14 -7z m515 -63 c-12 -23 -24 -39 -26 -38 -2 2 7 22 19 45 13 22 24 39 26 37
2 -2 -6 -22 -19 -44z m-708 8 c7 -15 6 -19 -5 -19 -13 0 -36 28 -36 44 0 12
31 -8 41 -25z m37 -18 c-12 -4 -28 17 -28 38 0 8 8 3 19 -10 11 -14 15 -26 9
-28z m897 29 c4 -11 10 -18 15 -15 5 3 11 1 15 -5 3 -5 2 -10 -4 -10 -6 0 -13
-11 -17 -25 -8 -31 -41 -42 -62 -21 -11 10 -12 16 -4 16 7 0 12 -4 12 -8 0 -5
7 -9 15 -9 21 0 19 15 -2 20 -14 4 -13 5 4 6 22 1 40 18 29 28 -3 3 -12 0 -21
-7 -10 -8 -15 -9 -15 -1 0 6 5 11 10 11 6 0 10 4 10 10 0 5 -8 6 -17 3 -16 -6
-16 -5 -4 10 18 22 28 21 36 -3z m-845 -38 c0 -12 -3 -12 -15 -2 -8 7 -15 22
-15 34 1 21 1 21 15 2 8 -11 15 -26 15 -34z m139 18 c11 -24 11 -24 -3 -6 -9
11 -16 24 -16 30 0 12 5 7 19 -24z m659 -12 c4 -21 -37 -36 -49 -17 -10 17 9
41 30 37 9 -2 17 -11 19 -20z m-441 -10 c-3 -8 -6 -5 -6 6 -1 11 2 17 5 13 3
-3 4 -12 1 -19z m-374 -16 c12 -10 16 -9 21 5 6 15 8 15 16 3 6 -8 10 -24 10
-35 0 -15 -3 -16 -12 -7 -7 7 -22 12 -35 12 -15 0 -23 6 -24 18 -1 16 -2 16
-6 0 -2 -10 -8 -18 -11 -18 -10 1 -42 26 -42 33 0 11 67 2 83 -11z m753 -20
c-8 -9 -19 -13 -22 -9 -10 9 16 38 28 31 6 -4 4 -13 -6 -22z m47 -7 c4 -8 2
-17 -3 -20 -6 -4 -10 -1 -10 6 0 7 -3 9 -7 5 -5 -4 -8 -13 -8 -18 0 -6 -6 -13
-13 -16 -11 -3 -12 0 -3 17 7 11 8 21 4 21 -9 0 19 20 28 20 4 0 9 -7 12 -15z
m-803 -25 c6 -11 7 -20 2 -20 -5 0 -17 9 -27 20 -16 18 -16 20 -2 20 9 0 21
-9 27 -20z m50 -23 c0 -6 -9 -2 -20 8 -11 10 -20 23 -20 28 0 6 9 2 20 -8 11
-10 20 -23 20 -28z m776 7 c-21 -20 -28 -17 -14 5 7 11 16 17 20 15 5 -3 2
-12 -6 -20z m-38 -31 c-5 -24 -25 -27 -31 -3 -4 15 0 20 15 20 13 0 18 -6 16
-17z m-38 -12 c0 -5 -9 -11 -20 -14 -20 -5 -26 3 -13 16 9 10 33 8 33 -2z
m-578 -53 c-7 -7 -17 -6 -32 2 -12 6 -19 14 -16 18 4 3 12 0 18 -6 13 -13 29
-16 27 -4 -3 16 3 26 8 14 3 -8 1 -18 -5 -24z m708 17 c0 -2 -14 -20 -31 -40
-31 -35 -31 -36 10 -47 15 -4 -91 -70 -121 -75 -28 -5 -21 5 18 23 22 11 33
22 30 30 -4 8 -8 20 -11 27 -3 7 9 20 30 31 19 10 42 27 51 37 17 19 24 23 24
14z"/>
<path d="M609 1289 l-24 -20 28 17 c15 9 27 18 27 20 0 8 -8 4 -31 -17z"/>
<path d="M651 1296 c-9 -11 -9 -16 1 -22 7 -4 10 -4 6 1 -4 4 -3 14 3 22 6 7
9 13 6 13 -2 0 -10 -6 -16 -14z"/>
<path d="M662 1258 c-7 -7 -12 -24 -12 -39 0 -34 -9 -59 -21 -59 -5 0 -9 7 -9
15 0 8 -3 15 -8 15 -4 0 -8 -27 -8 -59 -1 -41 3 -58 11 -55 6 3 10 17 7 33 -2
16 1 32 7 35 6 4 11 0 12 -11 1 -19 14 28 24 86 3 18 8 37 11 42 8 13 0 11
-14 -3z"/>
<path d="M780 1251 c0 -10 -7 -24 -15 -31 -17 -14 -20 -40 -5 -40 6 0 10 5 10
11 0 6 7 17 15 25 13 14 15 13 15 -7 0 -12 3 -20 6 -17 8 9 -7 78 -17 78 -5 0
-9 -8 -9 -19z"/>
<path d="M896 1225 c6 -14 4 -16 -6 -10 -9 5 -11 4 -6 -4 4 -6 12 -8 18 -5 8
5 9 1 5 -10 -4 -10 -3 -15 3 -11 15 9 12 31 -5 45 -13 11 -14 10 -9 -5z"/>
<path d="M926 1225 c4 -8 10 -15 15 -15 5 0 9 -18 9 -39 0 -22 5 -43 10 -46 6
-3 10 -15 10 -26 0 -10 5 -19 10 -19 14 0 12 22 -5 44 -8 11 -15 33 -15 49 0
32 -16 67 -30 67 -5 0 -7 -7 -4 -15z"/>
<path d="M824 1203 c-3 -13 -10 -23 -14 -23 -4 0 -10 -7 -14 -15 -4 -12 -2
-13 13 -5 11 5 22 15 24 22 3 7 4 -6 2 -29 -3 -30 1 -43 11 -47 13 -5 14 2 8
42 -9 62 -21 85 -30 55z"/>
<path d="M781 1184 c0 -11 3 -14 6 -6 3 7 2 16 -1 19 -3 4 -6 -2 -5 -13z"/>
<path d="M1014 1174 c1 -22 6 -30 21 -32 11 0 15 2 10 6 -6 4 -15 18 -21 32
-11 25 -11 25 -10 -6z"/>
<path d="M570 1175 c0 -5 5 -17 10 -25 5 -8 10 -10 10 -5 0 6 -5 17 -10 25 -5
8 -10 11 -10 5z"/>
<path d="M970 1158 c0 -17 18 -44 24 -37 8 7 -5 49 -15 49 -5 0 -9 -6 -9 -12z"/>
<path d="M575 1120 c-3 -5 -1 -10 4 -10 6 0 11 5 11 10 0 6 -2 10 -4 10 -3 0
-8 -4 -11 -10z"/>
<path d="M1015 1117 c-13 -14 -14 -57 -3 -57 4 0 8 5 8 11 0 5 5 7 10 4 6 -3
10 -15 10 -26 0 -10 6 -18 13 -16 7 1 11 -7 10 -20 -2 -13 2 -23 8 -23 7 0 9
9 6 23 -21 79 -21 76 7 73 14 -2 26 1 26 7 0 5 -9 7 -20 4 -11 -3 -20 0 -20 6
-1 7 -7 1 -15 -13 -14 -25 -19 -21 -27 22 -2 12 -6 13 -13 5z"/>
<path d="M1150 1111 c0 -5 7 -12 16 -15 14 -5 15 -4 4 9 -14 17 -20 19 -20 6z"/>
<path d="M668 1103 c-16 -4 -17 -6 -2 -20 11 -12 18 -13 27 -4 14 14 -2 29
-25 24z"/>
<path d="M894 1085 c8 -8 18 -15 22 -15 3 0 1 7 -6 15 -7 8 -17 15 -22 15 -5
0 -3 -7 6 -15z"/>
<path d="M850 1086 c0 -2 7 -7 16 -10 8 -3 12 -2 9 4 -6 10 -25 14 -25 6z"/>
<path d="M1086 1050 c4 -14 7 -39 7 -55 1 -23 5 -31 19 -31 13 0 18 8 17 26 0
23 -1 23 -9 5 -8 -19 -9 -19 -9 1 -1 12 -8 35 -17 50 -14 26 -15 26 -8 4z"/>
<path d="M1175 1040 c3 -5 8 -10 11 -10 2 0 4 5 4 10 0 6 -5 10 -11 10 -5 0
-7 -4 -4 -10z"/>
<path d="M340 978 c0 -25 -3 -29 -10 -18 -7 11 -10 6 -10 -20 0 -24 3 -31 9
-21 7 11 13 9 30 -8 24 -24 28 -14 6 15 -19 25 -19 45 0 38 21 -8 19 2 -5 26
-20 20 -20 20 -20 -12z"/>
<path d="M420 1001 c0 -6 4 -13 10 -16 6 -3 7 1 4 9 -7 18 -14 21 -14 7z"/>
<path d="M1306 987 c3 -10 9 -15 12 -12 3 3 0 11 -7 18 -10 9 -11 8 -5 -6z"/>
<path d="M1003 956 c-13 -6 -23 -14 -23 -19 0 -4 8 -3 19 2 10 6 21 7 25 4 3
-3 6 1 6 10 0 10 -1 16 -2 16 -2 -1 -13 -6 -25 -13z"/>
<path d="M1126 951 c-11 -12 -16 -24 -12 -28 4 -4 11 -1 16 7 8 12 10 10 10
-7 0 -13 -4 -23 -10 -23 -5 0 -10 -5 -10 -11 0 -6 7 -9 15 -5 8 3 15 1 15 -5
0 -6 -9 -13 -20 -16 -11 -3 -20 -10 -20 -15 0 -6 7 -8 14 -5 10 4 13 1 9 -9
-3 -7 -14 -14 -25 -14 -10 0 -16 -5 -13 -10 4 -6 11 -7 17 -4 6 4 9 1 6 -7 -3
-9 -16 -13 -34 -12 -27 3 -27 2 -6 -7 12 -5 22 -14 22 -20 0 -6 5 -8 10 -5 6
4 8 10 5 15 -3 5 3 13 12 19 10 5 14 13 10 17 -4 4 0 16 10 26 11 13 12 18 3
18 -9 0 -10 3 -1 14 8 9 9 29 4 61 l-8 47 -19 -21z"/>
<path d="M1170 965 c0 -5 5 -17 10 -25 5 -8 10 -10 10 -5 0 6 -5 17 -10 25 -5
8 -10 11 -10 5z"/>
<path d="M1321 956 c-9 -11 -9 -16 1 -22 7 -4 10 -4 6 1 -4 4 -3 14 3 22 6 7
9 13 6 13 -2 0 -10 -6 -16 -14z"/>
<path d="M1350 950 c0 -5 5 -10 11 -10 5 0 7 5 4 10 -3 6 -8 10 -11 10 -2 0
-4 -4 -4 -10z"/>
<path d="M381 940 c0 -8 3 -21 8 -28 7 -11 9 -10 14 3 4 9 3 13 -2 10 -5 -3
-12 3 -14 12 -3 13 -5 14 -6 3z"/>
<path d="M200 920 c-6 -11 -8 -20 -6 -20 3 0 10 9 16 20 6 11 8 20 6 20 -3 0
-10 -9 -16 -20z"/>
<path d="M1375 921 c-6 -11 13 -26 22 -17 4 3 0 6 -8 6 -11 0 -11 2 1 10 9 6
10 10 3 10 -6 0 -14 -4 -18 -9z"/>
<path d="M1205 911 c-3 -5 -2 -12 3 -15 5 -3 9 1 9 9 0 17 -3 19 -12 6z"/>
<path d="M316 880 c4 -8 7 -23 9 -34 2 -21 31 -46 54 -46 11 1 7 6 -9 16 -24
15 -24 15 -2 10 19 -4 21 -2 11 10 -7 8 -18 13 -25 10 -7 -3 -15 2 -18 10 -9
22 -8 24 10 24 8 0 13 4 9 9 -3 6 -14 9 -25 8 -14 -1 -19 -6 -14 -17z"/>
<path d="M186 875 c-9 -26 -7 -32 5 -12 6 10 9 21 6 23 -2 3 -7 -2 -11 -11z"/>
<path d="M1366 878 c3 -5 10 -6 15 -3 13 9 11 12 -6 12 -8 0 -12 -4 -9 -9z"/>
<path d="M1085 860 c-10 -11 -14 -20 -9 -20 5 0 2 -5 -6 -10 -9 -6 -10 -10 -3
-10 6 0 18 14 27 30 17 35 16 37 -9 10z"/>
<path d="M1200 850 c6 -11 13 -20 16 -20 2 0 0 9 -6 20 -6 11 -13 20 -16 20
-2 0 0 -9 6 -20z"/>
<path d="M1166 833 c-4 -9 -4 -14 0 -10 4 4 14 1 23 -6 14 -11 15 -10 1 8 -8
11 -15 21 -16 23 -1 2 -5 -5 -8 -15z"/>
<path d="M134 818 l-19 -23 24 20 c13 11 25 19 28 17 3 -2 7 -1 11 2 3 3 -1 6
-10 6 -8 0 -23 -10 -34 -22z"/>
<path d="M1381 814 c0 -11 3 -14 6 -6 3 7 2 16 -1 19 -3 4 -6 -2 -5 -13z"/>
<path d="M161 794 c0 -11 3 -14 6 -6 3 7 2 16 -1 19 -3 4 -6 -2 -5 -13z"/>
<path d="M426 802 c-2 -4 7 -9 20 -10 15 -1 22 2 19 8 -7 12 -32 13 -39 2z"/>
<path d="M353 786 c9 -7 17 -18 17 -24 0 -5 7 -12 14 -15 10 -4 13 -1 9 9 -3
7 0 14 6 14 6 0 11 5 11 11 0 6 -8 8 -19 4 -11 -3 -22 -1 -26 5 -3 5 -12 10
-18 10 -7 0 -4 -7 6 -14z"/>
<path d="M1190 781 c0 -6 4 -12 8 -15 5 -3 9 1 9 9 0 8 -4 15 -9 15 -4 0 -8
-4 -8 -9z"/>
<path d="M220 766 c0 -9 5 -16 10 -16 6 0 10 4 10 9 0 6 -4 13 -10 16 -5 3
-10 -1 -10 -9z"/>
<path d="M455 770 c3 -5 11 -10 16 -10 6 0 7 5 4 10 -3 6 -11 10 -16 10 -6 0
-7 -4 -4 -10z"/>
<path d="M1060 755 c0 -8 7 -15 16 -15 14 0 14 3 4 15 -7 8 -14 15 -16 15 -2
0 -4 -7 -4 -15z"/>
<path d="M1340 759 c0 -5 5 -7 10 -4 6 3 10 8 10 11 0 2 -4 4 -10 4 -5 0 -10
-5 -10 -11z"/>
<path d="M380 716 c0 -2 7 -7 16 -10 8 -3 12 -2 9 4 -6 10 -25 14 -25 6z"/>
<path d="M594 686 c-27 -12 -54 -36 -41 -36 9 0 97 41 97 45 0 9 -25 4 -56 -9z"/>
<path d="M1371 695 c0 -5 3 -16 8 -23 7 -11 9 -10 14 3 4 9 3 14 -2 10 -5 -3
-12 1 -14 7 -3 7 -6 9 -6 3z"/>
<path d="M1330 675 c0 -5 5 -17 10 -25 5 -8 10 -10 10 -5 0 6 -5 17 -10 25 -5
8 -10 11 -10 5z"/>
<path d="M360 662 c1 -15 37 -54 43 -46 3 5 -6 19 -19 31 -13 12 -24 18 -24
15z"/>
<path d="M1090 643 c0 -4 5 -15 10 -23 8 -13 10 -13 10 2 0 9 -4 20 -10 23 -5
3 -10 3 -10 -2z"/>
<path d="M1140 639 c0 -5 -5 -7 -12 -3 -7 4 -8 3 -4 -5 6 -9 11 -9 22 0 17 14
18 19 4 19 -5 0 -10 -5 -10 -11z"/>
<path d="M147 629 c7 -9 10 -19 6 -23 -4 -4 1 -4 10 0 10 3 17 7 15 8 -2 1
-12 8 -23 16 -18 14 -19 13 -8 -1z"/>
<path d="M420 616 c0 -2 7 -7 16 -10 8 -3 12 -2 9 4 -6 10 -25 14 -25 6z"/>
<path d="M818 609 c18 -5 30 -14 27 -19 -3 -6 1 -7 10 -4 8 4 21 1 29 -5 7 -6
16 -8 20 -4 8 9 -71 42 -99 42 -12 -1 -6 -5 13 -10z"/>
<path d="M1313 580 c5 -21 -15 -44 -29 -32 -4 4 -2 -1 5 -10 15 -19 31 -15 31
8 0 8 4 14 10 14 5 0 14 10 20 23 10 20 10 20 -3 5 -17 -22 -31 -23 -23 -3 3
8 0 15 -5 15 -6 0 -9 -9 -6 -20z"/>
<path d="M1076 558 c3 -5 10 -6 15 -3 13 9 11 12 -6 12 -8 0 -12 -4 -9 -9z"/>
<path d="M1013 524 c-6 -13 -7 -24 -3 -24 9 0 25 39 18 45 -2 2 -8 -7 -15 -21z"/>
<path d="M1064 530 c0 -13 4 -16 10 -10 7 7 7 13 0 20 -6 6 -10 3 -10 -10z"/>
<path d="M457 520 c10 -11 19 -20 21 -20 1 0 -2 9 -8 20 -6 11 -15 20 -20 20
-6 0 -2 -9 7 -20z"/>
<path d="M1282 503 c-6 -2 -10 -9 -6 -14 8 -14 21 -11 21 6 0 8 -1 15 -1 14
-1 0 -7 -3 -14 -6z"/>
<path d="M664 465 c-9 -14 -14 -28 -11 -32 4 -3 11 5 16 18 8 20 10 21 10 5 1
-20 1 -20 16 0 14 18 14 18 15 -7 0 -15 6 -26 14 -26 19 0 17 44 -3 51 -9 3
-21 9 -28 12 -6 3 -19 -6 -29 -21z"/>
<path d="M1026 473 c-6 -14 -5 -15 5 -6 7 7 10 15 7 18 -3 3 -9 -2 -12 -12z"/>
<path d="M540 475 c0 -5 5 -17 10 -25 5 -8 10 -10 10 -5 0 6 -5 17 -10 25 -5
8 -10 11 -10 5z"/>
<path d="M985 460 c3 -5 8 -10 11 -10 2 0 4 5 4 10 0 6 -5 10 -11 10 -5 0 -7
-4 -4 -10z"/>
<path d="M1230 455 c-18 -22 3 -46 23 -26 10 10 9 11 -5 6 -22 -9 -23 -1 -2
19 8 9 11 16 6 16 -5 0 -15 -7 -22 -15z"/>
<path d="M511 434 c0 -11 3 -14 6 -6 3 7 2 16 -1 19 -3 4 -6 -2 -5 -13z"/>
<path d="M386 375 c4 -8 11 -15 16 -15 6 0 5 6 -2 15 -7 8 -14 15 -16 15 -2 0
-1 -7 2 -15z"/>
<path d="M580 370 c0 -10 8 -23 17 -29 10 -5 15 -13 11 -17 -4 -4 -14 -1 -23
6 -8 7 -15 8 -15 2 0 -15 28 -35 40 -27 16 10 12 43 -7 54 -10 5 -14 13 -10
17 5 5 12 2 17 -6 5 -8 12 -11 15 -8 11 11 -5 28 -26 28 -12 0 -19 -7 -19 -20z"/>
<path d="M957 379 c-21 -12 -23 -62 -2 -79 12 -10 18 -10 30 0 21 18 19 41 -5
47 -11 3 -20 10 -20 15 0 6 7 8 15 4 8 -3 15 -1 15 4 0 15 -14 19 -33 9z m23
-54 c0 -8 -4 -15 -10 -15 -5 0 -10 7 -10 15 0 8 5 15 10 15 6 0 10 -7 10 -15z"/>
<path d="M280 375 c0 -5 5 -17 10 -25 5 -8 10 -10 10 -5 0 6 -5 17 -10 25 -5
8 -10 11 -10 5z"/>
<path d="M642 340 c-2 -23 2 -40 8 -40 5 0 10 10 11 23 0 13 2 16 6 7 14 -44
15 -45 29 -15 l13 30 1 -27 c0 -16 5 -28 11 -28 13 0 6 83 -8 87 -6 2 -15 -11
-19 -29 l-7 -33 -9 33 c-12 45 -34 41 -36 -8z"/>
<path d="M1076 364 c-5 -14 -4 -15 9 -4 17 14 19 20 6 20 -5 0 -12 -7 -15 -16z"/>
<path d="M748 330 c2 -22 8 -40 13 -40 4 0 6 6 3 14 -3 8 3 16 16 19 30 8 22
41 -10 45 -24 3 -25 1 -22 -38z m32 21 c0 -6 -4 -13 -10 -16 -5 -3 -10 1 -10
9 0 9 5 16 10 16 6 0 10 -4 10 -9z"/>
<path d="M834 354 c3 -9 6 -29 6 -45 0 -16 5 -29 11 -29 7 0 9 10 5 26 -5 19
-4 24 5 18 9 -5 10 -2 6 10 -4 10 -7 22 -7 27 0 5 -7 9 -16 9 -11 0 -14 -5
-10 -16z"/>
<path d="M878 340 c-4 -23 -1 -40 8 -50 12 -12 14 -10 13 15 0 17 -4 39 -8 50
-7 17 -9 14 -13 -15z"/>
<path d="M428 353 c7 -3 16 -2 19 1 4 3 -2 6 -13 5 -11 0 -14 -3 -6 -6z"/>
<path d="M1267 349 c7 -7 15 -10 18 -7 3 3 -2 9 -12 12 -14 6 -15 5 -6 -5z"/>
<path d="M1246 332 c-3 -5 1 -9 9 -9 8 0 12 4 9 9 -3 4 -7 8 -9 8 -2 0 -6 -4
-9 -8z"/>
<path d="M290 325 c0 -5 5 -17 10 -25 5 -8 10 -10 10 -5 0 6 -5 17 -10 25 -5
8 -10 11 -10 5z"/>
<path d="M320 306 c0 -2 7 -6 15 -10 8 -3 15 -1 15 4 0 6 -7 10 -15 10 -8 0
-15 -2 -15 -4z"/>
<path d="M486 284 c-9 -33 4 -47 35 -42 36 5 38 45 4 58 -34 13 -32 14 -39
-16z m47 0 c9 -10 -4 -34 -19 -34 -8 0 -14 9 -14 20 0 19 19 27 33 14z"/>
<path d="M1043 298 c-18 -9 -20 -14 -11 -34 13 -27 23 -31 31 -10 4 9 14 12
26 9 18 -5 19 -3 8 21 -13 28 -21 30 -54 14z m27 -12 c0 -3 -4 -8 -10 -11 -5
-3 -10 -1 -10 4 0 6 5 11 10 11 6 0 10 -2 10 -4z"/>
<path d="M415 279 c-4 -6 -5 -12 -2 -15 2 -3 7 2 10 11 7 17 1 20 -8 4z"/>
<path d="M570 276 c0 -8 -3 -21 -6 -29 -3 -10 4 -17 22 -21 34 -9 44 1 13 13
l-24 10 25 1 c23 1 23 2 5 10 -19 8 -18 9 4 9 30 1 20 14 -14 18 -17 3 -25 -1
-25 -11z"/>
<path d="M640 266 c0 -8 -3 -21 -6 -30 -3 -9 -1 -16 5 -16 6 0 11 10 11 23 1
21 2 20 16 -5 18 -35 32 -36 40 -3 9 35 -2 55 -13 25 l-10 -24 -12 22 c-13 25
-31 29 -31 8z"/>
<path d="M967 273 c-2 -5 -7 -21 -11 -37 -6 -25 -5 -28 11 -21 10 5 28 8 41 8
28 -1 28 8 -1 35 -25 23 -33 26 -40 15z m23 -23 c0 -5 -4 -10 -10 -10 -5 0
-10 5 -10 10 0 6 5 10 10 10 6 0 10 -4 10 -10z"/>
<path d="M730 241 c0 -17 5 -31 11 -31 5 0 8 4 4 9 -3 5 5 11 17 13 33 4 29
32 -4 36 -25 3 -28 0 -28 -27z m40 9 c0 -5 -7 -10 -16 -10 -8 0 -12 5 -9 10 3
6 10 10 16 10 5 0 9 -4 9 -10z"/>
<path d="M806 242 l-14 -27 39 0 c21 0 39 1 39 3 0 9 -34 52 -41 52 -5 0 -15
-12 -23 -28z m34 -2 c0 -5 -4 -10 -10 -10 -5 0 -10 5 -10 10 0 6 5 10 10 10 6
0 10 -4 10 -10z"/>
<path d="M886 262 c-12 -20 2 -47 27 -50 31 -4 37 17 7 25 -11 3 -20 9 -20 14
0 5 7 5 17 2 11 -4 14 -3 9 5 -8 14 -32 16 -40 4z"/>
<path d="M1223 248 c-4 -7 -8 -17 -8 -23 -1 -5 -5 -9 -10 -8 -6 1 -11 -11 -12
-25 l-1 -27 16 30 c9 17 16 32 17 35 0 3 4 11 8 18 5 6 6 12 3 12 -3 0 -8 -6
-13 -12z"/>
<path d="M1142 201 c-11 -7 -11 -9 0 -14 9 -3 15 1 15 9 0 8 -1 14 -1 14 -1 0
-7 -4 -14 -9z"/>
<path d="M1016 182 c-3 -5 1 -9 9 -9 8 0 15 4 15 9 0 4 -4 8 -9 8 -6 0 -12 -4
-15 -8z"/>
<path d="M1105 181 c-9 -15 28 -31 46 -20 12 7 12 9 -1 10 -8 1 -21 1 -29 0
-7 -2 -10 2 -6 8 3 6 4 11 1 11 -3 0 -7 -4 -11 -9z"/>
<path d="M666 162 c-2 -4 7 -8 20 -8 13 -1 24 1 24 5 0 9 -38 12 -44 3z"/>
<path d="M743 163 c4 -3 1 -13 -6 -22 -11 -14 -10 -14 5 -2 16 12 16 31 1 31
-4 0 -3 -3 0 -7z"/>
<path d="M989 149 c13 -11 26 -17 29 -14 7 6 -29 34 -43 34 -5 0 1 -9 14 -20z"/>
<path d="M840 146 c0 -2 7 -7 16 -10 8 -3 12 -2 9 4 -6 10 -25 14 -25 6z"/>
<path d="M930 136 c0 -2 7 -7 16 -10 8 -3 12 -2 9 4 -6 10 -25 14 -25 6z"/>
<path d="M545 120 c-16 -7 -17 -9 -3 -9 9 -1 20 4 23 9 7 11 7 11 -20 0z"/>
<path d="M933 888 c12 -13 24 -19 26 -14 2 5 -4 15 -15 23 -28 21 -35 15 -11
-9z"/>
<path d="M847 797 c-4 -11 0 -20 13 -27 27 -15 40 -12 39 8 0 10 -3 12 -6 5
-9 -23 -25 -14 -18 10 4 15 3 18 -3 8 -8 -11 -10 -11 -14 0 -3 9 -6 8 -11 -4z"/>
<path d="M685 983 c8 -27 2 -29 -19 -7 -15 14 -16 14 -16 -1 0 -9 -4 -13 -10
-10 -5 3 -10 2 -10 -4 0 -5 5 -13 10 -16 6 -4 8 -10 5 -15 -8 -13 6 -40 21
-40 19 0 18 29 -3 52 -9 10 -12 18 -7 18 17 0 34 -23 34 -47 0 -13 6 -23 14
-23 8 0 16 -6 19 -12 3 -10 7 -10 17 -1 15 14 3 76 -13 70 -6 -2 -15 -14 -18
-28 -5 -18 -7 -13 -6 19 0 23 -5 48 -12 55 -11 10 -12 8 -6 -10z m55 -84 c0
-5 -4 -9 -10 -9 -5 0 -10 7 -10 16 0 8 5 12 10 9 6 -3 10 -10 10 -16z"/>
<path d="M720 988 c0 -4 0 -11 0 -15 0 -15 23 -8 25 8 2 9 -4 16 -11 16 -8 0
-14 -4 -14 -9z"/>
<path d="M811 949 c-25 -34 -22 -71 4 -49 8 7 15 21 15 31 0 10 5 21 10 24 6
3 10 10 10 16 0 18 -16 9 -39 -22z"/>
<path d="M675 870 c3 -5 8 -10 11 -10 2 0 4 5 4 10 0 6 -5 10 -11 10 -5 0 -7
-4 -4 -10z"/>
<path d="M727 839 c7 -7 15 -10 18 -7 3 3 -2 9 -12 12 -14 6 -15 5 -6 -5z"/>
<path d="M727 796 c-3 -7 -1 -19 5 -27 8 -11 9 -11 4 3 -3 11 1 18 12 20 16 3
16 4 0 10 -9 4 -18 1 -21 -6z"/>
<path d="M560 875 c-6 -8 -10 -22 -8 -32 3 -13 7 -9 15 15 13 35 12 39 -7 17z"/>
<path d="M530 826 c0 -2 8 -10 18 -17 15 -13 16 -12 3 4 -13 16 -21 21 -21 13z"/>
<path d="M564 789 c-4 -7 -3 -9 4 -5 5 3 13 0 15 -6 4 -9 6 -10 6 -1 1 17 -16
25 -25 12z"/>
<path d="M606 787 c3 -10 9 -15 12 -12 3 3 0 11 -7 18 -10 9 -11 8 -5 -6z"/>
<path d="M1155 550 c3 -5 8 -10 11 -10 2 0 4 5 4 10 0 6 -5 10 -11 10 -5 0 -7
-4 -4 -10z"/>
</g>
</svg>
