<?xml version="1.0" standalone="no"?>
<!DOCTYPE svg PUBLIC "-//W3C//DTD SVG 20010904//EN"
 "http://www.w3.org/TR/2001/REC-SVG-20010904/DTD/svg10.dtd">
<svg version="1.0" xmlns="http://www.w3.org/2000/svg"
 width="300.000000pt" height="342.000000pt" viewBox="0 0 300.000000 342.000000"
 preserveAspectRatio="xMidYMid meet">
<metadata>
Created by potrace 1.10, written by Peter Selinger 2001-2011
</metadata>
<g transform="translate(0.000000,342.000000) scale(0.100000,-0.100000)"
fill="#ffffff" stroke="none">
<path d="M1448 3383 c7 -3 16 -2 19 1 4 3 -2 6 -13 5 -11 0 -14 -3 -6 -6z"/>
<path d="M1508 3383 c7 -3 16 -2 19 1 4 3 -2 6 -13 5 -11 0 -14 -3 -6 -6z"/>
<path d="M1548 3383 c6 -2 18 -2 25 0 6 3 1 5 -13 5 -14 0 -19 -2 -12 -5z"/>
<path d="M1374 3368 c-4 -6 -52 -13 -139 -21 -17 -2 -36 -7 -43 -11 -6 -3 -32
-7 -58 -8 -29 0 -41 -4 -33 -9 9 -6 1 -9 -24 -9 -21 0 -36 -4 -33 -9 3 -5 -11
-12 -32 -15 -60 -11 -103 -27 -97 -37 4 -5 -3 -9 -13 -9 -11 0 -25 -6 -32 -14
-6 -8 -19 -12 -27 -9 -10 4 -14 2 -10 -4 4 -6 0 -14 -9 -17 -8 -3 -12 -2 -9 4
3 5 -1 7 -9 4 -8 -3 -17 -12 -20 -20 -3 -8 -12 -14 -21 -14 -8 0 -15 -5 -15
-10 0 -6 -3 -9 -7 -9 -20 3 -34 -2 -29 -10 3 -5 -5 -11 -17 -15 -13 -3 -33
-13 -44 -23 -12 -10 -34 -27 -49 -38 -33 -24 -215 -206 -261 -261 -18 -22 -38
-54 -45 -71 -7 -18 -16 -33 -20 -33 -4 0 -8 -7 -8 -15 0 -8 -4 -15 -10 -15 -5
0 -10 -6 -10 -14 0 -8 -7 -17 -16 -20 -8 -3 -12 -11 -9 -17 4 -5 0 -18 -8 -27
-15 -18 -28 -46 -33 -72 -2 -8 -7 -16 -13 -18 -5 -2 -7 -10 -4 -19 4 -9 2 -14
-3 -10 -6 3 -16 -15 -23 -41 -7 -26 -15 -54 -18 -62 -3 -8 -8 -24 -10 -35 -2
-11 -8 -22 -13 -23 -6 -2 -8 -7 -6 -11 3 -3 -1 -36 -9 -71 -7 -36 -16 -93 -20
-127 -4 -35 -10 -63 -13 -63 -4 0 -7 -63 -7 -139 0 -81 4 -137 9 -133 5 3 7
-4 4 -16 -3 -12 -2 -22 2 -24 5 -2 10 -28 12 -58 1 -30 6 -58 11 -61 4 -3 9
-28 10 -56 1 -28 5 -46 9 -40 5 7 8 0 8 -15 0 -15 4 -30 10 -33 5 -3 10 -16
10 -28 0 -33 23 -91 43 -112 15 -14 16 -20 6 -26 -10 -6 -10 -9 4 -15 9 -3 14
-10 12 -15 -3 -5 3 -16 14 -25 10 -9 17 -22 15 -29 -3 -7 2 -15 10 -18 9 -4
16 -16 16 -27 0 -12 4 -18 10 -15 5 3 10 -3 10 -14 0 -12 3 -21 8 -21 4 0 13
-13 20 -28 6 -15 29 -46 49 -67 20 -22 36 -43 35 -47 -1 -3 14 -20 34 -37 19
-17 32 -31 28 -31 -4 0 6 -10 22 -23 16 -12 49 -43 73 -69 24 -26 47 -45 52
-43 4 3 14 -3 21 -13 19 -25 113 -92 131 -92 8 0 21 -9 28 -20 8 -11 25 -21
38 -23 14 -2 27 -9 29 -15 2 -6 10 -8 18 -5 8 3 14 0 14 -7 0 -6 4 -9 9 -6 5
3 12 -2 15 -11 6 -14 9 -15 15 -4 7 11 11 9 20 -8 7 -11 8 -21 4 -21 -4 0
-200 0 -434 0 -467 1 -437 4 -445 -55 -10 -67 -12 -435 -3 -429 6 3 13 -3 16
-15 l5 -21 1427 0 c1105 1 1430 3 1442 13 14 10 16 43 18 218 1 128 -2 223 -9
249 l-11 41 -433 -2 c-239 -1 -438 1 -444 5 -6 3 -18 3 -29 0 -15 -5 -15 -4
-3 5 8 6 23 8 34 5 11 -4 16 -2 12 4 -3 5 1 13 10 16 8 3 12 2 9 -4 -9 -15 -5
-13 71 25 38 19 62 35 54 35 -13 0 -13 2 0 9 8 6 18 7 22 5 4 -3 8 -1 8 4 0 6
10 12 23 16 12 3 32 14 45 26 12 11 23 19 24 18 7 -6 47 29 41 35 -3 4 0 7 9
7 14 0 100 72 145 122 7 7 18 18 25 25 34 31 71 75 58 69 -8 -4 -3 2 13 14 15
12 27 28 27 36 0 8 4 14 9 14 12 0 81 106 81 125 0 8 5 15 10 15 6 0 10 7 10
16 0 8 5 12 10 9 6 -3 10 3 10 14 0 11 6 26 13 33 6 7 12 19 13 26 2 29 5 33
14 27 10 -6 14 7 11 33 -1 6 3 12 9 12 6 0 10 6 9 13 -4 29 2 48 12 41 8 -4 9
1 4 17 -4 13 -4 20 1 16 8 -8 33 72 34 111 0 13 4 21 8 18 5 -3 8 3 8 12 0 56
5 83 14 77 6 -4 9 5 8 22 -4 56 2 144 10 140 4 -3 4 52 0 121 -4 70 -8 158 -9
197 -1 45 -5 63 -10 50 -7 -18 -8 -17 -8 6 -1 14 -5 39 -10 55 -5 16 -15 57
-22 91 -7 34 -17 59 -22 56 -5 -3 -6 4 -2 17 5 15 4 20 -4 16 -9 -6 -16 16 -8
28 1 2 -7 13 -17 25 -13 15 -15 21 -6 21 9 0 5 9 -9 24 -13 14 -20 29 -17 34
3 6 -1 12 -9 16 -8 3 -15 17 -15 31 0 15 -4 24 -10 20 -5 -3 -10 1 -10 9 0 9
-5 16 -11 16 -6 0 -9 6 -6 14 3 8 3 16 -1 18 -4 2 -23 27 -42 55 -19 29 -38
53 -42 53 -5 0 -8 7 -8 15 0 8 -3 15 -7 15 -5 0 -16 14 -25 31 -10 17 -22 27
-28 24 -5 -3 -10 0 -10 7 0 14 -132 148 -145 148 -4 0 -18 10 -30 23 -30 29
-43 39 -82 62 -18 11 -33 23 -33 27 0 4 -9 8 -21 8 -11 0 -17 5 -14 10 5 9 -9
15 -18 8 -2 -2 -11 5 -21 14 -9 9 -23 15 -31 12 -9 -4 -15 0 -15 10 0 16 -11
20 -39 17 -7 -2 -10 2 -7 8 4 5 2 12 -4 16 -5 3 -10 1 -10 -5 0 -6 -5 -8 -10
-5 -6 4 -7 11 -4 17 5 7 0 9 -14 6 -12 -4 -20 -3 -17 1 5 9 -62 31 -94 31 -13
0 -19 4 -16 10 4 6 3 10 -2 9 -4 -1 -21 -1 -38 0 -24 1 -27 3 -15 12 12 9 11
10 -8 6 -12 -3 -50 1 -85 8 -34 7 -91 16 -127 20 -36 4 -57 10 -48 14 10 3
-46 6 -123 6 -78 0 -143 -3 -145 -7z m406 -47 c442 -88 823 -384 1014 -785
193 -403 189 -868 -10 -1267 -89 -178 -257 -379 -421 -503 -131 -98 -318 -191
-468 -231 -44 -12 18 -14 495 -14 l545 -1 0 -230 0 -230 -1432 0 -1433 0 0
230 0 230 548 1 c301 1 538 3 527 6 -140 31 -364 139 -496 238 -169 126 -330
319 -424 505 -270 536 -174 1191 238 1626 226 240 521 393 843 439 127 18 346
12 474 -14z m-805 -2761 c3 -5 1 -10 -4 -10 -6 0 -11 5 -11 10 0 6 2 10 4 10
3 0 8 -4 11 -10z"/>
<path d="M1372 3279 c-325 -31 -621 -175 -851 -415 -620 -643 -476 -1678 298
-2137 231 -137 522 -202 798 -178 332 30 599 152 839 383 195 189 313 395 382
667 24 97 27 123 27 306 0 215 -9 284 -61 442 -68 209 -171 372 -343 543 -233
231 -507 358 -838 390 -118 11 -130 11 -251 -1z m284 -18 c-4 -5 14 -9 39 -9
24 0 49 -4 56 -7 6 -4 29 -9 50 -10 82 -7 335 -106 369 -145 9 -11 20 -17 23
-14 3 3 33 -13 67 -36 41 -28 58 -45 50 -50 -9 -5 -9 -9 -1 -14 6 -4 11 -2 11
4 0 7 6 10 13 7 6 -2 11 -13 10 -23 -1 -10 0 -13 3 -6 8 18 27 15 20 -4 -3 -9
-2 -12 5 -9 17 11 194 -176 258 -275 61 -93 65 -100 62 -132 -1 -10 4 -18 13
-18 16 0 28 -23 69 -130 72 -187 104 -446 77 -640 -21 -156 -105 -430 -132
-430 -5 0 -6 -4 -3 -10 3 -5 0 -10 -8 -10 -10 0 -13 -7 -10 -19 8 -31 -15 -34
-31 -4 -8 15 -15 22 -16 14 0 -8 7 -23 16 -32 16 -17 14 -23 -26 -84 -32 -48
-46 -63 -52 -53 -6 9 -7 6 -3 -9 5 -18 -14 -42 -107 -138 -123 -126 -177 -168
-205 -159 -14 5 -15 4 -4 -4 10 -8 1 -18 -41 -45 -49 -31 -90 -50 -110 -52 -5
0 -8 -4 -7 -9 1 -20 -201 -92 -342 -123 -125 -27 -418 -25 -549 4 -96 22 -180
49 -257 84 -24 10 -47 19 -53 19 -5 0 -10 4 -10 8 0 5 -17 16 -37 25 -85 36
-207 122 -197 138 3 5 -2 9 -10 9 -9 0 -16 5 -16 10 0 6 -4 9 -8 8 -10 -4 -72
48 -72 58 0 5 5 3 12 -4 7 -7 16 -12 21 -12 6 0 -2 11 -17 25 -30 28 -46 34
-26 10 7 -8 8 -15 3 -15 -6 0 -20 12 -31 28 -12 15 -40 47 -62 72 -59 65 -123
167 -114 181 4 8 3 9 -4 5 -8 -5 -12 1 -12 14 0 12 -4 19 -9 16 -12 -8 -85
155 -115 259 -14 50 -28 122 -32 160 -4 39 -11 75 -16 82 -13 17 -3 294 15
396 28 158 129 423 150 395 6 -9 7 -7 3 5 -6 20 3 36 87 155 33 46 62 81 65
78 3 -3 14 8 24 25 11 17 23 27 30 23 6 -4 8 -3 5 3 -9 14 86 100 103 95 8 -3
10 0 5 7 -8 14 0 21 97 87 37 25 72 42 78 39 13 -8 42 14 35 25 -12 19 281
130 352 134 21 1 44 5 51 10 8 5 31 8 53 8 21 -1 39 3 39 9 0 5 65 9 156 9 91
0 153 -4 150 -9z"/>
<path d="M1608 3253 c7 -3 16 -2 19 1 4 3 -2 6 -13 5 -11 0 -14 -3 -6 -6z"/>
<path d="M1610 3220 c-9 -6 -10 -10 -3 -10 6 0 15 5 18 10 8 12 4 12 -15 0z"/>
<path d="M1660 3220 c0 -5 5 -10 11 -10 5 0 7 5 4 10 -3 6 -8 10 -11 10 -2 0
-4 -4 -4 -10z"/>
<path d="M1180 3206 c0 -2 13 -6 29 -8 17 -2 28 -1 25 4 -5 8 -54 12 -54 4z"/>
<path d="M1461 3191 c-11 -11 -22 -16 -26 -13 -4 4 -5 -11 -3 -33 2 -22 8 -40
15 -40 6 0 15 -3 19 -7 11 -12 52 -10 59 3 4 6 13 8 20 6 8 -4 11 6 10 34 -4
62 -55 89 -94 50z m69 -15 c6 -8 10 -25 8 -38 -4 -32 -62 -39 -78 -9 -23 44
38 85 70 47z"/>
<path d="M1798 3203 c12 -2 30 -2 40 0 9 3 -1 5 -23 4 -22 0 -30 -2 -17 -4z"/>
<path d="M1319 3179 c-16 -16 -20 -29 -15 -50 3 -16 1 -29 -4 -29 -5 0 -11 10
-13 23 -5 19 -5 19 -4 -3 1 -14 8 -25 17 -26 8 0 22 -3 30 -7 31 -11 60 -15
55 -7 -3 5 1 12 9 17 26 15 30 59 7 82 -27 27 -55 27 -82 0z m65 -2 c23 -17
18 -55 -11 -74 -19 -13 -24 -12 -42 6 -26 26 -26 36 -1 61 24 24 30 24 54 7z"/>
<path d="M1605 3183 c-14 -14 -18 -14 -26 -2 -5 9 -7 1 -5 -23 4 -47 45 -93
75 -83 25 8 84 92 70 100 -5 4 -9 -1 -9 -11 0 -13 -5 -11 -25 10 -28 30 -56
33 -80 9z m65 -13 c24 -24 24 -30 7 -54 -17 -23 -55 -18 -74 11 -13 19 -12 24
6 42 26 26 36 26 61 1z"/>
<path d="M1885 3190 c-3 -5 1 -10 10 -10 9 0 13 5 10 10 -3 6 -8 10 -10 10 -2
0 -7 -4 -10 -10z"/>
<path d="M1108 3183 c7 -3 16 -2 19 1 4 3 -2 6 -13 5 -11 0 -14 -3 -6 -6z"/>
<path d="M1162 3136 c-2 -52 16 -76 57 -76 36 0 51 17 51 56 0 41 -21 57 -65
52 -19 -2 -36 0 -38 5 -1 5 -3 -12 -5 -37z m86 12 c26 -26 8 -78 -27 -78 -18
0 -51 29 -51 46 0 34 54 56 78 32z"/>
<path d="M1739 3149 c-27 -29 -28 -32 -13 -55 18 -26 54 -40 80 -30 9 4 23 1
30 -5 9 -7 14 -8 14 -1 0 6 -5 12 -12 14 -8 3 -8 9 0 23 18 33 -19 85 -60 85
-5 0 -23 -14 -39 -31z m83 -14 c10 -22 9 -29 -9 -46 -26 -26 -60 -18 -69 17
-13 52 56 77 78 29z"/>
<path d="M1035 3160 c3 -5 10 -10 16 -10 5 0 9 5 9 10 0 6 -7 10 -16 10 -8 0
-12 -4 -9 -10z"/>
<path d="M1935 3160 c-3 -5 1 -10 9 -10 9 0 16 5 16 10 0 6 -4 10 -9 10 -6 0
-13 -4 -16 -10z"/>
<path d="M1090 3150 c0 -5 7 -10 15 -10 8 0 15 5 15 10 0 6 -7 10 -15 10 -8 0
-15 -4 -15 -10z"/>
<path d="M1880 3150 c0 -5 5 -10 10 -10 6 0 10 5 10 10 0 6 -4 10 -10 10 -5 0
-10 -4 -10 -10z"/>
<path d="M980 3140 c0 -5 7 -7 15 -4 8 4 15 8 15 10 0 2 -7 4 -15 4 -8 0 -15
-4 -15 -10z"/>
<path d="M2015 3140 c3 -5 8 -10 11 -10 2 0 4 5 4 10 0 6 -5 10 -11 10 -5 0
-7 -4 -4 -10z"/>
<path d="M938 3132 c-10 -2 -18 -8 -18 -13 0 -11 11 -11 30 1 18 11 11 18 -12
12z"/>
<path d="M1887 3120 c-32 -25 -34 -49 -9 -80 15 -19 24 -22 55 -16 29 5 37 12
42 36 6 29 -8 70 -25 70 -4 0 -15 2 -22 5 -8 3 -26 -4 -41 -15z m57 -6 c21 -8
21 -57 1 -74 -23 -19 -65 2 -65 33 0 38 27 55 64 41z"/>
<path d="M1036 3108 c-9 -14 -13 -39 -11 -62 4 -37 15 -64 15 -34 0 11 8 13
33 10 17 -3 36 -10 40 -16 6 -7 7 -4 3 6 -3 10 2 23 12 30 25 19 21 50 -8 70
-34 24 -67 22 -84 -4z m80 -9 c20 -22 13 -43 -19 -63 -36 -23 -75 36 -47 70
17 20 44 17 66 -7z"/>
<path d="M2060 3120 c0 -5 5 -10 10 -10 6 0 10 5 10 10 0 6 -4 10 -10 10 -5 0
-10 -4 -10 -10z"/>
<path d="M878 3103 c7 -3 16 -2 19 1 4 3 -2 6 -13 5 -11 0 -14 -3 -6 -6z"/>
<path d="M995 3100 c3 -5 8 -10 11 -10 2 0 4 5 4 10 0 6 -5 10 -11 10 -5 0 -7
-4 -4 -10z"/>
<path d="M2108 3103 c6 -2 18 -2 25 0 6 3 1 5 -13 5 -14 0 -19 -2 -12 -5z"/>
<path d="M1405 3080 c-3 -5 -1 -10 4 -10 6 0 11 5 11 10 0 6 -2 10 -4 10 -3 0
-8 -4 -11 -10z"/>
<path d="M925 3068 c-53 -30 -44 -89 16 -110 26 -10 61 25 65 64 3 28 0 37
-13 41 -10 2 -25 7 -33 11 -8 3 -24 0 -35 -6z m53 -20 c21 -21 14 -57 -14 -70
-23 -11 -29 -10 -45 11 -23 28 -23 35 -3 55 18 19 45 21 62 4z"/>
<path d="M2022 3069 c-29 -11 -37 -34 -23 -65 15 -34 49 -48 84 -35 26 10 28
15 25 58 -3 46 -4 48 -33 49 -16 1 -40 -2 -53 -7z m69 -30 c14 -26 -5 -59 -34
-59 -47 0 -63 48 -26 74 25 17 45 12 60 -15z"/>
<path d="M1256 3055 c-11 -8 -15 -15 -9 -15 6 0 16 7 23 15 16 19 11 19 -14 0z"/>
<path d="M790 3052 c0 -4 9 -13 20 -20 11 -7 20 -9 20 -4 0 4 -9 13 -20 20
-11 7 -20 9 -20 4z"/>
<path d="M1711 3056 c12 -10 60 -16 54 -6 -3 5 -18 10 -32 10 -15 0 -24 -2
-22 -4z"/>
<path d="M1354 3039 c-73 -10 -188 -41 -281 -77 -28 -11 -55 -17 -59 -13 -4 3
-5 1 -1 -4 3 -6 -9 -17 -26 -25 -18 -7 -63 -34 -100 -59 -38 -25 -79 -52 -93
-59 -13 -7 -24 -18 -24 -23 0 -6 -8 -5 -21 1 -11 7 -23 9 -27 6 -3 -3 1 -6 8
-6 10 0 11 -3 3 -11 -6 -6 -9 -18 -6 -25 7 -18 -11 -18 -26 0 -8 10 -9 16 -1
21 12 8 4 25 -13 25 -8 0 -7 -3 2 -9 11 -7 11 -9 0 -13 -11 -4 -10 -9 4 -25
21 -24 22 -37 3 -30 -11 4 -13 1 -9 -10 5 -12 1 -14 -18 -8 -20 7 -22 6 -11
-7 10 -13 9 -18 -3 -28 -13 -11 -15 -10 -10 6 4 10 -4 0 -17 -23 -13 -24 -44
-73 -69 -110 -25 -38 -49 -77 -53 -88 -8 -19 -8 -19 -17 3 -4 12 -14 22 -20
22 -8 0 -8 5 1 15 10 13 15 13 21 3 4 -7 11 -9 16 -5 4 5 3 11 -3 15 -17 11
-11 52 8 58 28 9 21 23 -9 20 -16 -2 -36 1 -46 6 -24 13 -54 1 -73 -28 -15
-22 -15 -26 2 -51 10 -16 17 -32 16 -36 -1 -5 2 -6 8 -2 22 14 68 -6 74 -31 9
-33 -1 -49 -20 -33 -10 8 -14 8 -14 0 0 -6 5 -11 11 -11 11 0 6 -23 -16 -75
-7 -16 -18 -50 -25 -75 -68 -240 -63 -453 15 -691 19 -57 30 -106 24 -107 -5
-2 -6 -8 -3 -14 4 -6 9 -6 14 3 6 8 13 1 23 -23 8 -20 37 -68 63 -107 27 -39
56 -85 65 -101 9 -16 19 -27 23 -23 3 3 6 1 6 -5 0 -6 -5 -14 -10 -17 -6 -3
-10 -11 -10 -18 0 -6 6 -2 14 9 8 10 18 15 22 11 5 -4 3 -12 -5 -16 -9 -6 -6
-14 14 -30 21 -16 25 -24 17 -34 -9 -10 -8 -17 1 -26 9 -11 9 -14 -1 -18 -6
-3 -10 -9 -6 -14 3 -5 -5 -8 -18 -6 -21 2 -23 -2 -24 -41 0 -23 3 -37 7 -31 4
8 11 4 18 -10 9 -15 21 -21 46 -21 33 0 33 -1 25 -30 -5 -18 -5 -30 1 -30 5 0
10 11 10 25 2 37 3 43 12 51 25 25 -14 111 -45 99 -10 -4 -13 2 -12 22 2 48 4
53 19 47 11 -5 13 -10 5 -19 -7 -8 -4 -17 10 -30 21 -19 28 -7 8 13 -28 28 10
9 41 -20 92 -86 272 -178 431 -221 107 -28 127 -30 285 -30 158 0 177 2 280
30 61 16 117 32 125 34 8 2 17 6 20 9 3 3 36 20 73 39 38 19 95 51 128 72 33
22 64 39 70 39 6 0 7 4 4 10 -4 6 4 9 17 7 15 -1 23 3 23 13 0 8 8 24 18 35
15 17 19 18 28 5 8 -12 9 -10 4 8 -8 26 10 30 24 5 10 -17 10 -17 11 0 0 9 -5
17 -11 17 -5 0 -7 5 -4 10 5 8 11 8 20 0 9 -8 15 -8 20 0 3 5 -1 10 -9 10 -9
0 -16 4 -16 9 0 13 31 36 49 36 11 0 15 8 14 22 -2 13 2 23 7 23 6 0 10 -4 10
-10 0 -5 5 -10 11 -10 8 0 8 4 0 14 -10 12 -9 20 5 42 17 24 19 25 26 8 7 -15
7 -14 4 5 -4 17 6 44 28 80 42 70 66 120 66 137 0 7 4 14 9 16 11 4 58 195 72
293 6 44 8 121 5 170 -8 114 -49 307 -79 370 -8 17 -23 48 -33 70 -10 22 -30
60 -46 85 -17 30 -25 55 -22 70 3 19 3 21 -4 7 -7 -16 -10 -17 -19 -5 -24 28
-35 71 -21 80 9 7 4 8 -14 5 -22 -3 -37 6 -84 54 -51 52 -56 60 -43 75 13 16
12 16 -8 6 -25 -14 -36 -15 -30 -4 5 7 -24 40 -30 35 -11 -10 -13 0 -3 12 8 9
8 15 2 15 -6 0 -12 -4 -14 -10 -1 -5 -30 8 -63 30 -33 23 -76 48 -95 57 -19 9
-37 20 -40 24 -3 4 -21 11 -40 17 -19 6 -59 20 -88 31 -129 48 -355 71 -508
50z m429 -42 c111 -29 254 -94 348 -157 89 -60 247 -220 304 -308 421 -653 90
-1505 -661 -1704 -78 -20 -112 -23 -269 -23 -157 0 -191 3 -270 24 -428 112
-736 438 -825 872 -30 143 -24 347 14 492 29 113 103 273 169 366 161 228 409
390 692 451 132 29 362 23 498 -13z m-1023 -231 c0 -3 -4 -8 -10 -11 -5 -3
-10 -1 -10 4 0 6 5 11 10 11 6 0 10 -2 10 -4z m1634 -142 c3 -8 2 -12 -4 -9
-6 3 -10 10 -10 16 0 14 7 11 14 -7z m-1920 -76 c14 -23 -3 -52 -33 -56 -42
-6 -67 38 -39 66 17 17 58 11 72 -10z m1916 -1358 c0 -5 -5 -10 -11 -10 -5 0
-7 5 -4 10 3 6 8 10 11 10 2 0 4 -4 4 -10z m-1692 -70 c12 -19 11 -20 -8 -8
-20 13 -27 28 -12 28 4 0 13 -9 20 -20z m1542 -80 c0 -5 -5 -10 -11 -10 -5 0
-7 5 -4 10 3 6 8 10 11 10 2 0 4 -4 4 -10z m-1570 -39 c0 -6 -4 -13 -10 -16
-5 -3 -10 1 -10 9 0 9 5 16 10 16 6 0 10 -4 10 -9z m74 -7 c9 -8 16 -22 16
-29 0 -16 -27 -45 -41 -45 -24 0 -49 22 -49 43 0 44 43 62 74 31z"/>
<path d="M1355 2974 c-11 -2 -45 -9 -75 -15 -30 -6 -86 -22 -125 -35 -354
-125 -604 -407 -697 -784 -18 -74 -18 -376 0 -450 78 -316 265 -567 534 -714
269 -148 621 -170 904 -56 344 138 589 437 659 805 20 104 19 276 -1 384 -81
434 -421 774 -853 855 -76 15 -292 20 -346 10z m295 -19 c47 -7 72 -14 55 -15
-28 -3 -28 -3 -5 -7 14 -2 32 -7 40 -10 8 -4 35 -8 60 -9 25 -1 50 -3 55 -3 6
-1 3 -6 -5 -12 -12 -8 -9 -9 12 -5 49 11 241 -99 358 -204 30 -27 51 -52 47
-57 -5 -4 -12 -2 -16 6 -7 10 -9 10 -14 -2 -4 -12 1 -15 21 -12 23 3 34 -6 75
-59 33 -44 45 -69 41 -81 -4 -9 -2 -20 4 -24 6 -3 13 -20 16 -36 3 -17 3 -23
0 -15 -16 37 -97 141 -107 137 -7 -2 -13 -13 -15 -25 -2 -12 -8 -22 -13 -22
-11 0 -11 -2 0 36 8 29 7 32 -16 32 -16 0 -27 -7 -30 -19 -6 -23 -30 -31 -54
-19 -21 12 -26 30 -6 30 9 0 8 3 -2 9 -7 5 -10 14 -6 20 5 9 10 9 20 1 9 -8
15 -8 20 0 3 5 2 10 -4 10 -6 0 -8 16 -6 38 2 20 1 31 -1 25 -3 -7 -20 -13
-37 -12 l-32 1 28 11 c20 8 26 16 21 29 -6 22 14 24 22 3 4 -8 11 -15 18 -15
11 1 -91 100 -102 100 -3 0 9 -16 28 -35 39 -41 29 -47 -15 -9 -16 14 -40 30
-52 35 -16 6 -21 14 -16 25 5 14 2 16 -20 10 -14 -3 -29 -2 -32 4 -3 5 -1 10
4 10 6 0 11 5 11 10 0 6 -7 10 -15 10 -8 0 -15 -4 -15 -9 0 -5 -36 6 -79 24
-204 86 -460 99 -685 34 -21 -6 -73 -27 -115 -46 -42 -20 -87 -35 -100 -34
-17 1 -22 -3 -17 -14 3 -10 -1 -18 -12 -22 -9 -3 -36 -22 -60 -41 -45 -36 -72
-38 -31 -2 19 17 20 19 4 11 -11 -5 -29 -19 -40 -31 -16 -18 -16 -20 -2 -14
12 4 17 1 17 -10 0 -9 8 -16 19 -16 34 0 33 -19 -1 -22 -28 -3 -33 -7 -33 -30
-1 -20 4 -27 15 -25 24 3 26 -49 1 -62 -26 -14 -56 -4 -41 14 8 9 8 15 0 20
-5 3 -10 0 -10 -7 0 -10 -2 -10 -9 1 -16 25 -44 4 -39 -30 3 -16 1 -32 -4 -35
-4 -3 -8 3 -8 13 0 10 -4 24 -9 32 -8 12 -12 12 -25 2 -19 -16 -22 -1 -4 17 9
9 9 12 0 12 -6 0 -16 -9 -22 -20 -8 -14 -8 -20 0 -20 7 0 6 -7 -2 -21 -7 -12
-19 -31 -25 -43 l-13 -21 0 21 c0 12 7 27 15 34 8 7 12 17 9 22 -9 14 -36 -44
-30 -65 3 -14 0 -17 -11 -13 -11 5 -14 1 -11 -12 3 -10 -7 -43 -23 -73 -15
-30 -28 -46 -29 -37 0 9 5 20 10 23 12 7 13 25 2 25 -14 0 -33 -63 -21 -70 7
-5 5 -18 -5 -41 -10 -21 -15 -25 -12 -11 2 12 0 22 -5 22 -5 0 -8 -17 -7 -37
1 -21 -7 -80 -16 -131 -21 -110 -18 -320 6 -422 9 -36 13 -80 11 -97 -3 -21
-1 -33 6 -33 7 0 9 11 6 28 l-5 27 11 -25 c6 -14 22 -48 35 -77 14 -32 19 -55
14 -58 -6 -4 -7 -11 -4 -17 4 -6 10 -5 15 3 7 12 9 11 10 -1 4 -55 19 -92 34
-86 7 2 22 -9 34 -24 25 -35 59 -56 58 -37 -1 36 4 57 13 52 5 -3 7 -19 3 -35
-5 -25 -2 -31 21 -40 37 -14 39 -13 33 10 -7 28 16 44 42 30 27 -14 27 -56 1
-72 -27 -17 -26 -48 1 -48 18 0 19 -3 9 -15 -7 -8 -10 -22 -6 -30 8 -21 -11
-19 -23 3 -6 9 -11 12 -11 5 0 -6 19 -28 42 -47 42 -36 71 -49 48 -21 -19 23
-7 18 50 -20 29 -19 46 -35 39 -35 -8 0 -5 -6 7 -15 10 -8 33 -15 49 -15 17 0
35 -4 40 -9 6 -5 45 -20 87 -33 60 -19 75 -27 66 -36 -9 -9 -7 -12 11 -12 14
0 20 4 15 11 -5 8 0 10 17 6 14 -4 67 -11 119 -17 116 -13 247 0 370 37 47 14
102 27 123 28 39 2 65 15 31 15 -16 0 -16 2 -4 10 8 5 25 7 37 3 14 -3 23 -1
23 6 0 6 9 11 19 11 11 0 23 5 26 10 4 7 -3 9 -22 4 -23 -5 -22 -2 12 16 69
38 135 92 135 111 0 5 -8 9 -17 9 -15 0 -16 2 -3 10 8 5 23 7 32 4 22 -7 14
21 -15 53 -17 19 -18 23 -5 23 9 0 19 -6 21 -12 4 -10 6 -10 6 0 1 8 -8 16
-19 19 -21 6 -27 28 -9 38 6 4 17 -1 25 -11 14 -18 15 -18 9 6 l-6 25 24 -28
c31 -36 62 -28 53 14 -3 16 -1 29 4 29 6 0 10 -9 10 -19 0 -31 21 -36 42 -11
16 20 21 21 28 10 5 -8 12 -11 16 -7 4 3 2 13 -4 20 -9 10 -8 19 4 35 8 12 22
35 31 50 l15 27 -7 -28 c-4 -20 -2 -27 6 -22 6 4 9 19 5 36 -4 23 -2 27 10 22
12 -5 15 -1 10 13 -3 10 -1 26 4 34 8 13 10 12 10 -3 0 -10 4 -16 8 -13 5 3 7
18 5 33 -2 15 2 46 10 68 l15 40 11 -29 c10 -26 7 -39 -39 -132 -39 -81 -53
-102 -66 -97 -13 5 -15 2 -10 -14 4 -13 -8 -37 -40 -81 -44 -59 -64 -75 -64
-51 0 5 -5 7 -11 3 -8 -4 -7 -9 2 -15 11 -7 9 -13 -9 -31 -16 -16 -25 -20 -30
-11 -5 8 -23 -2 -56 -33 -27 -24 -44 -44 -40 -44 5 0 26 16 47 36 21 20 41 33
45 29 7 -7 -25 -37 -95 -86 -24 -17 -43 -25 -43 -19 0 5 -5 10 -11 10 -6 0 -9
-7 -5 -15 6 -17 -36 -42 -144 -87 -45 -19 -69 -24 -82 -17 -10 5 -19 5 -23 0
-3 -5 3 -11 12 -14 29 -6 -65 -29 -134 -32 -34 -2 -67 -6 -72 -10 -16 -9 -216
-9 -231 0 -7 5 -40 9 -73 11 -33 1 -81 8 -105 15 -38 10 -42 14 -26 21 14 6
11 7 -11 4 -17 -3 -37 -1 -45 5 -11 6 -12 9 -2 9 7 0 10 5 7 10 -5 8 -11 7
-21 -1 -11 -9 -30 -3 -91 28 -42 22 -79 46 -81 54 -4 11 -2 12 9 2 7 -7 18
-13 23 -13 6 0 0 7 -12 16 -13 9 -30 13 -39 10 -16 -7 -68 31 -160 118 -52 48
-67 74 -38 62 9 -3 1 12 -16 34 -18 22 -35 38 -37 35 -3 -3 4 -15 16 -28 30
-32 28 -46 -3 -17 -14 13 -25 31 -24 40 2 27 -1 35 -10 22 -5 -9 -21 9 -50 60
-23 40 -38 74 -32 76 5 2 7 10 4 18 -4 11 -8 12 -13 4 -10 -16 -64 115 -56
136 4 10 0 24 -9 34 -18 20 -44 180 -45 269 0 87 21 223 40 263 10 20 16 46
13 58 -13 50 196 404 227 385 10 -6 80 58 80 72 0 4 -18 -11 -40 -32 -22 -21
-40 -34 -40 -27 0 14 151 144 201 172 120 69 186 98 214 93 23 -3 27 -2 15 6
-16 12 -14 12 57 15 17 0 35 5 40 10 5 5 3 6 -4 2 -7 -4 -13 -3 -13 3 0 6 17
9 43 7 23 -2 31 -1 17 2 -35 7 105 29 195 30 39 0 108 -6 155 -13z m100 -68
c119 -31 228 -81 327 -149 60 -42 72 -54 56 -56 -26 -4 -47 -27 -38 -42 3 -5
17 -7 30 -4 38 9 49 -5 20 -28 -29 -22 -32 -44 -9 -76 22 -32 67 -30 83 5 9
19 15 23 23 15 8 -8 8 -15 -2 -26 -16 -20 -6 -46 19 -46 14 0 21 9 26 32 l7
31 45 -69 c153 -237 203 -499 148 -769 -27 -129 -79 -248 -164 -374 l-29 -43
-7 31 c-5 22 -12 31 -26 31 -25 0 -35 -26 -19 -46 9 -10 10 -18 3 -25 -7 -7
-16 -2 -27 15 -21 33 -59 34 -80 4 -23 -32 -20 -54 9 -76 34 -27 31 -34 -12
-30 -29 2 -38 -1 -41 -14 -2 -12 6 -19 28 -25 l31 -8 -51 -38 c-345 -258 -833
-261 -1181 -7 -50 36 -58 46 -41 48 24 4 46 27 38 41 -4 5 -22 7 -41 4 -42 -7
-44 0 -9 31 23 19 26 26 17 51 -5 16 -16 33 -25 38 -22 15 -66 0 -73 -24 -6
-17 -9 -18 -16 -8 -4 7 -4 18 2 25 14 17 0 44 -22 44 -14 0 -21 -9 -26 -31
l-6 -30 -32 46 c-236 331 -244 783 -20 1126 52 80 52 81 58 50 5 -22 12 -31
26 -31 26 0 34 15 22 38 -5 10 -6 24 -2 30 5 9 11 5 19 -13 23 -49 102 -21
102 36 0 10 -11 27 -25 37 -29 23 -19 36 18 26 14 -3 28 -1 32 6 9 15 -12 38
-38 42 -16 2 -4 14 56 56 129 89 274 147 433 172 97 15 277 4 384 -23z m689
-488 c22 -45 38 -86 35 -90 -3 -5 -1 -9 4 -9 14 0 24 -31 13 -44 -9 -11 -7
-43 3 -54 3 -3 6 5 6 18 0 35 9 20 25 -44 9 -32 13 -80 11 -108 -4 -37 -1 -51
10 -55 8 -3 14 -12 14 -20 0 -8 -5 -11 -12 -7 -10 6 -10 4 0 -7 13 -14 17 -33
5 -26 -5 3 -8 -15 -8 -39 0 -24 3 -44 8 -44 4 0 7 -12 7 -27 0 -20 -3 -24 -9
-14 -11 18 -25 -59 -16 -89 3 -11 -2 -53 -12 -92 -13 -54 -19 -66 -21 -45 -2
16 -8 25 -14 21 -6 -4 -8 1 -5 12 22 82 29 120 35 192 7 74 2 191 -13 282 -4
26 -3 31 4 20 9 -12 11 -11 11 7 0 25 -16 39 -23 21 -3 -7 -6 -3 -6 8 -1 12
-8 38 -16 59 -13 30 -14 40 -3 53 11 13 11 15 -4 10 -19 -8 -32 24 -16 40 6 6
6 12 -1 16 -6 4 -11 2 -11 -4 0 -6 -5 -8 -10 -5 -6 3 -7 18 -4 32 5 20 4 25
-7 21 -10 -4 -14 2 -14 21 -1 14 -4 36 -9 49 -16 46 4 19 43 -59z m-1549
-1294 c14 -16 10 -18 -14 -9 -9 3 -16 10 -16 15 0 14 16 11 30 -6z"/>
<path d="M1448 2943 c28 -2 76 -2 105 0 28 2 5 3 -53 3 -58 0 -81 -1 -52 -3z"/>
<path d="M1096 2871 c-4 -5 1 -8 9 -7 21 3 31 16 12 16 -9 0 -18 -4 -21 -9z"/>
<path d="M1880 2876 c0 -2 9 -6 20 -9 11 -3 18 -1 14 4 -5 9 -34 13 -34 5z"/>
<path d="M1050 2850 c0 -5 4 -10 9 -10 6 0 13 5 16 10 3 6 -1 10 -9 10 -9 0
-16 -4 -16 -10z"/>
<path d="M1010 2830 c0 -5 5 -10 10 -10 6 0 10 5 10 10 0 6 -4 10 -10 10 -5 0
-10 -4 -10 -10z"/>
<path d="M913 2778 c-13 -6 -23 -15 -23 -20 0 -11 0 -11 45 12 41 21 20 28
-22 8z"/>
<path d="M2040 2786 c0 -2 9 -6 20 -9 11 -3 20 -1 20 4 0 5 -9 9 -20 9 -11 0
-20 -2 -20 -4z"/>
<path d="M796 2633 c-6 -14 -5 -15 5 -6 7 7 10 15 7 18 -3 3 -9 -2 -12 -12z"/>
<path d="M2280 2594 c0 -6 14 -23 30 -39 17 -16 30 -35 30 -42 0 -7 5 -13 10
-13 19 0 10 18 -30 61 -22 24 -40 39 -40 33z"/>
<path d="M835 2559 c-11 -17 1 -21 15 -4 8 9 8 15 2 15 -6 0 -14 -5 -17 -11z"/>
<path d="M2175 2549 c-11 -17 1 -21 15 -4 8 9 8 15 2 15 -6 0 -14 -5 -17 -11z"/>
<path d="M580 2400 c0 -5 5 -10 10 -10 6 0 10 5 10 10 0 6 -4 10 -10 10 -5 0
-10 -4 -10 -10z"/>
<path d="M482 2120 c0 -19 2 -27 5 -17 2 9 2 25 0 35 -3 9 -5 1 -5 -18z"/>
<path d="M474 1910 c0 -63 1 -89 3 -57 2 31 2 83 0 115 -2 31 -3 5 -3 -58z"/>
<path d="M482 1710 c0 -19 2 -27 5 -17 2 9 2 25 0 35 -3 9 -5 1 -5 -18z"/>
<path d="M2465 1551 c-3 -5 -1 -12 5 -16 5 -3 10 1 10 9 0 18 -6 21 -15 7z"/>
<path d="M540 1521 c0 -5 5 -13 10 -16 6 -3 10 -2 10 4 0 5 -4 13 -10 16 -5 3
-10 2 -10 -4z"/>
<path d="M2327 1293 c-4 -3 -7 -11 -7 -17 0 -6 5 -5 12 2 6 6 9 14 7 17 -3 3
-9 2 -12 -2z"/>
<path d="M840 1254 c0 -8 5 -12 10 -9 6 4 8 11 5 16 -9 14 -15 11 -15 -7z"/>
<path d="M2292 1250 c-18 -29 -15 -38 4 -12 9 13 14 25 12 27 -2 2 -9 -5 -16
-15z"/>
<path d="M2241 1234 c0 -11 3 -14 6 -6 3 7 2 16 -1 19 -3 4 -6 -2 -5 -13z"/>
<path d="M750 1190 c0 -5 4 -10 9 -10 5 0 16 -7 25 -15 13 -14 15 -13 13 4 0
11 -6 17 -14 14 -7 -3 -13 0 -13 6 0 6 -4 11 -10 11 -5 0 -10 -4 -10 -10z"/>
<path d="M2089 1063 c-13 -15 -12 -15 9 -4 23 12 28 21 13 21 -5 0 -15 -7 -22
-17z"/>
<path d="M1065 970 c4 -6 11 -8 16 -5 14 9 11 15 -7 15 -8 0 -12 -5 -9 -10z"/>
<path d="M1875 950 c-3 -5 -1 -10 4 -10 6 0 11 5 11 10 0 6 -2 10 -4 10 -3 0
-8 -4 -11 -10z"/>
<path d="M1738 903 c7 -3 16 -2 19 1 4 3 -2 6 -13 5 -11 0 -14 -3 -6 -6z"/>
<path d="M1261 2860 c-20 -11 -44 -17 -57 -14 -13 3 -33 -2 -48 -11 l-26 -17
38 -28 c69 -51 77 -65 77 -143 0 -58 -3 -72 -16 -75 -13 -2 -17 8 -22 44 -5
51 -27 79 -69 89 -26 7 -28 5 -28 -24 0 -29 -3 -31 -35 -31 -31 0 -35 -3 -35
-25 0 -19 -5 -25 -21 -25 -18 0 -20 -4 -14 -27 4 -16 7 -44 7 -65 0 -28 8 -43
34 -69 l34 -33 31 23 c17 13 31 21 33 19 10 -17 26 -81 26 -106 0 -29 3 -32
33 -32 21 0 36 -7 45 -20 14 -24 47 -28 38 -5 -3 8 -9 22 -12 30 -4 9 1 17 11
21 24 10 64 -34 71 -77 5 -31 1 -42 -27 -74 l-33 -38 -58 64 c-41 46 -60 61
-68 53 -17 -17 -4 -37 44 -67 24 -15 49 -33 55 -40 13 -17 -5 -54 -41 -80 -25
-18 -31 -19 -70 -8 -51 15 -78 37 -78 63 0 19 34 26 45 8 9 -15 25 -12 25 5 0
8 -9 19 -20 25 -13 7 -20 21 -20 40 0 28 -2 30 -39 30 -22 0 -43 5 -46 10 -3
6 -20 10 -37 10 l-32 0 26 28 c15 15 28 32 30 38 6 21 -72 74 -109 74 -19 0
-41 7 -50 15 -20 21 -37 14 -43 -16 -3 -16 -12 -24 -25 -24 -17 0 -19 -6 -17
-33 3 -31 2 -32 -32 -32 -45 0 -47 -17 -5 -65 25 -29 38 -35 69 -35 46 0 54
-9 35 -38 -37 -52 -122 -35 -202 41 l-53 50 0 -50 c0 -33 -5 -55 -15 -63 -19
-15 -19 -40 -2 -64 13 -17 15 -18 39 -2 13 9 28 13 31 9 4 -3 7 -31 7 -62 l0
-55 33 32 c18 18 36 32 40 32 4 0 7 -21 7 -47 l0 -47 32 43 c38 52 52 40 36
-33 -7 -32 -7 -61 0 -88 14 -54 6 -75 -19 -52 -11 10 -19 12 -19 6 0 -15 38
-35 50 -27 6 3 10 13 10 21 0 8 5 12 11 9 6 -4 8 -12 6 -19 -6 -14 69 -21 78
-7 3 6 -1 27 -10 47 -20 48 -19 83 3 142 l19 48 -24 2 c-14 1 -33 -3 -44 -8
-14 -8 -19 -7 -19 1 0 8 -4 8 -15 -1 -10 -9 -15 -9 -15 -1 0 6 -12 11 -26 11
-14 0 -23 -4 -20 -8 2 -4 1 -14 -3 -21 -6 -9 -10 -5 -15 13 -7 29 -31 34 -55
12 -14 -13 -16 -11 -18 15 -3 46 -50 79 -68 49 -3 -5 -10 -10 -16 -10 -14 0
-10 43 6 64 8 11 15 30 15 44 0 13 4 21 10 17 6 -4 8 -16 5 -28 -5 -17 -4 -19
4 -7 8 12 13 12 30 -4 11 -10 18 -23 15 -27 -3 -5 2 -6 10 -3 21 8 42 -6 25
-16 -7 -5 19 -7 56 -5 38 1 71 7 73 13 2 6 9 10 15 8 7 -1 9 -1 5 1 -4 3 -2
13 5 24 18 30 -2 53 -50 57 -29 2 -48 11 -69 33 -18 19 -23 30 -14 29 33 -5
75 1 63 8 -7 5 -9 13 -3 21 4 8 6 19 4 25 -2 6 6 16 18 21 14 6 22 17 20 28
-3 18 13 23 23 7 3 -5 22 -10 42 -10 32 0 49 -9 112 -56 2 -2 -5 -11 -15 -21
-16 -16 -17 -16 -12 -1 4 9 1 22 -7 28 -12 10 -13 7 -6 -18 6 -18 5 -34 0 -39
-20 -20 3 -41 54 -49 29 -4 60 -7 70 -6 14 2 17 -3 12 -18 -4 -12 -1 -27 5
-35 10 -12 9 -15 -8 -15 -21 0 -36 -25 -26 -42 4 -6 0 -15 -7 -20 -11 -8 -10
-9 4 -4 9 3 17 1 17 -4 0 -10 -12 -13 -40 -11 -10 0 -11 -1 -2 -5 6 -3 12 -14
12 -25 0 -10 4 -19 10 -19 5 0 7 7 4 15 -10 26 26 29 72 6 40 -21 43 -24 32
-44 -6 -12 -12 -33 -12 -47 -1 -22 -5 -25 -36 -23 -19 1 -46 3 -59 5 -33 4
-51 -26 -29 -48 13 -14 21 -14 52 -4 52 17 76 6 76 -34 0 -17 5 -37 11 -43 9
-9 -2 -18 -39 -37 -45 -23 -51 -24 -63 -10 -11 13 -10 18 4 25 9 6 21 18 27
29 9 17 7 18 -24 13 -48 -8 -76 22 -76 80 0 59 33 92 81 82 32 -7 33 -7 19 11
-8 11 -15 20 -16 22 0 1 -16 -4 -35 -12 -38 -16 -69 -61 -69 -100 0 -39 30
-94 56 -100 16 -4 21 -11 17 -26 -3 -12 2 -29 11 -39 12 -14 14 -20 5 -23 -21
-7 -2 -58 22 -58 18 0 19 -3 9 -15 -6 -8 -9 -22 -6 -33 5 -15 0 -18 -29 -19
-20 -1 -42 -6 -50 -13 -8 -7 -21 -10 -29 -7 -18 7 -44 -21 -30 -31 6 -4 18
-18 27 -31 16 -23 15 -25 -19 -51 -35 -29 -103 -39 -105 -16 0 6 -4 1 -9 -11
-5 -13 -15 -23 -21 -23 -7 0 -9 3 -6 6 10 10 -12 44 -28 44 -21 0 -19 18 3 23
15 4 15 5 -2 6 -12 1 -17 7 -14 19 4 15 -1 17 -35 13 -28 -2 -38 0 -33 8 4 6
11 9 15 6 5 -2 17 2 27 11 18 14 18 15 -6 9 l-25 -6 24 20 c13 12 37 21 55 21
59 0 75 44 30 79 -16 13 -41 21 -64 21 -40 0 -104 -23 -115 -40 -4 -6 -11 -7
-17 -4 -6 4 -9 3 -6 -2 3 -5 -3 -18 -13 -28 -19 -19 -19 -19 -19 3 0 13 -7 35
-16 51 -18 30 -12 66 8 54 9 -6 9 -9 1 -11 -13 -5 -6 -33 8 -33 4 0 6 7 3 15
-4 10 0 15 13 15 27 0 43 19 43 52 0 28 13 37 25 18 13 -21 43 -10 54 21 8 25
8 36 -4 52 -14 20 -15 19 -15 -26 0 -26 -3 -47 -7 -47 -4 0 -22 14 -40 32
l-33 32 0 -56 c0 -62 -12 -79 -39 -54 -24 22 -27 21 -41 -14 -11 -26 -10 -33
4 -49 10 -11 16 -35 16 -64 0 -26 1 -47 3 -47 2 0 26 22 54 49 76 73 162 90
198 38 19 -27 11 -37 -32 -37 -27 0 -43 -8 -70 -35 -43 -43 -41 -70 6 -70 32
0 33 -1 28 -32 -5 -30 -3 -33 19 -33 17 0 24 -6 24 -19 0 -27 15 -34 42 -20
12 7 36 13 54 14 18 1 48 15 72 35 45 36 45 34 -2 88 l-19 22 31 0 c17 0 34 5
37 10 3 6 24 10 46 10 36 0 39 2 39 28 0 16 8 32 20 40 32 20 24 34 -15 26
-31 -5 -35 -4 -35 15 0 23 31 47 80 61 38 11 81 -7 106 -45 19 -30 15 -36 -44
-77 -50 -34 -62 -46 -62 -65 0 -22 29 -14 53 14 12 15 36 42 52 61 l31 34 32
-36 c18 -20 32 -46 32 -57 0 -37 -31 -89 -57 -95 -31 -8 -40 2 -25 26 7 11 12
24 12 30 0 18 -29 11 -42 -10 -9 -13 -24 -20 -44 -20 -30 0 -32 -3 -37 -42 -3
-24 -9 -58 -13 -76 l-6 -33 -35 27 -35 27 -31 -31 c-22 -22 -31 -42 -33 -69
-1 -21 -5 -50 -9 -65 -6 -24 -4 -28 14 -28 17 0 21 -6 21 -30 0 -28 3 -30 35
-30 31 0 35 -3 35 -25 0 -32 29 -33 65 -2 20 17 28 35 32 70 4 37 9 47 22 45
12 -2 17 -17 19 -53 5 -76 -11 -116 -63 -155 -25 -18 -45 -36 -45 -40 0 -17
29 -30 69 -30 27 0 51 -6 62 -16 16 -14 23 -15 49 -4 35 14 36 17 14 41 -25
27 -8 39 54 39 l56 0 -32 33 c-18 18 -32 36 -32 40 0 4 21 7 47 7 l47 0 -42
31 c-23 17 -42 34 -42 37 0 9 218 8 226 -1 3 -3 -13 -18 -37 -34 l-43 -28 47
-3 c26 -2 47 -6 47 -10 0 -3 -14 -21 -32 -39 l-32 -33 55 0 c31 0 59 -3 62 -7
4 -3 0 -18 -9 -31 -16 -24 -15 -26 2 -39 24 -17 49 -17 64 2 8 10 30 15 61 15
27 0 49 5 49 10 0 16 -84 12 -106 -5 -22 -16 -64 -20 -64 -5 0 6 11 10 24 10
14 0 28 5 32 11 4 7 -2 9 -17 7 -18 -2 -23 1 -21 14 3 21 -9 28 -53 30 -38 1
-43 9 -21 27 10 8 16 9 21 1 3 -5 12 -10 18 -10 7 0 4 7 -5 14 -10 7 -18 20
-18 29 0 8 -12 20 -27 25 l-28 10 28 1 c20 1 26 5 20 14 -4 6 -8 19 -8 27 0
12 -16 15 -90 13 -88 -1 -89 -1 -23 6 78 9 118 31 118 66 0 33 -11 37 -60 20
-52 -19 -84 -19 -135 -1 -22 8 -43 12 -47 9 -12 -6 -10 -51 2 -58 6 -4 8 -11
4 -16 -3 -5 -2 -9 3 -8 4 1 17 0 28 -1 14 -2 11 -4 -10 -9 -23 -5 -30 -12 -32
-34 -1 -22 3 -27 20 -28 19 0 19 -2 -5 -11 -31 -11 -37 -38 -13 -58 23 -19 18
-25 -21 -28 -45 -3 -54 -8 -54 -33 0 -16 -5 -19 -20 -14 -11 4 -20 2 -20 -4 0
-10 20 -15 48 -12 6 1 12 -3 12 -9 0 -15 -43 -12 -66 5 -10 8 -38 15 -61 15
-24 0 -43 4 -43 8 0 5 14 6 31 4 21 -3 30 -1 25 6 -4 6 -14 9 -24 6 -9 -4 0 9
20 27 27 24 40 47 47 79 13 60 21 133 13 126 -3 -3 -12 0 -21 8 -11 9 -23 11
-38 5 -18 -7 -23 -16 -23 -46 0 -21 -7 -49 -16 -61 -15 -22 -54 -31 -54 -11 0
5 5 7 10 4 6 -3 17 0 25 9 14 13 12 15 -12 13 -19 -1 -27 2 -25 11 1 8 -2 11
-9 6 -6 -3 -15 0 -20 7 -8 12 -10 12 -18 1 -6 -10 -11 -6 -19 17 -8 22 -15 29
-26 25 -17 -7 -22 11 -6 21 6 3 10 26 10 49 0 48 17 70 46 60 15 -5 16 -4 4 5
-8 5 -11 13 -8 16 4 4 16 1 27 -7 12 -8 19 -17 16 -19 -2 -3 5 -5 16 -6 13 -1
23 7 29 25 6 15 15 35 20 44 6 10 10 31 10 47 0 26 4 29 35 33 27 3 34 1 32
-12 -1 -11 8 -16 36 -18 21 -2 35 -8 31 -13 -3 -5 -2 -9 3 -8 16 2 53 -13 53
-23 0 -5 4 -7 10 -3 5 3 7 13 4 23 -3 9 3 3 12 -15 17 -33 67 -63 101 -63 18
1 106 39 89 40 -5 0 -3 7 4 15 6 8 8 20 4 27 -5 10 -4 11 7 1 18 -18 48 -16
55 2 4 9 11 15 18 14 35 -4 58 3 63 20 4 15 11 17 36 12 27 -6 33 -12 37 -41
7 -42 37 -110 49 -110 5 0 14 7 21 15 7 9 19 14 27 11 8 -3 11 -1 8 4 -14 22
15 8 34 -16 13 -17 21 -41 21 -65 0 -21 5 -41 10 -44 15 -9 12 -25 -5 -25 -9
0 -16 10 -16 23 -1 12 -6 1 -11 -26 -6 -26 -14 -47 -19 -47 -5 0 -9 4 -9 10 0
5 -9 2 -20 -7 -11 -10 -20 -25 -20 -35 0 -10 -6 -18 -14 -18 -8 0 -13 7 -12
16 0 9 -5 18 -12 20 -7 1 -8 0 -2 -3 15 -7 12 -23 -4 -23 -18 0 -26 22 -26 70
0 49 -19 66 -57 50 -28 -12 -28 -14 -23 -85 3 -39 11 -79 18 -88 8 -9 11 -21
7 -27 -4 -6 -1 -9 7 -8 7 2 12 -3 10 -10 -1 -8 2 -11 8 -7 5 3 20 -1 32 -10
22 -15 22 -15 -20 -12 -24 2 -45 0 -48 -4 -2 -4 19 -6 46 -6 28 1 52 -2 54 -8
2 -5 7 -6 12 -2 5 5 -4 18 -21 30 -56 41 -73 64 -86 121 -13 61 -3 106 26 106
11 0 15 -11 15 -41 0 -31 6 -47 29 -70 37 -37 71 -39 71 -4 0 22 4 25 35 25
32 0 35 2 35 30 0 23 4 30 20 30 21 0 29 33 10 45 -5 3 -10 25 -10 49 0 34 -6
48 -30 71 l-29 28 -35 -26 -34 -26 -6 34 c-4 19 -12 35 -17 35 -7 0 -9 16 -6
40 4 39 4 40 -27 40 -20 0 -36 7 -44 20 -14 22 -42 27 -42 7 0 -7 5 -18 11
-24 15 -15 3 -33 -22 -33 -24 0 -59 55 -59 92 0 16 13 42 32 64 l32 36 31 -34
c16 -19 40 -47 53 -62 23 -28 47 -31 47 -6 0 8 -26 34 -57 58 -32 24 -58 49
-58 56 0 14 35 48 67 65 16 8 31 7 64 -4 53 -19 69 -32 69 -57 0 -18 -5 -19
-35 -14 -40 8 -46 -5 -14 -28 16 -11 20 -22 17 -40 -5 -25 -3 -26 38 -26 24 0
44 -4 44 -10 0 -5 17 -10 37 -10 l37 0 -32 -33 c-18 -18 -32 -35 -32 -38 0
-16 87 -73 114 -74 18 -1 42 -7 54 -14 27 -14 42 -7 42 20 0 14 7 19 25 19 22
0 24 3 19 29 -6 28 -4 30 27 33 46 4 48 27 6 72 -27 28 -42 36 -70 36 -43 0
-55 15 -32 40 43 48 123 31 198 -41 28 -27 52 -49 54 -49 1 0 2 20 1 44 -2 31
3 51 16 65 16 18 17 24 6 51 -14 34 -17 35 -44 15 -28 -21 -36 -10 -36 53 l0
56 -33 -32 c-18 -18 -36 -32 -39 -32 -4 0 -8 21 -10 47 l-3 47 -28 -42 c-36
-55 -52 -55 -42 1 9 54 10 81 0 140 -9 60 5 62 42 5 l28 -42 5 49 5 49 38 -33
37 -33 0 55 c0 62 8 73 36 52 26 -20 29 -19 43 11 10 22 9 31 -5 52 -10 16
-16 43 -15 69 0 24 0 43 -2 43 -2 0 -26 -22 -53 -49 -72 -72 -156 -89 -199
-41 -23 26 -11 40 35 40 31 0 44 6 69 35 42 48 40 65 -5 65 -34 0 -36 1 -32
30 4 29 -13 47 -33 34 -5 -3 -9 6 -9 20 0 33 -16 41 -45 22 -13 -9 -37 -16
-53 -16 -24 0 -112 -52 -112 -67 0 -3 12 -19 27 -37 l26 -31 -24 -3 c-13 -2
-28 -8 -34 -13 -5 -5 -28 -9 -50 -9 -40 0 -41 -1 -37 -29 3 -22 -1 -32 -17
-40 -12 -7 -21 -18 -21 -26 0 -17 16 -20 25 -5 3 6 15 10 26 10 15 0 20 -6 17
-22 -3 -24 -75 -68 -110 -68 -22 0 -88 57 -88 76 0 8 19 28 43 44 66 48 79 60
75 72 -9 26 -28 15 -82 -46 -52 -59 -56 -67 -45 -88 17 -31 48 -56 84 -67 24
-7 27 -10 13 -16 -11 -4 -28 1 -47 14 -39 28 -58 26 -91 -9 -28 -30 -60 -40
-60 -19 0 5 5 7 10 4 13 -8 40 12 40 29 0 8 -2 8 -8 0 -9 -15 -62 -27 -62 -15
0 5 5 13 11 17 8 4 7 9 -2 15 -19 12 8 31 37 26 19 -3 20 0 14 28 -4 17 -14
43 -24 56 -9 14 -13 29 -9 33 4 4 -1 4 -11 0 -14 -5 -17 -3 -14 7 8 25 33 15
39 -16 4 -16 7 -26 8 -21 0 5 10 1 21 -9 12 -11 16 -21 11 -25 -6 -3 0 -18 14
-35 l25 -30 -15 30 c-9 18 -11 31 -5 33 6 2 -3 19 -20 38 -34 39 -38 73 -13
115 29 49 90 50 64 1 -14 -27 -14 -32 4 -32 8 0 20 9 27 20 8 13 24 20 43 20
30 0 30 1 27 40 -3 24 0 40 6 40 6 0 14 16 18 36 l6 35 27 -25 c34 -32 38 -32
73 1 22 21 28 36 28 69 0 24 5 46 10 49 19 12 11 45 -10 45 -15 0 -20 7 -20
25 0 22 -4 25 -35 25 -32 0 -35 2 -35 31 0 29 -2 31 -27 25 -43 -10 -73 -50
-73 -97 0 -32 -3 -39 -20 -39 -28 0 -36 55 -16 122 12 44 24 60 61 88 25 18
45 37 45 40 0 14 -49 32 -69 25 -14 -4 -33 1 -55 15 -29 17 -38 19 -60 9 -30
-14 -31 -17 -11 -43 21 -28 10 -36 -52 -36 l-55 0 32 -36 c17 -20 29 -39 25
-42 -3 -3 -23 -5 -45 -4 -22 2 -40 1 -40 -1 0 -2 18 -17 40 -32 22 -15 40 -31
40 -34 0 -4 -52 -6 -115 -6 -63 0 -115 3 -115 7 0 4 18 20 40 34 22 15 40 29
40 31 0 3 -18 3 -40 2 -21 -2 -42 0 -46 4 -4 4 8 23 26 42 l34 35 -56 0 c-63
0 -74 8 -53 36 8 10 15 22 15 25 0 5 -47 30 -53 28 -1 0 -17 -9 -36 -19z m62
-6 c3 -3 0 -15 -6 -25 -16 -25 2 -54 32 -53 16 0 20 -4 16 -15 -5 -13 -4 -14
6 -3 21 20 34 14 15 -7 -23 -26 -17 -54 14 -61 l25 -6 -22 -8 c-27 -9 -32 -51
-7 -60 14 -5 14 -8 0 -28 -18 -25 -21 -54 -6 -63 5 -3 32 2 59 12 43 15 56 16
93 5 88 -27 88 -27 88 0 0 13 -7 33 -15 44 -19 25 -19 34 0 34 25 0 19 46 -7
55 l-23 8 23 4 c31 6 38 28 18 58 -16 25 -16 25 12 25 15 0 37 6 47 14 16 12
17 18 8 39 -7 14 -9 28 -6 31 11 11 40 6 53 -9 8 -10 30 -15 61 -15 27 0 49
-4 49 -10 0 -5 -17 -10 -37 -10 -34 0 -35 -1 -17 -14 17 -13 17 -15 2 -21 -33
-13 -52 -58 -58 -137 -3 -42 -2 -74 2 -72 4 3 17 -1 28 -8 18 -11 23 -10 36 6
8 11 14 35 14 55 0 19 7 43 17 53 21 23 53 24 53 0 0 -10 9 -25 20 -35 11 -9
20 -12 20 -7 0 6 4 10 9 10 5 0 12 -19 16 -42 4 -24 10 -35 12 -25 3 9 8 17
13 17 14 0 21 -18 10 -25 -5 -3 -10 -23 -10 -44 0 -40 -31 -91 -54 -91 -7 0
-21 9 -31 20 -10 11 -22 20 -26 20 -8 0 -49 -81 -49 -98 0 -7 -10 -13 -22 -13
l-23 -2 23 -4 c31 -6 28 -33 -4 -33 -15 0 -32 -7 -38 -16 -10 -13 -12 -11 -11
13 0 25 -4 28 -30 28 -16 0 -35 6 -40 13 -6 8 -26 17 -45 21 -18 3 -35 12 -38
19 -2 8 2 10 14 5 12 -4 15 -3 10 5 -4 7 -15 12 -24 12 -9 0 -26 8 -37 16 -19
16 -19 16 5 8 49 -15 65 -11 68 18 4 36 -30 58 -101 65 -93 10 -163 -31 -143
-82 6 -17 21 -16 73 1 16 6 16 5 -2 -9 -11 -9 -28 -17 -38 -17 -10 0 -15 -5
-12 -10 9 -14 -4 -52 -15 -45 -5 3 -6 13 -3 22 7 18 2 15 -45 -27 -9 -8 -27
-14 -40 -12 -25 4 -55 -15 -46 -29 3 -5 -5 -5 -18 0 -13 4 -29 6 -35 4 -9 -3
-13 7 -13 31 0 20 4 36 8 36 5 0 7 13 4 30 -2 16 -8 28 -12 25 -5 -3 -6 -14
-3 -25 3 -11 0 -20 -6 -20 -6 0 -11 8 -11 18 0 10 -6 27 -14 38 -14 19 -15 19
-46 -4 l-32 -24 -25 24 c-21 19 -24 30 -21 70 2 25 0 46 -4 45 -3 -1 -6 3 -6
8 0 6 4 9 9 7 6 -1 16 12 24 30 8 18 14 27 15 21 0 -7 5 -13 11 -13 5 0 8 4 5
9 -3 5 3 11 14 14 12 3 20 14 20 26 0 28 34 28 54 -1 9 -12 16 -37 16 -54 0
-18 3 -39 6 -48 8 -20 38 -21 54 -1 10 12 15 13 21 3 4 -6 5 8 3 33 -9 81 -14
104 -29 133 -13 24 -13 31 -3 38 7 4 19 6 26 3 6 -2 12 0 12 5 0 13 -16 13
-42 -1 -14 -8 -23 -8 -31 0 -8 8 -8 11 1 11 7 0 12 5 12 10 0 6 -13 10 -30 10
-16 0 -30 5 -30 10 0 6 19 10 43 10 24 0 52 7 63 15 20 15 46 19 57 9z m210
-231 c-13 -2 -35 -2 -50 0 -16 2 -5 4 22 4 28 0 40 -2 28 -4z m-86 -9 c-3 -3
-12 -4 -19 -1 -8 3 -5 6 6 6 11 1 17 -2 13 -5z m153 -34 c29 -29 26 -44 -7
-35 -16 4 -55 8 -88 8 -33 0 -72 -4 -87 -8 -34 -9 -37 6 -8 35 16 16 33 20 95
20 62 0 79 -4 95 -20z m0 -90 c36 -36 21 -58 -24 -34 -36 18 -109 18 -145 -1
-43 -22 -56 0 -21 35 16 16 33 20 95 20 62 0 79 -4 95 -20z m-77 -37 c-7 -2
-19 -2 -25 0 -7 3 -2 5 12 5 14 0 19 -2 13 -5z m42 -45 c23 -18 26 -27 22 -55
-5 -30 -4 -32 13 -23 10 6 22 15 25 20 10 16 35 12 35 -5 0 -29 -40 -96 -53
-88 -6 4 -27 9 -47 13 -31 5 -35 9 -34 35 0 17 4 42 8 57 6 21 4 29 -14 38
-18 10 -25 9 -38 -4 -14 -14 -14 -21 -3 -51 16 -46 7 -75 -25 -75 -14 0 -34
-5 -44 -10 -17 -9 -22 -5 -40 29 -11 22 -20 47 -20 56 0 17 25 21 35 5 3 -5
15 -15 25 -20 18 -10 19 -8 13 20 -13 68 80 107 142 58z m620 -8 c-3 -5 -11
-10 -16 -10 -6 0 -7 5 -4 10 3 6 11 10 16 10 6 0 7 -4 4 -10z m-665 -20 c0 -5
-4 -10 -9 -10 -5 0 -7 -10 -3 -22 3 -14 2 -19 -6 -14 -18 11 -15 56 3 56 8 0
15 -4 15 -10z m670 -7 c22 -10 40 -21 40 -26 0 -4 -4 -5 -10 -2 -7 4 -7 -2 0
-19 8 -21 6 -25 -13 -29 -12 -3 -1 -3 25 -1 26 2 50 -2 54 -7 12 -20 -37 -58
-79 -61 -44 -3 -65 -24 -52 -54 4 -11 8 -22 7 -26 -2 -10 95 -31 108 -23 6 4
18 1 27 -7 15 -11 16 -11 10 4 -4 12 1 21 16 29 12 6 36 24 52 40 l31 29 2
-27 c1 -15 9 -34 17 -43 31 -34 16 -65 -22 -47 -32 14 -49 -6 -48 -57 1 -29
-1 -34 -12 -24 -8 6 -12 17 -9 24 3 7 1 16 -4 19 -6 4 -10 0 -10 -8 0 -8 -10
-13 -22 -13 -17 1 -24 -5 -26 -22 -4 -28 -22 -19 -22 11 0 12 -4 18 -8 12 -4
-5 -14 -10 -22 -10 -10 0 -16 -12 -18 -35 l-4 -35 -13 32 c-9 21 -23 35 -40
39 -40 10 -52 -9 -32 -51 21 -43 21 -101 2 -135 -14 -23 -14 -21 -9 32 7 59
-11 152 -27 143 -4 -3 -10 -1 -14 5 -3 5 -17 10 -31 10 -28 0 -31 -21 -9 -60
19 -33 19 -89 0 -134 -9 -20 -13 -41 -10 -46 9 -15 52 -12 68 5 13 13 16 13
21 -1 4 -10 17 -14 45 -12 22 2 37 7 34 14 -2 6 1 21 6 35 9 23 10 22 10 -9 1
-25 6 -35 20 -39 11 -3 22 -10 24 -17 2 -6 3 -3 2 6 -2 10 3 22 10 28 9 8 14
5 18 -10 6 -24 34 -26 58 -4 16 14 18 12 24 -26 8 -46 23 -57 54 -40 32 17 37
-11 11 -65 -21 -44 -22 -45 -45 -27 -13 9 -22 19 -20 22 5 8 -18 25 -40 29
-81 14 -111 12 -138 -9 -48 -38 -30 -80 34 -80 29 0 43 -6 58 -26 27 -35 26
-44 -4 -44 -14 0 -34 -9 -45 -20 -16 -16 -17 -20 -5 -20 8 0 15 -4 15 -10 0
-5 -7 -10 -15 -10 -9 0 -21 -11 -27 -25 -12 -26 -23 -31 -33 -15 -3 6 -20 10
-36 10 -17 0 -40 5 -52 12 -21 11 -21 11 -2 20 16 7 15 7 -6 3 -17 -3 -31 1
-40 12 -12 14 -11 15 11 9 23 -6 23 -6 7 7 -15 12 -15 16 -3 26 11 9 15 9 19
-1 3 -7 4 0 2 17 -2 31 -20 40 -107 52 -29 4 -38 10 -38 25 0 12 5 17 13 13 6
-4 1 3 -13 15 -15 13 -19 21 -10 20 8 -1 20 -2 26 -1 15 1 24 59 10 65 -6 3
-3 10 7 16 13 9 17 19 13 36 -5 19 -1 27 18 36 26 11 56 63 56 95 -1 25 -36
99 -47 96 -16 -5 -43 9 -37 18 4 6 11 6 19 -1 9 -8 15 -8 20 0 3 5 -1 10 -9
10 -9 0 -16 7 -16 15 0 7 -8 19 -17 24 -10 6 -13 11 -8 11 9 0 11 18 6 63 -1
4 -10 7 -21 7 -23 0 -27 18 -5 26 8 4 15 10 15 16 0 5 -4 6 -10 3 -5 -3 -10 1
-10 11 0 11 6 15 19 11 33 -8 116 18 120 39 2 10 8 22 13 25 7 4 6 9 -1 13 -6
4 -11 2 -11 -3 0 -6 -4 -11 -10 -11 -18 0 -10 29 12 44 12 9 17 16 11 16 -6 0
-18 -7 -27 -15 -16 -17 -26 -19 -26 -7 0 5 17 21 37 35 44 32 86 34 143 10z
m-660 -114 c5 -1 15 -3 20 -4 6 -1 19 -3 30 -4 11 0 20 -6 20 -12 0 -7 -14 -8
-42 -4 -61 11 -94 8 -128 -9 -17 -8 -30 -11 -30 -6 0 13 24 27 59 35 22 5 35
14 39 28 5 20 5 20 13 -1 5 -12 13 -23 19 -23z m-330 -24 c11 -13 10 -14 -4
-9 -9 3 -16 10 -16 15 0 13 6 11 20 -6z m630 6 c0 -5 -7 -11 -14 -14 -10 -4
-13 -1 -9 9 6 15 23 19 23 5z m-440 -6 c0 -3 -9 -25 -20 -47 -29 -61 -27 -84
10 -91 23 -5 30 -12 30 -30 0 -32 -23 -60 -45 -56 -11 2 -29 18 -40 35 -18 27
-24 29 -50 22 -45 -13 -71 -40 -90 -94 -29 -85 2 -171 72 -205 24 -12 45 -20
47 -18 1 2 10 16 19 32 10 15 23 27 29 27 6 0 4 -8 -5 -18 -19 -21 -22 -32 -7
-32 6 0 10 6 10 13 0 8 9 22 20 32 18 16 20 16 20 2 0 -10 5 -17 11 -17 6 0 9
-12 7 -27 -2 -22 -9 -29 -33 -34 -16 -3 -29 -9 -28 -15 7 -45 7 -53 -2 -54 -5
-1 -13 9 -17 22 -3 13 -6 18 -7 11 -1 -7 -8 -10 -16 -7 -9 4 -14 12 -13 19 3
16 -74 75 -98 75 -8 0 -12 5 -9 11 4 5 2 22 -3 37 -6 15 -13 40 -17 55 -5 26
-9 28 -48 26 -24 -2 -48 0 -54 4 -6 4 -14 1 -16 -5 -3 -8 -6 -6 -6 4 -1 16 6
17 58 11 60 -6 60 -6 66 23 4 16 11 41 17 56 5 15 7 32 3 37 -3 6 2 11 12 11
10 0 29 9 43 20 14 11 31 20 38 20 6 0 12 8 12 18 0 19 43 66 52 57 2 -3 11
13 18 35 7 22 17 40 22 40 4 0 8 -2 8 -5z m161 -15 c38 -11 83 -52 94 -87 5
-19 3 -23 -17 -23 -51 0 -65 -54 -23 -95 31 -32 40 -31 77 5 35 35 56 37 91
10 73 -58 56 -207 -28 -249 -26 -13 -29 -12 -52 18 -17 22 -33 31 -53 31 -32
0 -48 -15 -56 -58 -5 -25 -2 -33 19 -47 15 -9 31 -14 38 -10 14 9 3 -30 -18
-62 -16 -25 -81 -53 -121 -53 -45 1 -109 36 -126 69 -18 35 -21 55 -6 46 15
-9 60 22 60 41 0 8 -7 28 -15 44 -22 43 -65 41 -99 -2 -25 -32 -27 -33 -53
-18 -104 58 -94 246 15 273 15 4 25 -1 32 -14 6 -10 22 -26 35 -35 23 -15 27
-15 49 0 29 18 43 70 26 91 -7 8 -23 15 -36 15 -28 0 -30 16 -7 50 23 33 42
48 78 59 40 12 54 13 96 1z m392 -164 c3 -8 0 -17 -8 -20 -8 -3 -19 -15 -25
-26 -11 -21 -10 -22 20 -15 25 6 37 2 56 -16 56 -52 15 -160 -56 -146 -28 6
-30 5 -20 -13 6 -10 18 -23 27 -28 18 -11 9 -32 -13 -32 -8 0 -33 9 -55 20
-34 18 -38 23 -29 40 5 10 10 30 10 44 0 32 29 41 75 25 31 -11 37 -11 52 4
23 23 6 53 -28 49 -13 -2 -40 -4 -59 -5 -32 -2 -35 0 -41 33 -3 19 -8 40 -10
47 -4 13 56 51 82 52 9 1 19 -5 22 -13z m-1058 -53 c-14 -56 -17 -135 -5 -164
16 -37 8 -46 -24 -26 -45 30 -44 180 2 206 28 17 35 13 27 -16z m1185 7 c16
-16 20 -33 20 -95 0 -62 -4 -79 -20 -95 -29 -29 -44 -26 -35 8 10 35 10 139 0
175 -9 33 6 36 35 7z m90 0 c16 -16 20 -33 20 -95 0 -62 -4 -79 -20 -95 -29
-29 -44 -26 -35 8 10 35 10 139 0 175 -9 33 6 36 35 7z m-1330 1 c0 -6 -4 -13
-10 -16 -5 -3 -10 1 -10 9 0 9 5 16 10 16 6 0 10 -4 10 -9z m1010 -45 c0 -42
14 -49 74 -42 46 5 56 4 56 -9 0 -8 -4 -15 -10 -15 -5 0 -10 3 -10 8 0 4 -23
5 -50 4 -45 -4 -51 -7 -56 -30 -3 -15 -11 -40 -17 -57 -7 -16 -11 -33 -10 -36
1 -3 -15 -13 -37 -23 -25 -11 -44 -28 -54 -51 -10 -19 -21 -35 -26 -35 -13 0
-13 17 0 25 6 3 10 12 10 18 0 7 -9 1 -20 -13 -11 -14 -18 -30 -17 -35 3 -14
-39 -66 -47 -58 -11 11 -7 23 8 23 8 0 17 15 20 36 4 19 10 42 12 49 4 10 0
12 -15 8 -11 -3 -29 -2 -38 1 -15 6 -15 8 -3 17 13 8 13 10 1 18 -11 7 -9 13
9 32 13 13 20 18 16 12 -4 -7 -2 -13 3 -13 6 0 11 4 11 10 0 5 9 2 20 -7 11
-10 20 -23 20 -30 0 -21 51 -15 86 9 29 20 40 42 58 113 5 19 -3 65 -19 110
-7 20 -6 20 9 1 9 -11 16 -29 16 -40z m367 -73 c-2 -16 -4 -5 -4 22 0 28 2 40
4 28 2 -13 2 -35 0 -50z m-1400 5 c-2 -13 -4 -5 -4 17 -1 22 1 32 4 23 2 -10
2 -28 0 -40z m574 -268 c5 0 8 -6 7 -12 -2 -8 6 -12 20 -10 12 2 22 -1 22 -6
0 -10 12 -11 83 -12 26 0 56 4 67 10 10 5 26 7 35 3 13 -5 10 -9 -16 -20 -40
-17 -156 -20 -172 -4 -6 6 -20 11 -31 11 -23 0 -50 46 -38 64 4 7 8 5 10 -6 2
-10 8 -18 13 -18z m-173 -30 c-7 -11 -17 -20 -22 -20 -5 0 -1 9 9 20 10 11 20
20 22 20 2 0 -2 -9 -9 -20z m618 -17 c-7 -7 -26 7 -26 19 0 6 6 6 15 -2 9 -7
13 -15 11 -17z m-372 -23 c32 0 41 -29 25 -75 -11 -31 -11 -37 4 -52 23 -23
53 -6 49 28 -2 13 -4 40 -5 59 -2 32 0 35 33 40 20 4 41 9 47 13 11 7 53 -62
53 -88 0 -22 -22 -30 -32 -12 -5 9 -18 21 -28 27 -18 10 -19 8 -13 -20 9 -45
-27 -80 -82 -80 -57 0 -89 30 -82 76 7 41 1 42 -35 7 -25 -24 -28 -24 -34 -9
-4 11 2 37 15 62 18 39 24 43 40 34 11 -5 31 -10 45 -10z m53 -32 c-3 -7 -5
-2 -5 12 0 14 2 19 5 13 2 -7 2 -19 0 -25z m5 -53 c3 -24 0 -35 -9 -35 -14 0
-17 27 -7 54 9 23 11 20 16 -19z m-23 -202 c24 -3 61 0 82 7 45 15 55 10 40
-19 -24 -44 -161 -51 -202 -10 -28 28 -24 43 9 34 15 -4 47 -9 71 -12z"/>
<path d="M1290 2840 c0 -5 5 -10 10 -10 6 0 10 5 10 10 0 6 -4 10 -10 10 -5 0
-10 -4 -10 -10z"/>
<path d="M1700 2839 c0 -9 49 -33 56 -27 1 2 -11 11 -27 20 -16 9 -29 13 -29
7z"/>
<path d="M1272 2816 c7 -8 15 -12 17 -11 5 6 -10 25 -20 25 -5 0 -4 -6 3 -14z"/>
<path d="M1276 2745 c-3 -9 -6 -24 -5 -33 0 -9 5 -4 10 12 9 32 6 48 -5 21z"/>
<path d="M1148 2652 c9 -10 19 -17 21 -16 6 5 -20 34 -30 34 -5 0 -1 -8 9 -18z"/>
<path d="M1850 2660 c0 -5 5 -10 10 -10 6 0 10 5 10 10 0 6 -4 10 -10 10 -5 0
-10 -4 -10 -10z"/>
<path d="M1651 2644 c0 -11 3 -14 6 -6 3 7 2 16 -1 19 -3 4 -6 -2 -5 -13z"/>
<path d="M1702 2636 c1 -14 5 -23 9 -20 7 4 0 44 -7 44 -2 0 -3 -11 -2 -24z"/>
<path d="M1651 2554 c0 -11 3 -14 6 -6 3 7 2 16 -1 19 -3 4 -6 -2 -5 -13z"/>
<path d="M1050 2507 c0 -26 2 -47 4 -47 2 0 13 -3 23 -6 17 -5 17 -5 1 6 -12
7 -17 22 -16 45 1 19 -2 38 -5 42 -4 3 -7 -15 -7 -40z"/>
<path d="M1646 2482 c-2 -4 -1 -14 5 -22 7 -12 9 -10 9 8 0 23 -5 28 -14 14z"/>
<path d="M1775 2440 c-3 -5 -1 -10 4 -10 6 0 11 5 11 10 0 6 -2 10 -4 10 -3 0
-8 -4 -11 -10z"/>
<path d="M1815 2440 c-3 -5 -1 -10 4 -10 6 0 11 5 11 10 0 6 -2 10 -4 10 -3 0
-8 -4 -11 -10z"/>
<path d="M1795 2400 c-3 -5 -1 -10 4 -10 6 0 11 5 11 10 0 6 -2 10 -4 10 -3 0
-8 -4 -11 -10z"/>
<path d="M1255 2369 c-4 -6 -5 -12 -2 -15 2 -3 7 2 10 11 7 17 1 20 -8 4z"/>
<path d="M1288 2373 c6 -2 18 -2 25 0 6 3 1 5 -13 5 -14 0 -19 -2 -12 -5z"/>
<path d="M1688 2373 c7 -3 16 -2 19 1 4 3 -2 6 -13 5 -11 0 -14 -3 -6 -6z"/>
<path d="M1206 2361 c-4 -5 -2 -12 3 -15 5 -4 12 -2 15 3 4 5 2 12 -3 15 -5 4
-12 2 -15 -3z"/>
<path d="M2103 2363 c9 -2 23 -2 30 0 6 3 -1 5 -18 5 -16 0 -22 -2 -12 -5z"/>
<path d="M2257 2276 c-3 -8 -23 -16 -44 -19 l-38 -4 36 -1 c34 -2 70 20 57 34
-3 3 -8 -2 -11 -10z"/>
<path d="M2110 2190 c0 -5 5 -10 10 -10 6 0 10 5 10 10 0 6 -4 10 -10 10 -5 0
-10 -4 -10 -10z"/>
<path d="M2376 2175 c-11 -8 -15 -15 -9 -15 6 0 16 7 23 15 16 19 11 19 -14 0z"/>
<path d="M2011 2134 c0 -11 3 -14 6 -6 3 7 2 16 -1 19 -3 4 -6 -2 -5 -13z"/>
<path d="M2335 2140 c-3 -6 1 -7 9 -4 18 7 21 14 7 14 -6 0 -13 -4 -16 -10z"/>
<path d="M2378 2133 c7 -3 16 -2 19 1 4 3 -2 6 -13 5 -11 0 -14 -3 -6 -6z"/>
<path d="M2410 2126 c0 -9 5 -16 10 -16 6 0 10 4 10 9 0 6 -4 13 -10 16 -5 3
-10 -1 -10 -9z"/>
<path d="M1965 2120 c3 -5 8 -10 11 -10 2 0 4 5 4 10 0 6 -5 10 -11 10 -5 0
-7 -4 -4 -10z"/>
<path d="M2316 1764 c-4 -10 -1 -14 6 -12 15 5 23 28 10 28 -5 0 -13 -7 -16
-16z"/>
<path d="M2048 1763 c7 -3 16 -2 19 1 4 3 -2 6 -13 5 -11 0 -14 -3 -6 -6z"/>
<path d="M2280 1749 c0 -5 5 -7 10 -4 6 3 10 8 10 11 0 2 -4 4 -10 4 -5 0 -10
-5 -10 -11z"/>
<path d="M1971 1704 c0 -11 3 -14 6 -6 3 7 2 16 -1 19 -3 4 -6 -2 -5 -13z"/>
<path d="M2180 1709 c0 -5 5 -7 10 -4 6 3 10 8 10 11 0 2 -4 4 -10 4 -5 0 -10
-5 -10 -11z"/>
<path d="M2295 1710 c4 -6 11 -8 16 -5 14 9 11 15 -7 15 -8 0 -12 -5 -9 -10z"/>
<path d="M2410 1704 c0 -8 5 -12 10 -9 6 3 10 10 10 16 0 5 -4 9 -10 9 -5 0
-10 -7 -10 -16z"/>
<path d="M2382 1646 c7 -8 15 -12 17 -11 5 6 -10 25 -20 25 -5 0 -4 -6 3 -14z"/>
<path d="M1980 1620 c0 -5 5 -10 11 -10 5 0 7 5 4 10 -3 6 -8 10 -11 10 -2 0
-4 -4 -4 -10z"/>
<path d="M2240 1566 c0 -2 7 -9 15 -16 9 -7 15 -8 15 -2 0 5 -7 12 -15 16 -8
3 -15 4 -15 2z"/>
<path d="M1380 2065 c7 -9 15 -13 17 -11 7 7 -7 26 -19 26 -6 0 -6 -6 2 -15z"/>
<path d="M1338 2064 c-4 -6 1 -19 12 -29 16 -14 23 -16 32 -7 9 9 7 12 -9 12
-13 0 -23 7 -25 18 -2 11 -6 13 -10 6z"/>
<path d="M1375 1760 c-3 -5 1 -10 10 -10 9 0 13 5 10 10 -3 6 -8 10 -10 10 -2
0 -7 -4 -10 -10z"/>
<path d="M1460 1960 c-41 -41 -13 -110 45 -110 58 0 86 69 45 110 -11 11 -31
20 -45 20 -14 0 -34 -9 -45 -20z m88 -42 c3 -32 -1 -40 -21 -49 -37 -17 -67 3
-67 45 0 42 6 48 50 44 33 -3 35 -5 38 -40z"/>
<path d="M1470 1930 c0 -5 4 -10 9 -10 6 0 13 5 16 10 3 6 -1 10 -9 10 -9 0
-16 -4 -16 -10z"/>
<path d="M1520 1930 c0 -5 5 -10 10 -10 6 0 10 5 10 10 0 6 -4 10 -10 10 -5 0
-10 -4 -10 -10z"/>
<path d="M1480 1890 c0 -5 5 -10 10 -10 6 0 10 5 10 10 0 6 -4 10 -10 10 -5 0
-10 -4 -10 -10z"/>
<path d="M1520 1890 c0 -5 5 -10 10 -10 6 0 10 5 10 10 0 6 -4 10 -10 10 -5 0
-10 -4 -10 -10z"/>
<path d="M1472 2858 c-28 -28 -3 -72 39 -66 30 4 47 33 33 56 -14 21 -55 27
-72 10z m53 -28 c0 -16 -6 -26 -18 -28 -19 -4 -32 20 -23 44 9 25 41 13 41
-16z"/>
<path d="M1490 2830 c0 -5 7 -10 15 -10 8 0 15 5 15 10 0 6 -7 10 -15 10 -8 0
-15 -4 -15 -10z"/>
<path d="M893 2363 c9 -2 23 -2 30 0 6 3 -1 5 -18 5 -16 0 -22 -2 -12 -5z"/>
<path d="M755 2260 c3 -5 11 -10 16 -10 6 0 7 5 4 10 -3 6 -11 10 -16 10 -6 0
-7 -4 -4 -10z"/>
<path d="M798 2253 c7 -3 16 -2 19 1 4 3 -2 6 -13 5 -11 0 -14 -3 -6 -6z"/>
<path d="M1060 2200 c0 -5 5 -10 10 -10 6 0 10 5 10 10 0 6 -4 10 -10 10 -5 0
-10 -4 -10 -10z"/>
<path d="M592 2138 c-14 -14 -16 -28 -3 -28 9 0 24 30 18 36 -2 2 -9 -2 -15
-8z"/>
<path d="M1030 2120 c0 -5 5 -10 10 -10 6 0 10 5 10 10 0 6 -4 10 -10 10 -5 0
-10 -4 -10 -10z"/>
<path d="M1010 2046 c0 -2 7 -9 15 -16 9 -7 15 -8 15 -2 0 5 -7 12 -15 16 -8
3 -15 4 -15 2z"/>
<path d="M923 2013 c-28 -42 -29 -149 -3 -191 16 -27 26 -33 48 -30 30 3 31 9
11 81 -12 42 -11 54 4 98 10 27 15 54 12 59 -12 20 -54 10 -72 -17z m52 -10
c-11 -39 -11 -142 -1 -175 10 -33 -11 -39 -36 -10 -36 39 -30 171 8 199 28 20
37 16 29 -14z"/>
<path d="M566 1938 c-13 -19 -14 -25 -2 -43 7 -11 24 -20 36 -20 12 0 29 9 36
20 12 18 11 24 -2 43 -8 12 -24 22 -34 22 -10 0 -26 -10 -34 -22z m61 -13 c2
-6 -2 -19 -9 -28 -12 -15 -16 -16 -32 -4 -25 19 -14 50 16 45 12 -2 23 -8 25
-13z"/>
<path d="M585 1920 c-8 -13 15 -24 27 -12 6 6 4 11 -6 15 -8 3 -18 2 -21 -3z"/>
<path d="M2376 1938 c-13 -19 -14 -25 -2 -43 26 -39 76 -26 76 19 0 46 -48 62
-74 24z m58 -15 c4 -9 1 -23 -7 -30 -18 -18 -53 6 -44 31 8 21 43 21 51 -1z"/>
<path d="M2396 1921 c-4 -5 -2 -12 3 -15 5 -4 12 -2 15 3 4 5 2 12 -3 15 -5 4
-12 2 -15 -3z"/>
<path d="M770 1770 c0 -5 5 -10 11 -10 5 0 7 5 4 10 -3 6 -8 10 -11 10 -2 0
-4 -4 -4 -10z"/>
<path d="M685 1760 c3 -5 14 -10 23 -10 15 0 15 2 2 10 -20 13 -33 13 -25 0z"/>
<path d="M767 1729 c7 -7 15 -10 18 -7 3 3 -2 9 -12 12 -14 6 -15 5 -6 -5z"/>
<path d="M680 1719 c0 -5 9 -9 20 -9 11 0 20 2 20 4 0 2 -9 6 -20 9 -11 3 -20
1 -20 -4z"/>
<path d="M1061 1634 c0 -11 3 -14 6 -6 3 7 2 16 -1 19 -3 4 -6 -2 -5 -13z"/>
<path d="M975 1620 c-3 -5 -1 -10 4 -10 6 0 11 5 11 10 0 6 -2 10 -4 10 -3 0
-8 -4 -11 -10z"/>
<path d="M1015 1620 c-3 -5 -1 -10 4 -10 6 0 11 5 11 10 0 6 -2 10 -4 10 -3 0
-8 -4 -11 -10z"/>
<path d="M960 1505 c0 -8 4 -15 10 -15 5 0 7 7 4 15 -4 8 -8 15 -10 15 -2 0
-4 -7 -4 -15z"/>
<path d="M1210 1489 c0 -5 5 -7 10 -4 6 3 10 8 10 11 0 2 -4 4 -10 4 -5 0 -10
-5 -10 -11z"/>
<path d="M928 1473 c7 -3 16 -2 19 1 4 3 -2 6 -13 5 -11 0 -14 -3 -6 -6z"/>
<path d="M1288 1443 c7 -3 16 -2 19 1 4 3 -2 6 -13 5 -11 0 -14 -3 -6 -6z"/>
<path d="M1708 1443 c7 -3 16 -2 19 1 4 3 -2 6 -13 5 -11 0 -14 -3 -6 -6z"/>
<path d="M1638 1423 c7 -3 16 -2 19 1 4 3 -2 6 -13 5 -11 0 -14 -3 -6 -6z"/>
<path d="M1192 1400 c0 -14 2 -19 5 -12 2 6 2 18 0 25 -3 6 -5 1 -5 -13z"/>
<path d="M1385 1378 c0 -39 3 -45 35 -60 72 -36 193 -14 206 37 10 40 -9 52
-51 32 -20 -9 -51 -17 -70 -17 -36 0 -105 28 -105 42 0 4 -4 8 -8 8 -4 0 -8
-19 -7 -42z m120 -11 c33 0 72 4 88 8 30 8 34 -1 14 -29 -29 -39 -161 -42
-198 -5 -28 28 -24 43 9 34 15 -4 54 -8 87 -8z"/>
<path d="M1815 1390 c3 -5 8 -10 11 -10 2 0 4 5 4 10 0 6 -5 10 -11 10 -5 0
-7 -4 -4 -10z"/>
<path d="M1645 1350 c-3 -5 -1 -10 4 -10 6 0 11 5 11 10 0 6 -2 10 -4 10 -3 0
-8 -4 -11 -10z"/>
<path d="M1868 1343 c7 -3 16 -2 19 1 4 3 -2 6 -13 5 -11 0 -14 -3 -6 -6z"/>
<path d="M1051 1294 c0 -11 3 -14 6 -6 3 7 2 16 -1 19 -3 4 -6 -2 -5 -13z"/>
<path d="M1652 1270 c0 -14 2 -19 5 -12 2 6 2 18 0 25 -3 6 -5 1 -5 -13z"/>
<path d="M1700 1219 c0 -5 5 -7 10 -4 6 3 10 8 10 11 0 2 -4 4 -10 4 -5 0 -10
-5 -10 -11z"/>
<path d="M1651 1184 c0 -11 3 -14 6 -6 3 7 2 16 -1 19 -3 4 -6 -2 -5 -13z"/>
<path d="M1701 1184 c0 -11 3 -14 6 -6 3 7 2 16 -1 19 -3 4 -6 -2 -5 -13z"/>
<path d="M1340 1186 c0 -2 7 -7 16 -10 8 -3 12 -2 9 4 -6 10 -25 14 -25 6z"/>
<path d="M1272 1110 c0 -14 2 -19 5 -12 2 6 2 18 0 25 -3 6 -5 1 -5 -13z"/>
<path d="M1350 1080 c0 -5 5 -10 11 -10 5 0 7 5 4 10 -3 6 -8 10 -11 10 -2 0
-4 -4 -4 -10z"/>
<path d="M1472 1028 c-28 -28 -3 -72 39 -66 30 4 47 33 33 56 -14 21 -55 27
-72 10z m56 -26 c4 -26 -22 -40 -43 -22 -11 9 -12 17 -4 32 13 25 43 19 47
-10z"/>
<path d="M1494 1009 c-3 -6 -2 -15 4 -21 6 -6 11 -2 15 11 5 22 -7 29 -19 10z"/>
<path d="M2508 1687 c-3 -19 -2 -25 4 -19 6 6 8 18 6 28 -3 14 -5 12 -10 -9z"/>
<path d="M1790 3040 c-12 -8 -11 -10 8 -10 12 0 22 5 22 10 0 13 -11 13 -30 0z"/>
<path d="M1180 3036 c0 -9 40 -13 46 -5 3 5 -6 9 -20 9 -14 0 -26 -2 -26 -4z"/>
<path d="M857 3023 c-4 -3 -1 -13 6 -21 10 -14 9 -15 -8 -8 -11 5 -27 9 -35 9
-8 0 -19 5 -23 11 -6 7 -7 4 -3 -6 3 -10 1 -18 -5 -18 -15 0 -28 -43 -18 -62
10 -19 1 -51 -12 -42 -5 3 -9 11 -8 17 3 24 -1 37 -12 37 -8 0 -8 -4 1 -14 10
-13 4 -14 -42 -12 -29 2 -48 2 -41 -1 9 -3 9 -10 1 -29 -8 -17 -8 -31 0 -48
13 -29 -1 -38 -35 -23 -53 24 -99 -57 -55 -96 41 -37 97 -7 97 53 0 33 2 35
32 32 36 -4 73 25 73 57 0 24 18 36 47 33 12 -2 32 2 43 8 19 10 21 18 16 67
-6 58 -9 67 -19 56z m-3 -49 c9 -8 16 -22 16 -29 0 -16 -27 -45 -41 -45 -22 0
-49 22 -49 40 0 22 25 50 45 50 7 0 21 -7 29 -16z m-116 -86 c31 -31 -3 -87
-43 -72 -22 9 -35 45 -23 67 10 20 48 23 66 5z m-94 -110 c14 -23 -3 -52 -33
-56 -42 -6 -67 38 -39 66 17 17 58 11 72 -10z"/>
<path d="M2135 3008 c2 -10 -1 -21 -6 -24 -16 -9 -10 -60 9 -77 10 -10 27 -17
38 -17 23 1 54 23 54 39 0 23 15 10 16 -14 1 -14 -2 -22 -8 -19 -5 4 -8 -7 -6
-26 4 -46 46 -77 79 -60 30 16 39 29 39 57 0 35 -28 56 -67 50 -18 -3 -33 -2
-33 4 0 5 8 9 18 10 12 0 9 3 -8 10 -29 11 -55 55 -36 62 6 3 -10 4 -36 2 -28
-2 -49 2 -51 9 -2 6 -3 3 -2 -6z m75 -33 c7 -8 10 -25 6 -40 -5 -19 -13 -25
-35 -25 -39 0 -57 23 -43 55 13 29 52 34 72 10z m114 -84 c23 -25 13 -59 -20
-67 -30 -8 -54 11 -54 42 0 22 22 43 46 44 6 0 19 -9 28 -19z"/>
<path d="M1858 3013 c7 -3 16 -2 19 1 4 3 -2 6 -13 5 -11 0 -14 -3 -6 -6z"/>
<path d="M1905 2994 c22 -16 35 -18 35 -5 0 5 -12 11 -27 14 -26 5 -26 4 -8
-9z"/>
<path d="M1065 2990 c3 -5 13 -10 21 -10 8 0 14 5 14 10 0 6 -9 10 -21 10 -11
0 -17 -4 -14 -10z"/>
<path d="M690 2979 c0 -5 5 -7 10 -4 6 3 10 8 10 11 0 2 -4 4 -10 4 -5 0 -10
-5 -10 -11z"/>
<path d="M741 2964 c0 -11 3 -14 6 -6 3 7 2 16 -1 19 -3 4 -6 -2 -5 -13z"/>
<path d="M660 2959 c0 -5 5 -7 10 -4 6 3 10 8 10 11 0 2 -4 4 -10 4 -5 0 -10
-5 -10 -11z"/>
<path d="M900 2940 c-8 -5 -10 -10 -5 -10 6 0 17 5 25 10 8 5 11 10 5 10 -5 0
-17 -5 -25 -10z"/>
<path d="M955 2940 c-3 -5 1 -10 9 -10 9 0 16 5 16 10 0 6 -4 10 -9 10 -6 0
-13 -4 -16 -10z"/>
<path d="M2020 2940 c8 -5 20 -10 25 -10 6 0 3 5 -5 10 -8 5 -19 10 -25 10 -5
0 -3 -5 5 -10z"/>
<path d="M2300 2940 c0 -5 7 -10 16 -10 8 0 12 5 9 10 -3 6 -10 10 -16 10 -5
0 -9 -4 -9 -10z"/>
<path d="M678 2933 c7 -3 16 -2 19 1 4 3 -2 6 -13 5 -11 0 -14 -3 -6 -6z"/>
<path d="M925 2920 c-3 -5 -1 -10 4 -10 6 0 11 5 11 10 0 6 -2 10 -4 10 -3 0
-8 -4 -11 -10z"/>
<path d="M2070 2920 c0 -5 5 -10 11 -10 5 0 7 5 4 10 -3 6 -8 10 -11 10 -2 0
-4 -4 -4 -10z"/>
<path d="M890 2900 c0 -5 5 -10 10 -10 6 0 10 5 10 10 0 6 -4 10 -10 10 -5 0
-10 -4 -10 -10z"/>
<path d="M2100 2904 c0 -8 32 -33 43 -34 5 0 5 4 2 10 -8 13 -45 33 -45 24z"/>
<path d="M2410 2891 c0 -6 4 -11 8 -11 5 0 18 -9 30 -20 12 -12 22 -16 22 -11
0 5 -13 19 -30 31 -16 12 -30 17 -30 11z"/>
<path d="M566 2874 c-5 -14 -4 -15 9 -4 17 14 19 20 6 20 -5 0 -12 -7 -15 -16z"/>
<path d="M853 2876 c-22 -10 -31 -26 -15 -26 10 1 46 29 41 33 -2 2 -14 -2
-26 -7z"/>
<path d="M2178 2873 c-10 -2 -18 -9 -18 -14 0 -14 16 -11 30 6 7 8 11 14 9 14
-2 -1 -12 -3 -21 -6z"/>
<path d="M790 2859 c0 -5 5 -7 10 -4 6 3 10 8 10 11 0 2 -4 4 -10 4 -5 0 -10
-5 -10 -11z"/>
<path d="M2369 2843 c-13 -16 -12 -17 4 -4 9 7 17 15 17 17 0 8 -8 3 -21 -13z"/>
<path d="M2410 2852 c0 -4 10 -13 23 -21 22 -14 22 -14 3 8 -20 22 -26 25 -26
13z"/>
<path d="M580 2840 c-9 -6 -10 -10 -3 -10 6 0 15 5 18 10 8 12 4 12 -15 0z"/>
<path d="M2380 2818 c-29 -11 -40 -25 -40 -54 0 -56 84 -72 108 -22 23 48 -19
95 -68 76z m48 -20 c39 -39 -17 -100 -58 -63 -24 22 -25 38 -4 59 18 19 45 21
62 4z"/>
<path d="M2495 2807 c10 -15 20 -25 23 -22 3 3 -5 16 -17 28 l-23 22 17 -28z"/>
<path d="M2467 2790 c3 -11 9 -20 15 -20 5 0 4 9 -2 20 -6 11 -12 20 -14 20
-2 0 -2 -9 1 -20z"/>
<path d="M515 2780 c-3 -5 -1 -10 4 -10 6 0 11 5 11 10 0 6 -2 10 -4 10 -3 0
-8 -4 -11 -10z"/>
<path d="M2305 2780 c-3 -5 -2 -10 4 -10 5 0 13 5 16 10 3 6 2 10 -4 10 -5 0
-13 -4 -16 -10z"/>
<path d="M476 2765 c4 -8 8 -15 10 -15 2 0 4 7 4 15 0 8 -4 15 -10 15 -5 0 -7
-7 -4 -15z"/>
<path d="M450 2756 c0 -4 7 -14 15 -22 8 -9 15 -11 15 -6 0 5 -7 15 -15 22 -8
7 -15 9 -15 6z"/>
<path d="M512 2739 c2 -7 10 -15 17 -17 8 -3 12 1 9 9 -2 7 -10 15 -17 17 -8
3 -12 -1 -9 -9z"/>
<path d="M2465 2740 c-3 -5 -2 -10 4 -10 5 0 13 5 16 10 3 6 2 10 -4 10 -5 0
-13 -4 -16 -10z"/>
<path d="M2300 2736 c0 -2 12 -12 28 -21 l27 -18 -19 21 c-17 20 -36 29 -36
18z"/>
<path d="M2560 2734 c0 -5 11 -25 25 -44 17 -23 25 -28 25 -17 0 9 -3 17 -8
17 -4 0 -15 12 -24 28 -10 15 -18 22 -18 16z"/>
<path d="M430 2719 c0 -5 5 -7 10 -4 6 3 10 8 10 11 0 2 -4 4 -10 4 -5 0 -10
-5 -10 -11z"/>
<path d="M2473 2709 c-45 -17 -54 -91 -12 -104 26 -8 110 5 103 16 -3 5 -9 7
-13 4 -5 -2 -6 7 -3 20 8 42 -36 79 -75 64z m47 -23 c28 -35 -11 -93 -47 -70
-36 22 -23 84 17 84 10 0 23 -7 30 -14z"/>
<path d="M485 2700 c-4 -6 -10 -8 -15 -5 -4 3 -10 -18 -12 -45 -1 -28 -1 -50
2 -51 3 0 18 -3 34 -5 41 -7 76 19 76 57 0 27 2 30 15 19 13 -11 14 -10 9 4
-4 10 -12 15 -18 13 -7 -3 -20 1 -31 9 -22 16 -51 18 -60 4z m65 -30 c16 -30
-4 -60 -40 -60 -23 0 -31 5 -36 25 -4 15 -1 32 6 40 18 21 57 19 70 -5z"/>
<path d="M2355 2680 c3 -5 8 -10 11 -10 2 0 4 5 4 10 0 6 -5 10 -11 10 -5 0
-7 -4 -4 -10z"/>
<path d="M2390 2680 c0 -5 7 -7 15 -4 8 4 15 8 15 10 0 2 -7 4 -15 4 -8 0 -15
-4 -15 -10z"/>
<path d="M2561 2674 c0 -11 3 -14 6 -6 3 7 2 16 -1 19 -3 4 -6 -2 -5 -13z"/>
<path d="M377 2640 c-3 -11 -3 -20 -1 -20 2 0 8 9 14 20 6 11 7 20 2 20 -6 0
-12 -9 -15 -20z"/>
<path d="M417 2639 c-4 -16 -3 -18 9 -8 16 13 19 29 5 29 -5 0 -11 -9 -14 -21z"/>
<path d="M2617 2653 c-3 -4 6 -22 20 -38 14 -17 22 -24 18 -17 -3 6 -12 24
-20 38 -7 14 -15 22 -18 17z"/>
<path d="M2575 2640 c3 -5 8 -10 11 -10 2 0 4 5 4 10 0 6 -5 10 -11 10 -5 0
-7 -4 -4 -10z"/>
<path d="M566 2592 l-19 -27 26 24 c28 26 32 31 20 31 -5 0 -17 -13 -27 -28z"/>
<path d="M2535 2579 c-31 -25 -32 -52 -2 -81 12 -13 21 -26 20 -30 -1 -3 11 1
27 9 59 29 65 92 11 111 -25 9 -34 7 -56 -9z m65 -13 c28 -35 -11 -93 -47 -70
-36 22 -23 84 17 84 10 0 23 -7 30 -14z"/>
<path d="M2485 2570 c-3 -5 -2 -10 4 -10 5 0 13 5 16 10 3 6 2 10 -4 10 -5 0
-13 -4 -16 -10z"/>
<path d="M2656 2554 c-9 -35 -4 -39 11 -8 6 13 8 26 3 29 -4 3 -11 -7 -14 -21z"/>
<path d="M355 2560 c-3 -5 -1 -10 4 -10 6 0 11 5 11 10 0 6 -2 10 -4 10 -3 0
-8 -4 -11 -10z"/>
<path d="M311 2524 c0 -11 3 -14 6 -6 3 7 2 16 -1 19 -3 4 -6 -2 -5 -13z"/>
<path d="M2492 2500 c13 -22 27 -40 31 -40 4 0 -3 18 -15 40 -13 22 -27 40
-31 40 -4 0 3 -18 15 -40z"/>
<path d="M510 2520 c0 -5 5 -10 10 -10 6 0 10 5 10 10 0 6 -4 10 -10 10 -5 0
-10 -4 -10 -10z"/>
<path d="M296 2485 c-9 -26 -7 -32 5 -12 6 10 9 21 6 23 -2 3 -7 -2 -11 -11z"/>
<path d="M2588 2463 c10 -4 10 -10 -2 -29 -13 -19 -14 -28 -4 -49 12 -27 27
-33 92 -37 60 -4 54 -23 -6 -22 -29 1 -48 0 -41 -3 7 -2 10 -17 7 -36 -3 -19
0 -39 8 -49 16 -21 68 -35 68 -19 0 6 -11 11 -24 11 -31 0 -50 24 -42 54 11
45 71 45 82 0 4 -14 2 -30 -4 -36 -12 -12 -5 -38 10 -38 5 0 7 4 4 8 -3 4 -1
24 3 44 5 22 5 40 -1 46 -6 6 -10 21 -10 35 0 19 -5 23 -23 19 -22 -4 -23 -2
-18 37 4 32 2 42 -11 47 -9 3 -13 10 -11 15 3 4 -16 8 -42 7 -26 0 -42 -3 -35
-5z m86 -35 c12 -20 2 -44 -27 -62 -19 -12 -57 17 -57 44 0 40 62 53 84 18z"/>
<path d="M2721 2463 c-1 -6 -4 -20 -7 -30 -5 -17 -5 -17 6 0 6 10 9 23 6 30
-3 9 -5 9 -5 0z"/>
<path d="M348 2453 c-10 -2 -18 -9 -18 -14 0 -6 8 -5 20 1 33 17 62 -4 58 -43
-3 -29 -6 -32 -38 -32 -32 0 -35 2 -41 38 -8 50 -13 52 -25 11 -6 -19 -9 -32
-6 -29 6 6 32 -14 32 -26 0 -5 -8 -6 -17 -2 -10 3 -15 3 -11 -1 3 -4 24 -10
47 -12 68 -8 106 51 61 96 -20 20 -29 22 -62 13z"/>
<path d="M2530 2434 c0 -8 5 -12 10 -9 6 4 8 11 5 16 -9 14 -15 11 -15 -7z"/>
<path d="M270 2425 c0 -8 2 -15 4 -15 2 0 6 7 10 15 3 8 1 15 -4 15 -6 0 -10
-7 -10 -15z"/>
<path d="M2742 2400 c0 -14 2 -19 5 -12 2 6 2 18 0 25 -3 6 -5 1 -5 -13z"/>
<path d="M2550 2395 c0 -8 4 -15 10 -15 5 0 7 7 4 15 -4 8 -8 15 -10 15 -2 0
-4 -7 -4 -15z"/>
<path d="M2711 2394 c0 -11 3 -14 6 -6 3 7 2 16 -1 19 -3 4 -6 -2 -5 -13z"/>
<path d="M253 2385 c-3 -9 -3 -18 -1 -21 3 -3 8 4 11 16 6 23 -1 27 -10 5z"/>
<path d="M2757 2340 c3 -11 7 -20 9 -20 2 0 4 9 4 20 0 11 -4 20 -9 20 -5 0
-7 -9 -4 -20z"/>
<path d="M421 2334 c0 -11 3 -14 6 -6 3 7 2 16 -1 19 -3 4 -6 -2 -5 -13z"/>
<path d="M230 2312 c0 -18 5 -32 10 -32 6 0 8 11 4 28 -10 39 -14 40 -14 4z"/>
<path d="M276 2318 c2 -3 -1 -18 -7 -32 -10 -20 -9 -30 5 -51 33 -51 115 -18
103 42 -3 18 0 31 11 40 10 7 12 12 5 13 -6 0 -15 -5 -18 -10 -4 -6 -11 -7
-17 -4 -14 9 -87 11 -82 2z m78 -30 c13 -19 14 -25 2 -43 -26 -39 -76 -26 -76
19 0 46 48 62 74 24z"/>
<path d="M397 2281 c3 -10 -3 -33 -12 -51 -9 -17 -14 -34 -11 -37 8 -8 36 61
36 87 0 11 -4 20 -9 20 -5 0 -7 -8 -4 -19z"/>
<path d="M2770 2281 c0 -11 5 -23 10 -26 6 -4 10 5 10 19 0 14 -4 26 -10 26
-5 0 -10 -9 -10 -19z"/>
<path d="M2601 2265 c0 -11 7 -29 15 -40 16 -19 16 -19 9 5 -4 14 -11 32 -16
40 -7 12 -8 11 -8 -5z"/>
<path d="M212 2230 c0 -14 2 -19 5 -12 2 6 2 18 0 25 -3 6 -5 1 -5 -13z"/>
<path d="M240 2241 c0 -5 5 -13 10 -16 6 -3 10 -2 10 4 0 5 -4 13 -10 16 -5 3
-10 2 -10 -4z"/>
<path d="M2798 2185 c-3 -14 1 -33 9 -42 8 -10 11 -11 7 -3 -4 8 -7 27 -6 42
3 35 -4 37 -10 3z"/>
<path d="M2674 2184 c3 -7 1 -16 -4 -19 -16 -10 -11 -51 6 -66 10 -8 29 -19
43 -25 23 -9 27 -7 42 21 16 29 16 84 0 85 -3 1 -25 5 -49 9 -35 7 -42 6 -38
-5z m67 -14 c21 -12 25 -50 7 -68 -18 -18 -43 -15 -63 8 -17 18 -17 21 -1 45
18 28 28 30 57 15z"/>
<path d="M267 2178 c-67 -23 -33 -122 37 -104 36 9 52 50 32 82 -12 17 -12 24
-3 27 6 2 1 4 -13 4 -14 0 -37 -4 -53 -9z m51 -20 c16 -16 15 -53 -3 -68 -19
-16 -45 -10 -61 15 -26 39 31 86 64 53z"/>
<path d="M2630 2163 c0 -18 2 -33 4 -33 9 0 13 39 5 51 -6 10 -9 4 -9 -18z"/>
<path d="M363 2135 c0 -14 3 -25 8 -25 5 0 9 11 9 25 0 14 -4 25 -9 25 -5 0
-8 -11 -8 -25z"/>
<path d="M202 2130 c0 -14 2 -19 5 -12 2 6 2 18 0 25 -3 6 -5 1 -5 -13z"/>
<path d="M2640 2110 c0 -8 5 -22 10 -30 9 -13 10 -13 10 0 0 8 -5 22 -10 30
-9 13 -10 13 -10 0z"/>
<path d="M2781 2094 c0 -11 3 -14 6 -6 3 7 2 16 -1 19 -3 4 -6 -2 -5 -13z"/>
<path d="M2821 2100 c-1 -3 -3 -33 -4 -68 -3 -69 9 -96 14 -34 4 32 -5 116
-10 102z"/>
<path d="M2694 2058 c3 -10 -1 -30 -9 -45 -18 -34 -3 -63 39 -78 21 -7 30 -5
46 10 20 21 31 98 15 112 -4 5 -5 0 -1 -11 5 -15 3 -17 -11 -11 -10 4 -29 10
-43 13 -14 3 -29 10 -33 16 -6 7 -7 4 -3 -6z m84 -62 c5 -23 -16 -46 -42 -46
-46 0 -62 48 -24 74 19 13 25 14 43 2 11 -7 21 -21 23 -30z"/>
<path d="M246 2033 c-51 -26 -36 -91 25 -112 18 -6 30 -9 27 -5 -3 3 7 19 23
35 19 19 29 39 28 57 -1 17 -3 20 -6 10 -6 -23 -15 -23 -30 1 -10 15 -10 21 0
24 7 2 -1 4 -16 3 -15 0 -38 -6 -51 -13z m59 -27 c21 -31 5 -66 -28 -66 -62 0
-62 88 0 90 7 0 20 -11 28 -24z"/>
<path d="M2660 1950 c0 -5 5 -10 11 -10 5 0 7 5 4 10 -3 6 -8 10 -11 10 -2 0
-4 -4 -4 -10z"/>
<path d="M235 1910 c4 -6 11 -8 16 -5 14 9 11 15 -7 15 -8 0 -12 -5 -9 -10z"/>
<path d="M2697 1890 c-9 -15 -17 -38 -17 -50 0 -11 -4 -18 -10 -15 -5 3 -10
-1 -10 -11 0 -13 3 -14 14 -5 10 9 17 7 27 -5 9 -11 23 -14 45 -11 20 4 35 1
37 -6 5 -12 6 -3 7 62 1 39 3 36 -41 55 -35 15 -36 14 -52 -14z m73 -15 c17
-20 4 -62 -21 -70 -15 -5 -28 -1 -42 14 -18 17 -19 24 -9 46 13 29 52 34 72
10z"/>
<path d="M231 1874 c-12 -15 -21 -32 -21 -40 0 -7 -3 -14 -7 -17 -5 -2 -2 -2
5 -1 6 2 12 -1 12 -6 0 -5 8 -13 18 -18 23 -12 91 -24 74 -13 -11 6 -8 13 12
29 18 13 26 29 25 48 0 16 -3 23 -6 17 -6 -17 -23 -16 -23 1 0 13 -28 26 -57
26 -6 0 -21 -12 -32 -26z m79 -13 c22 -42 -27 -86 -61 -55 -22 20 -25 44 -7
62 18 18 56 14 68 -7z"/>
<path d="M2823 1878 c-7 -12 -6 -128 2 -136 2 -2 5 30 7 72 2 42 2 76 1 76 -1
0 -5 -6 -10 -12z"/>
<path d="M2691 1780 c2 -8 -5 -28 -15 -43 -15 -22 -17 -33 -8 -51 7 -15 7 -28
-1 -42 -9 -17 -9 -18 6 -5 14 11 20 11 32 1 12 -10 18 -10 30 0 8 6 19 9 25 5
7 -4 10 -1 9 6 -2 8 1 24 5 37 5 15 2 31 -9 48 -9 13 -13 29 -10 34 3 6 2 10
-4 10 -5 0 -13 -5 -16 -11 -5 -7 -14 -4 -27 8 -16 14 -19 15 -17 3z m63 -52
c13 -19 14 -25 2 -43 -26 -39 -76 -26 -76 19 0 46 48 62 74 24z"/>
<path d="M2651 1763 c-1 -6 -4 -20 -7 -30 -5 -17 -5 -17 6 0 6 10 9 23 6 30
-3 9 -5 9 -5 0z"/>
<path d="M280 1752 c-82 -27 -56 -120 31 -113 24 2 44 54 30 80 -14 25 -41 40
-61 33z m40 -26 c28 -35 -11 -93 -47 -70 -36 22 -23 84 17 84 10 0 23 -7 30
-14z"/>
<path d="M360 1693 c0 -18 5 -33 10 -33 13 0 13 30 0 50 -7 11 -10 7 -10 -17z"/>
<path d="M201 1694 c0 -11 3 -14 6 -6 3 7 2 16 -1 19 -3 4 -6 -2 -5 -13z"/>
<path d="M2631 1670 c0 -33 1 -34 10 -11 6 16 6 28 -1 35 -7 7 -10 -1 -9 -24z"/>
<path d="M2800 1640 c0 -11 2 -20 4 -20 2 0 6 9 9 20 3 11 1 20 -4 20 -5 0 -9
-9 -9 -20z"/>
<path d="M2670 1617 c-35 -18 -46 -41 -34 -74 7 -22 17 -29 45 -33 35 -5 36
-7 34 -39 -2 -25 0 -30 6 -19 5 9 8 27 6 39 -2 12 2 35 10 50 16 31 10 52 -21
73 -18 11 -28 12 -46 3z m48 -19 c17 -17 15 -53 -3 -68 -20 -17 -62 -5 -70 21
-13 40 44 76 73 47z"/>
<path d="M212 1600 c0 -14 2 -19 5 -12 2 6 2 18 0 25 -3 6 -5 1 -5 -13z"/>
<path d="M285 1604 c-14 -15 -20 -36 -15 -59 1 -5 2 -17 3 -27 1 -9 5 -14 9
-12 4 3 14 2 21 -3 6 -4 23 -9 37 -10 14 -1 19 0 12 4 -10 4 -8 9 7 20 24 16
27 51 9 76 -18 23 -65 29 -83 11z m69 -20 c21 -21 20 -37 -4 -59 -41 -37 -97
24 -58 63 17 17 44 15 62 -4z"/>
<path d="M2610 1601 c-10 -20 -14 -59 -5 -49 7 7 25 68 20 68 -3 0 -9 -9 -15
-19z"/>
<path d="M250 1599 c0 -5 5 -7 10 -4 6 3 10 8 10 11 0 2 -4 4 -10 4 -5 0 -10
-5 -10 -11z"/>
<path d="M391 1589 c6 -12 9 -32 6 -46 -4 -22 -3 -23 10 -10 13 13 13 18 -1
46 -9 17 -19 31 -22 31 -2 0 0 -10 7 -21z"/>
<path d="M2770 1550 c0 -11 5 -20 10 -20 6 0 10 9 10 20 0 11 -4 20 -10 20 -5
0 -10 -9 -10 -20z"/>
<path d="M232 1520 c0 -19 2 -27 5 -17 2 9 2 25 0 35 -3 9 -5 1 -5 -18z"/>
<path d="M375 1500 c3 -5 11 -10 16 -10 6 0 7 5 4 10 -3 6 -11 10 -16 10 -6 0
-7 -4 -4 -10z"/>
<path d="M421 1494 c0 -11 3 -14 6 -6 3 7 2 16 -1 19 -3 4 -6 -2 -5 -13z"/>
<path d="M2757 1490 c-3 -11 -1 -23 4 -26 5 -3 9 6 9 20 0 31 -6 34 -13 6z"/>
<path d="M2610 1490 c5 -3 1 -14 -10 -23 -55 -47 17 -126 75 -83 13 10 20 27
20 54 0 22 -3 38 -7 36 -5 -3 -13 -2 -19 2 -8 4 -8 9 -1 13 6 4 -7 6 -28 6
-21 0 -35 -2 -30 -5z m64 -36 c12 -31 6 -55 -16 -63 -42 -16 -78 22 -58 60 13
24 65 26 74 3z"/>
<path d="M2564 1465 c-9 -13 -14 -29 -12 -35 2 -6 11 5 19 24 19 42 16 46 -7
11z"/>
<path d="M245 1470 c3 -5 8 -10 11 -10 2 0 4 5 4 10 0 6 -5 10 -11 10 -5 0 -7
-4 -4 -10z"/>
<path d="M323 1460 c-1 -8 -5 -30 -9 -48 -3 -18 -2 -32 2 -30 5 1 19 -3 32
-10 12 -7 32 -10 42 -7 12 4 20 2 20 -4 0 -6 -4 -11 -8 -11 -10 0 -11 -6 -16
-74 -2 -27 0 -43 4 -35 7 10 12 10 23 1 10 -9 22 -10 40 -3 14 5 27 7 30 5 3
-3 8 8 12 25 8 37 -17 75 -58 90 -24 9 -27 13 -18 30 17 31 13 59 -12 76 -29
18 -82 15 -84 -5z m78 -9 c21 -16 22 -22 11 -45 -20 -45 -82 -30 -82 21 0 19
22 42 41 43 4 0 17 -8 30 -19z m60 -121 c23 -13 25 -52 4 -70 -8 -7 -25 -10
-39 -6 -33 8 -43 42 -20 67 20 22 28 23 55 9z"/>
<path d="M291 1454 c0 -11 3 -14 6 -6 3 7 2 16 -1 19 -3 4 -6 -2 -5 -13z"/>
<path d="M2737 1434 c-4 -4 -7 -14 -7 -23 0 -11 3 -12 11 -4 6 6 10 16 7 23
-2 6 -7 8 -11 4z"/>
<path d="M2711 1410 c0 -8 4 -24 9 -35 5 -13 9 -14 9 -5 0 8 -4 24 -9 35 -5
13 -9 14 -9 5z"/>
<path d="M270 1396 c0 -9 5 -16 10 -16 6 0 10 4 10 9 0 6 -4 13 -10 16 -5 3
-10 -1 -10 -9z"/>
<path d="M2530 1394 c0 -8 5 -12 10 -9 6 3 10 10 10 16 0 5 -4 9 -10 9 -5 0
-10 -7 -10 -16z"/>
<path d="M481 1374 c0 -11 3 -14 6 -6 3 7 2 16 -1 19 -3 4 -6 -2 -5 -13z"/>
<path d="M2510 1358 c0 -7 -9 -24 -20 -38 -19 -24 -29 -54 -12 -34 23 25 52
84 43 84 -6 0 -11 -6 -11 -12z"/>
<path d="M2537 1344 c-25 -33 -22 -71 8 -90 20 -13 31 -15 50 -6 18 8 25 8 28
-1 2 -6 4 8 5 33 2 52 -12 75 -48 82 -19 3 -31 -2 -43 -18z m65 -11 c32 -29
16 -73 -27 -73 -43 0 -58 39 -28 72 20 22 31 23 55 1z"/>
<path d="M290 1344 c0 -8 5 -12 10 -9 6 4 8 11 5 16 -9 14 -15 11 -15 -7z"/>
<path d="M349 1341 c7 -5 10 -14 7 -20 -4 -6 -3 -11 2 -11 17 0 21 28 6 34
-23 9 -31 7 -15 -3z"/>
<path d="M490 1340 c0 -5 5 -10 10 -10 6 0 10 5 10 10 0 6 -4 10 -10 10 -5 0
-10 -4 -10 -10z"/>
<path d="M314 1315 c-3 -8 -4 -20 -2 -27 3 -7 7 -1 10 15 6 29 1 36 -8 12z"/>
<path d="M355 1270 c3 -5 8 -10 11 -10 2 0 4 5 4 10 0 6 -5 10 -11 10 -5 0 -7
-4 -4 -10z"/>
<path d="M2495 1270 c-3 -5 -1 -10 4 -10 6 0 11 5 11 10 0 6 -2 10 -4 10 -3 0
-8 -4 -11 -10z"/>
<path d="M560 1243 c0 -6 7 -16 15 -23 8 -7 15 -21 15 -32 0 -10 5 -16 10 -13
16 10 12 22 -15 51 -14 15 -25 22 -25 17z"/>
<path d="M464 1228 c-14 -23 -3 -80 19 -98 20 -17 28 -17 67 -3 8 4 22 5 31 4
9 -1 19 5 22 14 8 18 -4 20 -22 3 -10 -11 -12 -9 -9 7 3 11 -2 32 -9 48 -10
20 -21 27 -43 27 -16 0 -32 -4 -35 -10 -3 -5 -12 -10 -18 -10 -7 0 -6 4 3 10
8 5 12 12 8 15 -3 4 -10 0 -14 -7z m80 -24 c19 -18 21 -45 4 -62 -39 -39 -100
17 -63 58 22 24 38 25 59 4z"/>
<path d="M2460 1220 c-26 -26 -25 -55 1 -81 31 -31 88 -13 89 28 0 7 6 10 14
7 8 -3 17 -1 21 5 3 7 0 8 -9 5 -9 -3 -19 3 -27 18 -23 43 -57 50 -89 18z m74
-22 c15 -25 -3 -52 -37 -56 -34 -4 -58 38 -37 63 17 20 59 16 74 -7z"/>
<path d="M400 1226 c0 -2 8 -10 18 -17 15 -13 16 -12 3 4 -13 16 -21 21 -21
13z"/>
<path d="M2590 1220 c0 -5 5 -10 10 -10 6 0 10 5 10 10 0 6 -4 10 -10 10 -5 0
-10 -4 -10 -10z"/>
<path d="M366 1205 c4 -8 8 -15 10 -15 2 0 4 7 4 15 0 8 -4 15 -10 15 -5 0 -7
-7 -4 -15z"/>
<path d="M2615 1191 c-3 -5 -1 -12 5 -16 5 -3 10 1 10 9 0 18 -6 21 -15 7z"/>
<path d="M420 1181 c0 -5 5 -13 10 -16 6 -3 10 -2 10 4 0 5 -4 13 -10 16 -5 3
-10 2 -10 -4z"/>
<path d="M385 1170 c3 -5 8 -10 11 -10 2 0 4 5 4 10 0 6 -5 10 -11 10 -5 0 -7
-4 -4 -10z"/>
<path d="M2367 1113 c-20 -23 -22 -64 -5 -81 9 -9 6 -11 -17 -8 -17 2 -34 5
-40 6 -21 5 -46 0 -41 -9 4 -5 2 -11 -3 -13 -5 -1 -12 -15 -16 -30 -8 -31 22
-68 55 -68 33 0 63 38 56 71 -3 16 -1 29 4 29 6 0 10 -4 10 -10 0 -5 5 -10 11
-10 8 0 8 5 -1 15 -11 13 -8 14 18 9 17 -3 32 -1 36 5 4 5 12 9 19 7 7 -1 10
-1 7 1 -10 6 2 73 11 67 5 -3 9 0 9 6 0 7 -6 10 -14 7 -8 -3 -16 -2 -18 3 -2
5 -17 12 -33 16 -23 4 -35 1 -48 -13z m77 -25 c14 -23 -3 -52 -33 -56 -42 -6
-67 38 -39 66 17 17 58 11 72 -10z m-106 -95 c16 -31 -3 -63 -37 -63 -24 0
-32 5 -37 25 -3 14 -4 32 0 40 8 21 63 19 74 -2z"/>
<path d="M430 1117 c0 -5 9 -22 21 -38 21 -29 39 -38 39 -18 0 5 -4 7 -10 4
-5 -3 -10 -3 -10 2 -1 11 -40 60 -40 50z"/>
<path d="M570 1112 c-8 -4 -16 -21 -18 -39 -3 -26 3 -36 32 -58 l34 -26 26 26
c14 14 26 37 26 50 0 40 -56 67 -100 47z m70 -16 c28 -35 -11 -93 -47 -70 -36
22 -23 84 17 84 10 0 23 -7 30 -14z"/>
<path d="M521 1091 c-8 -6 -9 -11 -3 -15 6 -3 14 -1 17 5 9 14 2 20 -14 10z"/>
<path d="M2545 1078 l-20 -21 23 12 c12 6 22 16 22 21 0 13 -2 12 -25 -12z"/>
<path d="M2316 1057 c3 -10 9 -15 12 -12 3 3 0 11 -7 18 -10 9 -11 8 -5 -6z"/>
<path d="M2452 975 c-12 -14 -18 -25 -13 -25 11 0 45 39 39 45 -2 3 -14 -6
-26 -20z"/>
<path d="M2160 970 c-13 -8 -12 -10 3 -10 9 0 17 5 17 10 0 12 -1 12 -20 0z"/>
<path d="M861 951 c13 -11 26 -17 28 -15 5 5 -30 33 -43 34 -4 0 2 -9 15 -19z"/>
<path d="M2220 953 c22 -11 8 -21 -23 -16 -43 7 -71 -18 -65 -59 6 -35 -7 -45
-31 -24 -19 18 -57 21 -66 6 -3 -5 -11 -7 -18 -4 -17 6 -15 -92 2 -109 10 -9
11 -8 5 7 -6 16 -4 17 14 7 32 -17 71 2 78 38 4 16 12 32 19 35 21 8 55 -5 55
-21 0 -8 5 -11 10 -8 6 4 9 9 7 13 -4 7 28 42 38 42 3 0 5 2 5 5 0 3 0 17 0
31 0 14 -4 23 -10 19 -6 -4 -9 3 -7 16 1 12 -4 23 -11 25 -7 1 -8 0 -2 -3z
m-6 -39 c29 -29 13 -74 -25 -74 -21 0 -49 26 -49 45 0 18 27 45 45 45 7 0 21
-7 29 -16z m-135 -64 c25 -13 33 -37 21 -61 -12 -21 -50 -25 -68 -7 -18 18
-15 55 6 67 21 13 20 13 41 1z"/>
<path d="M2120 939 c0 -5 5 -7 10 -4 6 3 10 8 10 11 0 2 -4 4 -10 4 -5 0 -10
-5 -10 -11z"/>
<path d="M791 921 c-12 -12 -21 -30 -21 -41 0 -33 37 -63 68 -55 68 16 67 93
0 110 -19 5 -32 1 -47 -14z m74 -41 c0 -33 -2 -35 -35 -35 -29 0 -36 4 -38 23
-6 40 5 54 40 50 30 -3 33 -6 33 -38z"/>
<path d="M940 900 c36 -25 50 -31 50 -20 0 5 -7 10 -15 10 -8 0 -15 5 -15 10
0 6 -8 10 -17 10 -16 0 -16 -2 -3 -10z"/>
<path d="M914 878 c3 -10 -1 -29 -9 -44 -25 -50 14 -94 72 -80 13 4 22 3 19
-2 -2 -4 -1 -14 5 -22 6 -10 9 5 9 46 0 67 -7 78 -55 90 -17 4 -34 12 -38 18
-6 7 -7 4 -3 -6z m76 -47 c15 -29 13 -39 -15 -57 -24 -16 -27 -16 -45 1 -23
20 -26 45 -8 63 18 18 56 14 68 -7z"/>
<path d="M2015 880 c4 -6 11 -8 16 -5 14 9 11 15 -7 15 -8 0 -12 -5 -9 -10z"/>
<path d="M1008 863 c6 -2 18 -2 25 0 6 3 1 5 -13 5 -14 0 -19 -2 -12 -5z"/>
<path d="M2330 860 c-8 -5 -10 -10 -5 -10 6 0 17 5 25 10 8 5 11 10 5 10 -5 0
-17 -5 -25 -10z"/>
<path d="M694 845 c8 -8 18 -15 22 -15 3 0 1 7 -6 15 -7 8 -17 15 -22 15 -5 0
-3 -7 6 -15z"/>
<path d="M2295 840 c-3 -5 -1 -10 4 -10 6 0 11 5 11 10 0 6 -2 10 -4 10 -3 0
-8 -4 -11 -10z"/>
<path d="M1030 778 c0 -29 7 -61 14 -70 13 -18 66 -25 66 -9 0 5 9 11 20 14
17 4 19 11 14 39 -7 37 -28 58 -59 58 -12 0 -27 -6 -34 -12 -11 -11 -13 -10
-8 4 3 10 2 20 -3 23 -6 4 -10 -16 -10 -47z m83 8 c33 -26 15 -76 -28 -76 -46
0 -60 48 -23 74 27 19 28 19 51 2z"/>
<path d="M855 810 c-3 -5 -1 -10 4 -10 6 0 11 5 11 10 0 6 -2 10 -4 10 -3 0
-8 -4 -11 -10z"/>
<path d="M2150 811 c0 -5 7 -12 16 -15 14 -5 15 -4 4 9 -14 17 -20 19 -20 6z"/>
<path d="M1148 803 c6 -2 18 -2 25 0 6 3 1 5 -13 5 -14 0 -19 -2 -12 -5z"/>
<path d="M1815 805 c-5 -2 -22 -6 -37 -9 -16 -4 -28 -11 -28 -17 0 -6 5 -7 12
-3 7 4 35 13 63 20 27 7 39 12 25 12 -14 0 -29 -1 -35 -3z"/>
<path d="M1886 788 c-15 -24 -19 -108 -5 -108 5 0 6 7 3 15 -4 9 0 15 10 15 9
0 16 -6 16 -14 0 -10 7 -12 22 -8 35 9 57 43 56 85 -1 21 -5 33 -8 26 -6 -8
-9 -8 -14 0 -13 20 -64 13 -80 -11z m74 -2 c28 -35 -11 -93 -47 -70 -36 22
-23 84 17 84 10 0 23 -7 30 -14z"/>
<path d="M1210 792 c24 -15 77 -25 65 -13 -6 6 -26 13 -45 16 -24 4 -30 3 -20
-3z"/>
<path d="M1335 769 c-16 -8 -15 -8 8 -4 16 3 35 1 43 -6 8 -7 14 -7 14 -1 0 9
-24 23 -38 21 -4 0 -16 -5 -27 -10z"/>
<path d="M1637 773 c-3 -5 9 -9 26 -10 24 -2 28 0 17 7 -18 12 -37 13 -43 3z"/>
<path d="M1840 764 c0 -14 -3 -15 -12 -6 -15 15 -48 15 -69 -1 -23 -18 -32
-62 -14 -77 7 -6 11 -19 8 -28 -3 -12 -2 -14 4 -4 5 7 17 10 26 6 10 -3 29 1
43 11 20 13 25 23 23 48 -2 18 0 38 4 44 4 6 3 14 -3 18 -5 3 -10 -2 -10 -11z
m-15 -24 c37 -41 -24 -97 -63 -58 -18 18 -15 55 6 67 25 15 37 13 57 -9z"/>
<path d="M1165 729 c4 -69 65 -105 98 -58 11 15 16 17 20 7 3 -7 6 0 6 15 1
42 -32 71 -83 73 l-43 2 2 -39z m101 -4 c16 -40 -48 -74 -76 -40 -16 19 -5 62
18 68 21 4 51 -10 58 -28z"/>
<path d="M838 753 c7 -3 16 -2 19 1 4 3 -2 6 -13 5 -11 0 -14 -3 -6 -6z"/>
<path d="M1466 751 c-4 -5 3 -7 14 -4 23 6 26 13 6 13 -8 0 -17 -4 -20 -9z"/>
<path d="M1530 750 c20 -13 33 -13 25 0 -3 6 -14 10 -23 10 -15 0 -15 -2 -2
-10z"/>
<path d="M2148 753 c6 -2 18 -2 25 0 6 3 1 5 -13 5 -14 0 -19 -2 -12 -5z"/>
<path d="M1340 737 c-20 -10 -25 -20 -25 -52 0 -22 -4 -43 -9 -47 -5 -3 15 -6
46 -6 30 1 61 -3 69 -7 12 -8 12 -6 1 8 -8 9 -11 21 -7 27 5 7 12 5 21 -7 7
-10 14 -14 14 -10 0 5 10 1 22 -7 12 -9 30 -16 40 -16 20 0 58 37 58 57 0 19
-45 63 -65 63 -24 0 -55 -37 -55 -67 -1 -26 -2 -25 -21 14 -10 23 -28 47 -39
53 -23 12 -20 12 -50 -3z m60 -22 c15 -19 6 -61 -16 -69 -42 -16 -82 35 -54
69 16 19 54 19 70 0z m138 -7 c20 -20 14 -58 -10 -67 -42 -16 -78 22 -58 60
12 21 50 25 68 7z"/>
<path d="M1628 743 c-9 -3 -20 -13 -23 -23 -3 -10 -11 -18 -18 -16 -7 1 -9 1
-4 -1 4 -3 7 -13 7 -24 0 -10 5 -19 11 -19 6 0 8 -10 5 -22 -3 -13 -4 -18 -1
-13 3 6 22 9 43 7 35 -3 40 -1 50 25 17 42 19 78 5 76 -7 -2 -23 1 -35 5 -13
5 -31 7 -40 5z m62 -32 c20 -39 -22 -82 -60 -61 -22 12 -27 49 -8 68 18 18 56
14 68 -7z"/>
<path d="M948 693 c7 -3 16 -2 19 1 4 3 -2 6 -13 5 -11 0 -14 -3 -6 -6z"/>
<path d="M2048 693 c7 -3 16 -2 19 1 4 3 -2 6 -13 5 -11 0 -14 -3 -6 -6z"/>
<path d="M980 679 c0 -5 9 -9 20 -9 11 0 20 4 20 8 0 4 -9 8 -20 9 -11 1 -20
-2 -20 -8z"/>
<path d="M1990 680 c-12 -8 -9 -10 13 -10 16 0 26 4 22 10 -8 12 -16 12 -35 0z"/>
<path d="M1035 659 c4 -5 16 -9 27 -9 26 0 19 9 -11 15 -12 2 -19 0 -16 -6z"/>
<path d="M1934 658 c-3 -4 2 -8 10 -8 8 0 17 4 20 8 3 5 -2 9 -10 9 -8 0 -17
-4 -20 -9z"/>
<path d="M1118 633 c6 -2 18 -2 25 0 6 3 1 5 -13 5 -14 0 -19 -2 -12 -5z"/>
<path d="M1868 633 c6 -2 18 -2 25 0 6 3 1 5 -13 5 -14 0 -19 -2 -12 -5z"/>
<path d="M1200 620 c0 -5 12 -10 28 -10 21 0 24 2 12 10 -20 13 -40 13 -40 0z"/>
<path d="M1775 620 c-4 -6 5 -10 20 -10 15 0 24 4 20 10 -3 6 -12 10 -20 10
-8 0 -17 -4 -20 -10z"/>
<path d="M1325 601 c-26 -6 -21 -8 30 -12 33 -3 64 -2 68 1 4 4 2 7 -5 8 -7 1
-24 3 -38 6 -14 2 -38 1 -55 -3z"/>
<path d="M1630 600 c-11 -7 -1 -9 35 -9 40 1 45 3 25 9 -35 11 -43 11 -60 0z"/>
<path d="M1493 593 c9 -2 25 -2 35 0 9 3 1 5 -18 5 -19 0 -27 -2 -17 -5z"/>
<path d="M115 290 l0 -190 1388 0 1387 0 0 190 0 190 -1387 0 -1388 0 0 -190z
m2761 167 c4 -4 0 -7 -9 -7 -9 0 -19 -5 -22 -10 -4 -6 -3 -10 2 -9 26 5 28 -8
28 -156 l0 -155 -1372 0 -1373 0 0 168 c0 93 2 171 5 174 9 8 2732 4 2741 -5z"/>
<path d="M151 434 c0 -11 3 -14 6 -6 3 7 2 16 -1 19 -3 4 -6 -2 -5 -13z"/>
<path d="M318 438 c6 -6 18 -8 28 -6 14 3 12 5 -9 10 -19 3 -25 2 -19 -4z"/>
<path d="M478 438 c6 -6 18 -8 28 -6 14 3 12 5 -9 10 -19 3 -25 2 -19 -4z"/>
<path d="M565 440 c-18 -8 -17 -9 8 -9 16 -1 26 3 22 9 -3 6 -7 10 -8 9 -1 0
-11 -4 -22 -9z"/>
<path d="M714 439 c-3 -5 9 -9 25 -9 17 0 31 2 31 4 0 8 -51 13 -56 5z"/>
<path d="M909 437 c4 -4 35 -7 67 -5 l59 3 -67 5 c-37 3 -63 1 -59 -3z"/>
<path d="M1095 440 c-15 -6 -7 -9 30 -9 37 0 45 3 30 9 -11 5 -24 9 -30 9 -5
0 -19 -4 -30 -9z"/>
<path d="M1592 442 c-8 -6 4 -9 30 -10 32 0 38 2 23 8 -26 11 -37 11 -53 2z"/>
<path d="M1725 441 c8 -7 175 -11 175 -3 0 4 -40 7 -90 7 -49 1 -87 -1 -85 -4z"/>
<path d="M2043 443 c9 -2 25 -2 35 0 9 3 1 5 -18 5 -19 0 -27 -2 -17 -5z"/>
<path d="M2199 439 c-10 -6 -7 -9 14 -9 29 0 35 5 14 13 -8 3 -20 1 -28 -4z"/>
<path d="M2284 439 c-3 -5 6 -9 20 -9 31 0 34 6 6 13 -11 3 -23 1 -26 -4z"/>
<path d="M2585 440 c-18 -8 -17 -9 8 -9 16 -1 26 3 22 9 -3 6 -7 10 -8 9 -1 0
-11 -4 -22 -9z"/>
<path d="M2798 443 c6 -2 18 -2 25 0 6 3 1 5 -13 5 -14 0 -19 -2 -12 -5z"/>
<path d="M243 433 c9 -2 23 -2 30 0 6 3 -1 5 -18 5 -16 0 -22 -2 -12 -5z"/>
<path d="M403 433 c9 -2 23 -2 30 0 6 3 -1 5 -18 5 -16 0 -22 -2 -12 -5z"/>
<path d="M628 433 c6 -2 18 -2 25 0 6 3 1 5 -13 5 -14 0 -19 -2 -12 -5z"/>
<path d="M808 433 c18 -2 45 -2 60 0 15 2 0 4 -33 4 -33 0 -45 -2 -27 -4z"/>
<path d="M1218 433 c6 -2 18 -2 25 0 6 3 1 5 -13 5 -14 0 -19 -2 -12 -5z"/>
<path d="M1298 433 c23 -2 59 -2 80 0 20 2 1 4 -43 4 -44 0 -61 -2 -37 -4z"/>
<path d="M1453 433 c9 -2 25 -2 35 0 9 3 1 5 -18 5 -19 0 -27 -2 -17 -5z"/>
<path d="M1943 433 c15 -2 39 -2 55 0 15 2 2 4 -28 4 -30 0 -43 -2 -27 -4z"/>
<path d="M2113 433 c9 -2 25 -2 35 0 9 3 1 5 -18 5 -19 0 -27 -2 -17 -5z"/>
<path d="M2373 433 c9 -2 25 -2 35 0 9 3 1 5 -18 5 -19 0 -27 -2 -17 -5z"/>
<path d="M2493 433 c9 -2 23 -2 30 0 6 3 -1 5 -18 5 -16 0 -22 -2 -12 -5z"/>
<path d="M2688 433 c12 -2 30 -2 40 0 9 3 -1 5 -23 4 -22 0 -30 -2 -17 -4z"/>
<path d="M216 394 c-12 -32 -6 -145 9 -175 29 -56 90 -61 133 -11 l22 27 -2
-25 c-3 -22 1 -25 36 -28 35 -3 38 -1 33 17 -3 12 -1 21 4 21 5 0 9 -6 9 -14
0 -19 21 -24 93 -25 l57 -1 0 50 c0 28 5 50 10 50 6 0 10 -19 10 -42 0 -32 3
-39 10 -28 8 12 10 10 10 -8 0 -21 4 -23 37 -20 35 3 37 5 54 63 18 58 18 59
18 20 -2 -93 -12 -85 104 -85 67 0 107 4 115 12 9 9 12 9 12 -1 0 -9 12 -12
43 -9 23 3 52 1 65 -4 15 -5 35 -3 57 7 21 8 35 10 35 4 0 -6 17 -9 38 -7 l37
3 3 73 c2 55 6 72 17 72 8 0 15 -4 15 -10 0 -5 -6 -10 -12 -10 -10 0 -10 -2
-1 -8 6 -4 13 -32 15 -62 3 -54 4 -55 36 -58 17 -2 32 0 33 5 6 76 12 109 20
112 6 1 2 9 -8 17 -17 13 -17 13 5 14 24 0 27 -14 13 -52 -4 -13 -11 -40 -15
-60 l-7 -38 41 0 c29 0 40 4 40 15 0 20 16 19 24 0 4 -12 18 -15 48 -14 24 1
53 -1 64 -5 29 -9 70 8 85 36 14 27 14 77 0 91 -7 7 -7 15 0 24 15 17 -6 70
-31 78 -20 6 -92 3 -85 -3 2 -3 -2 -14 -10 -26 -19 -26 -19 -44 -1 -78 13 -24
13 -28 1 -28 -8 0 -19 18 -25 43 -21 88 -23 92 -58 95 -26 3 -34 -1 -40 -19
l-9 -23 -5 22 c-6 21 -12 22 -112 22 -85 0 -107 -3 -114 -16 -8 -14 -10 -14
-21 0 -19 23 -77 20 -101 -4 -18 -18 -20 -18 -29 -2 -8 15 -30 17 -161 20
-162 3 -180 -1 -180 -44 0 -13 -4 -24 -10 -24 -5 0 -10 11 -10 24 0 38 -20 46
-114 45 -64 -1 -89 -5 -93 -15 -7 -19 -23 -18 -23 1 0 12 -14 14 -72 12 l-73
-2 -6 -65 c-6 -65 -6 -65 -7 -13 -3 70 -9 83 -42 83 -16 0 -30 -7 -34 -16z
m942 -11 c11 -10 22 -31 26 -48 3 -16 3 -24 0 -17 -3 6 -13 12 -21 12 -9 0
-22 8 -29 18 -10 13 -15 14 -25 5 -9 -9 -2 -16 29 -32 47 -24 60 -57 37 -101
-13 -24 -22 -30 -50 -30 -34 0 -65 27 -65 57 0 18 37 16 44 -2 8 -21 36 -19
36 3 0 10 -12 22 -30 29 -68 26 -56 114 16 122 7 0 21 -7 32 -16z m490 1 c26
-18 30 -54 6 -54 -9 0 -23 8 -30 18 -10 13 -15 14 -25 5 -9 -9 -3 -16 27 -30
48 -23 65 -62 43 -101 -20 -37 -80 -43 -103 -10 -9 12 -16 28 -16 35 0 19 31
16 45 -4 7 -9 19 -14 29 -10 26 10 19 26 -21 44 -33 15 -38 23 -41 55 -2 28 2
40 20 52 28 20 38 20 66 0z m-1378 -62 c0 -72 13 -100 37 -81 8 8 13 35 13 80
0 62 2 69 20 69 18 0 20 -7 20 -78 0 -94 -15 -122 -65 -122 -50 0 -65 28 -65
122 0 71 2 78 20 78 18 0 20 -7 20 -68z m185 17 c11 -28 23 -52 26 -54 3 -2 4
20 1 50 -4 50 -3 55 16 55 19 0 21 -7 24 -100 3 -96 2 -100 -18 -100 -16 0
-28 14 -47 58 l-27 57 0 -57 c0 -51 -2 -58 -20 -58 -19 0 -20 7 -20 100 0 97
1 100 23 100 18 0 27 -10 42 -51z m145 -49 c0 -100 0 -100 -25 -100 -25 0 -25
0 -25 100 0 100 0 100 25 100 25 0 25 0 25 -100z m69 56 c6 -25 11 -57 11 -73
0 -22 2 -25 10 -13 5 8 10 24 10 35 0 47 21 95 40 95 24 0 25 5 -3 -105 -21
-81 -26 -90 -48 -93 -23 -3 -26 3 -50 98 l-26 100 22 0 c18 0 25 -9 34 -44z
m221 24 c0 -16 -7 -20 -35 -20 -24 0 -35 -5 -35 -15 0 -10 10 -15 34 -15 19 0
36 3 39 8 2 4 2 1 0 -6 -1 -8 -3 -20 -3 -28 0 -9 -11 -14 -35 -14 -28 0 -35
-4 -35 -20 0 -16 7 -20 38 -20 33 0 37 -3 37 -25 0 -24 -3 -25 -60 -25 l-60 0
3 100 3 100 55 0 c47 0 54 -2 54 -20z m144 4 c9 -24 7 -69 -4 -80 -7 -7 -6
-22 5 -47 20 -49 19 -57 -8 -57 -19 0 -26 8 -36 40 -6 22 -16 40 -21 40 -6 0
-10 -18 -10 -40 0 -33 -3 -40 -20 -40 -19 0 -20 7 -20 100 l0 100 54 0 c40 0
55 -4 60 -16z m216 -84 c0 -93 -1 -100 -20 -100 -19 0 -20 7 -20 100 0 93 1
100 20 100 19 0 20 -7 20 -100z m152 75 c4 -21 1 -25 -18 -25 -23 0 -24 -3
-24 -75 0 -71 -1 -75 -22 -75 -22 0 -23 3 -20 75 4 75 4 75 -22 75 -21 0 -26
5 -26 25 0 24 2 25 64 25 60 0 64 -1 68 -25z m119 -75 l25 -100 -22 0 c-13 0
-24 8 -27 20 -3 12 -14 20 -27 20 -13 0 -24 -8 -27 -20 -3 -12 -14 -20 -27
-20 l-22 0 25 100 c24 93 27 100 51 100 24 0 27 -7 51 -100z m-904 8 c-3 -7
-5 -2 -5 12 0 14 2 19 5 13 2 -7 2 -19 0 -25z m452 -10 c12 -16 11 -18 -7 -18
-15 0 -19 5 -15 20 3 12 6 19 7 18 1 -2 8 -11 15 -20z m-169 -28 c0 -5 -15 -9
-32 -9 l-33 1 30 8 c17 4 31 8 33 9 1 0 2 -3 2 -9z"/>
<path d="M960 329 c0 -14 5 -19 17 -17 26 5 29 38 4 38 -15 0 -21 -6 -21 -21z"/>
<path d="M1458 300 c-3 -20 0 -30 9 -30 8 0 13 12 13 30 0 17 -4 30 -9 30 -5
0 -11 -13 -13 -30z"/>
<path d="M1752 398 c-22 -27 -13 -169 13 -194 37 -38 102 -36 134 4 13 16 13
16 8 0 -8 -22 27 -32 88 -26 29 4 43 2 41 -6 -2 -6 -1 -8 1 -3 3 4 18 7 35 7
17 0 37 8 44 18 13 16 15 16 24 0 9 -14 28 -16 125 -16 63 0 115 4 115 9 0 12
27 12 32 0 3 -10 33 -14 86 -12 24 1 35 7 42 23 8 22 9 22 9 2 1 -19 7 -21 70
-23 55 -2 70 1 75 14 5 15 7 15 22 1 15 -15 65 -22 76 -11 7 7 -47 204 -60
217 -5 5 -22 8 -38 6 -25 -3 -29 -9 -41 -62 -18 -78 -25 -83 -22 -15 3 69 -4
80 -45 77 -29 -2 -32 -5 -28 -27 l3 -26 -13 25 c-10 18 -22 25 -43 25 -30 0
-30 0 -35 -70 -6 -72 -9 -68 -25 29 -2 16 -10 33 -17 38 -20 12 -68 10 -68 -4
0 -9 -3 -9 -12 0 -21 21 -68 15 -78 -10 l-9 -23 -7 23 c-5 17 -14 22 -40 22
-41 0 -44 -16 -14 -81 11 -24 19 -62 19 -84 l-1 -40 -9 35 c-28 106 -44 156
-54 162 -21 15 -57 8 -62 -12 -3 -11 -9 -17 -14 -14 -5 3 -9 -5 -10 -18 0 -21
-2 -20 -16 9 -11 21 -25 33 -46 37 -45 9 -87 7 -87 -4 0 -5 22 -10 49 -10 64
0 81 -21 81 -102 0 -74 -21 -98 -82 -98 l-43 0 3 87 c4 106 -7 135 -52 131
l-31 -3 -5 -80 c-6 -91 -18 -82 -22 15 -3 62 -4 65 -29 68 -14 2 -31 -3 -37
-10z m58 -81 c0 -78 4 -89 26 -80 10 4 14 25 14 79 0 72 1 74 25 74 24 0 25
-2 25 -64 0 -111 -27 -149 -95 -132 -29 7 -45 55 -45 139 0 54 1 57 25 57 24
0 25 -2 25 -73z m350 56 c0 -10 11 -55 24 -100 l24 -83 -24 0 c-14 0 -25 8
-29 20 -4 13 -15 20 -31 20 -17 0 -24 -5 -24 -20 0 -15 -7 -20 -26 -20 -16 0
-24 5 -21 13 3 6 15 51 28 100 22 83 25 87 51 87 20 0 28 -5 28 -17z m90 -15
l11 -33 14 33 c11 24 20 32 40 32 l25 0 -31 -62 c-23 -45 -30 -71 -27 -100 3
-34 1 -38 -19 -38 -21 0 -23 5 -23 45 0 29 -9 64 -25 95 -31 60 -31 60 -1 60
18 0 27 -8 36 -32z m180 -10 c6 -24 16 -61 21 -83 6 -22 12 -48 15 -57 4 -14
-1 -18 -20 -18 -19 0 -26 5 -26 20 0 15 -7 20 -25 20 -18 0 -25 -5 -25 -20 0
-15 -7 -20 -26 -20 -19 0 -24 4 -20 18 3 9 10 37 16 62 31 123 30 120 55 120
20 0 26 -7 35 -42z m123 -15 l27 -58 -2 58 c-3 53 -2 57 20 57 21 0 22 -3 22
-100 0 -97 -1 -100 -22 -100 -18 0 -29 13 -50 58 l-26 57 4 -57 c4 -56 3 -58
-21 -58 -25 0 -25 0 -25 100 0 98 0 100 23 100 19 0 29 -12 50 -57z m187 15
c6 -24 16 -61 21 -83 6 -22 12 -48 15 -57 4 -14 -1 -18 -20 -18 -19 0 -26 5
-26 20 0 15 -7 20 -25 20 -18 0 -25 -5 -25 -20 0 -15 -7 -20 -26 -20 -19 0
-24 4 -20 18 3 9 10 37 16 62 31 123 30 120 55 120 20 0 26 -7 35 -42z m-415
-68 c-20 -71 -24 -79 -24 -47 -1 32 36 143 44 135 2 -2 -7 -41 -20 -88z"/>
<path d="M2118 308 c-3 -27 0 -38 9 -38 14 0 16 24 4 55 -7 16 -9 13 -13 -17z"/>
<path d="M2387 309 c-10 -35 -9 -39 8 -39 16 0 18 14 6 44 -7 18 -8 18 -14 -5z"/>
<path d="M2697 311 c-7 -35 -5 -46 10 -40 4 2 6 20 3 39 l-6 35 -7 -34z"/>
<path d="M2772 380 c0 -14 2 -19 5 -12 2 6 2 18 0 25 -3 6 -5 1 -5 -13z"/>
<path d="M151 298 c0 -49 2 -88 7 -88 4 0 6 28 4 62 -5 107 -9 117 -11 26z"/>
<path d="M1970 294 c0 -47 3 -55 18 -52 33 6 25 108 -9 108 -5 0 -9 -25 -9
-56z m17 -16 c-3 -8 -6 -5 -6 6 -1 11 2 17 5 13 3 -3 4 -12 1 -19z"/>
<path d="M1710 281 c0 -5 5 -13 10 -16 6 -3 10 -2 10 4 0 5 -4 13 -10 16 -5 3
-10 2 -10 -4z"/>
<path d="M1281 224 c0 -11 3 -14 6 -6 3 7 2 16 -1 19 -3 4 -6 -2 -5 -13z"/>
<path d="M151 184 c0 -11 3 -14 6 -6 3 7 2 16 -1 19 -3 4 -6 -2 -5 -13z"/>
<path d="M151 144 c0 -11 3 -14 6 -6 3 7 2 16 -1 19 -3 4 -6 -2 -5 -13z"/>
<path d="M1950 149 c-34 -6 -33 -6 13 -8 46 -1 59 3 35 11 -7 2 -29 1 -48 -3z"/>
<path d="M278 143 c12 -2 30 -2 40 0 9 3 -1 5 -23 4 -22 0 -30 -2 -17 -4z"/>
<path d="M408 143 c7 -3 16 -2 19 1 4 3 -2 6 -13 5 -11 0 -14 -3 -6 -6z"/>
<path d="M493 143 c9 -2 23 -2 30 0 6 3 -1 5 -18 5 -16 0 -22 -2 -12 -5z"/>
<path d="M558 143 c6 -2 18 -2 25 0 6 3 1 5 -13 5 -14 0 -19 -2 -12 -5z"/>
<path d="M673 143 c9 -2 23 -2 30 0 6 3 -1 5 -18 5 -16 0 -22 -2 -12 -5z"/>
<path d="M803 143 c15 -2 39 -2 55 0 15 2 2 4 -28 4 -30 0 -43 -2 -27 -4z"/>
<path d="M928 143 c6 -2 18 -2 25 0 6 3 1 5 -13 5 -14 0 -19 -2 -12 -5z"/>
<path d="M1028 143 c7 -3 16 -2 19 1 4 3 -2 6 -13 5 -11 0 -14 -3 -6 -6z"/>
<path d="M1103 143 c9 -2 25 -2 35 0 9 3 1 5 -18 5 -19 0 -27 -2 -17 -5z"/>
<path d="M1218 143 c6 -2 18 -2 25 0 6 3 1 5 -13 5 -14 0 -19 -2 -12 -5z"/>
<path d="M1328 143 c6 -2 18 -2 25 0 6 3 1 5 -13 5 -14 0 -19 -2 -12 -5z"/>
<path d="M1403 143 c9 -2 23 -2 30 0 6 3 -1 5 -18 5 -16 0 -22 -2 -12 -5z"/>
<path d="M1518 143 c6 -2 18 -2 25 0 6 3 1 5 -13 5 -14 0 -19 -2 -12 -5z"/>
<path d="M1593 143 c9 -2 25 -2 35 0 9 3 1 5 -18 5 -19 0 -27 -2 -17 -5z"/>
<path d="M1813 143 c9 -2 25 -2 35 0 9 3 1 5 -18 5 -19 0 -27 -2 -17 -5z"/>
<path d="M2063 143 c9 -2 23 -2 30 0 6 3 -1 5 -18 5 -16 0 -22 -2 -12 -5z"/>
<path d="M2168 143 c6 -2 18 -2 25 0 6 3 1 5 -13 5 -14 0 -19 -2 -12 -5z"/>
<path d="M2248 143 c7 -3 16 -2 19 1 4 3 -2 6 -13 5 -11 0 -14 -3 -6 -6z"/>
<path d="M2328 143 c6 -2 18 -2 25 0 6 3 1 5 -13 5 -14 0 -19 -2 -12 -5z"/>
<path d="M2438 143 c6 -2 18 -2 25 0 6 3 1 5 -13 5 -14 0 -19 -2 -12 -5z"/>
<path d="M2498 143 c7 -3 16 -2 19 1 4 3 -2 6 -13 5 -11 0 -14 -3 -6 -6z"/>
<path d="M2588 143 c7 -3 16 -2 19 1 4 3 -2 6 -13 5 -11 0 -14 -3 -6 -6z"/>
<path d="M2638 143 c6 -2 18 -2 25 0 6 3 1 5 -13 5 -14 0 -19 -2 -12 -5z"/>
<path d="M2748 143 c7 -3 16 -2 19 1 4 3 -2 6 -13 5 -11 0 -14 -3 -6 -6z"/>
<path d="M1728 3363 c7 -3 16 -2 19 1 4 3 -2 6 -13 5 -11 0 -14 -3 -6 -6z"/>
<path d="M51 2144 c0 -11 3 -14 6 -6 3 7 2 16 -1 19 -3 4 -6 -2 -5 -13z"/>
</g>
</svg>
